<svg xmlns="http://www.w3.org/2000/svg" xmlns:xlink="http://www.w3.org/1999/xlink" width="451" zoomAndPan="magnify" viewBox="0 0 338.25 338.249992" height="451" preserveAspectRatio="xMidYMid meet" version="1.0"><defs><g/><clipPath id="8fe3479696"><path d="M 0 0 L 336.753906 0 L 336.753906 336.753906 L 0 336.753906 Z M 0 0 " clip-rule="nonzero"/></clipPath><clipPath id="dedbb08365"><path d="M 36.5625 116.238281 L 50.777344 116.238281 L 50.777344 130.457031 L 36.5625 130.457031 Z M 36.5625 116.238281 " clip-rule="nonzero"/></clipPath><clipPath id="1a056a6aa3"><path d="M 37.308594 116.988281 L 50 116.988281 L 50 129.710938 L 37.308594 129.710938 Z M 37.308594 116.988281 " clip-rule="nonzero"/></clipPath><clipPath id="6a7e5465c5"><path d="M 38.394531 118.074219 L 48.871094 118.074219 L 48.871094 128.550781 L 38.394531 128.550781 Z M 38.394531 118.074219 " clip-rule="nonzero"/></clipPath><clipPath id="13a0233273"><path d="M 39.21875 118.972656 L 48.199219 118.972656 L 48.199219 127.949219 L 39.21875 127.949219 Z M 39.21875 118.972656 " clip-rule="nonzero"/></clipPath><clipPath id="92062c1bba"><path d="M 36.5625 205.890625 L 50.777344 205.890625 L 50.777344 220.109375 L 36.5625 220.109375 Z M 36.5625 205.890625 " clip-rule="nonzero"/></clipPath><clipPath id="401e56315c"><path d="M 37.308594 206.640625 L 50 206.640625 L 50 219.363281 L 37.308594 219.363281 Z M 37.308594 206.640625 " clip-rule="nonzero"/></clipPath><clipPath id="f2ea75de05"><path d="M 38.394531 207.726562 L 48.871094 207.726562 L 48.871094 218.203125 L 38.394531 218.203125 Z M 38.394531 207.726562 " clip-rule="nonzero"/></clipPath><clipPath id="ba950cf9a3"><path d="M 39.21875 208.625 L 48.199219 208.625 L 48.199219 217.605469 L 39.21875 217.605469 Z M 39.21875 208.625 " clip-rule="nonzero"/></clipPath><clipPath id="902ddb5fa6"><path d="M 286.320312 205.871094 L 300.539062 205.871094 L 300.539062 220.089844 L 286.320312 220.089844 Z M 286.320312 205.871094 " clip-rule="nonzero"/></clipPath><clipPath id="2d6443368d"><path d="M 287.066406 206.621094 L 299.789062 206.621094 L 299.789062 219.34375 L 287.066406 219.34375 Z M 287.066406 206.621094 " clip-rule="nonzero"/></clipPath><clipPath id="cc10e03805"><path d="M 288.152344 207.707031 L 298.628906 207.707031 L 298.628906 218.183594 L 288.152344 218.183594 Z M 288.152344 207.707031 " clip-rule="nonzero"/></clipPath><clipPath id="555b18b55a"><path d="M 288.976562 208.605469 L 297.957031 208.605469 L 297.957031 217.585938 L 288.976562 217.585938 Z M 288.976562 208.605469 " clip-rule="nonzero"/></clipPath><clipPath id="f7876ea328"><path d="M 286.320312 116.070312 L 300.539062 116.070312 L 300.539062 130.289062 L 286.320312 130.289062 Z M 286.320312 116.070312 " clip-rule="nonzero"/></clipPath><clipPath id="e02ce27242"><path d="M 287.066406 116.820312 L 299.789062 116.820312 L 299.789062 129.542969 L 287.066406 129.542969 Z M 287.066406 116.820312 " clip-rule="nonzero"/></clipPath><clipPath id="6aba3dfb83"><path d="M 288.152344 117.90625 L 298.628906 117.90625 L 298.628906 128.382812 L 288.152344 128.382812 Z M 288.152344 117.90625 " clip-rule="nonzero"/></clipPath><clipPath id="e66b52b94e"><path d="M 288.976562 118.804688 L 297.957031 118.804688 L 297.957031 127.785156 L 288.976562 127.785156 Z M 288.976562 118.804688 " clip-rule="nonzero"/></clipPath></defs><g clip-path="url(#8fe3479696)"><path fill="#5e17eb" d="M 336.847656 168.421875 C 336.847656 171.179688 336.777344 173.933594 336.644531 176.6875 C 336.507812 179.441406 336.304688 182.1875 336.035156 184.933594 C 335.765625 187.675781 335.429688 190.410156 335.023438 193.136719 C 334.621094 195.863281 334.148438 198.578125 333.609375 201.28125 C 333.074219 203.984375 332.46875 206.671875 331.800781 209.347656 C 331.128906 212.019531 330.394531 214.675781 329.59375 217.3125 C 328.792969 219.953125 327.929688 222.566406 327 225.164062 C 326.074219 227.757812 325.082031 230.328125 324.027344 232.875 C 322.972656 235.421875 321.855469 237.941406 320.675781 240.433594 C 319.496094 242.925781 318.257812 245.386719 316.960938 247.816406 C 315.660156 250.25 314.300781 252.644531 312.886719 255.011719 C 311.46875 257.375 309.992188 259.703125 308.460938 261.996094 C 306.929688 264.285156 305.34375 266.539062 303.703125 268.753906 C 302.058594 270.96875 300.363281 273.140625 298.617188 275.269531 C 296.867188 277.402344 295.066406 279.488281 293.21875 281.53125 C 291.367188 283.570312 289.464844 285.566406 287.515625 287.515625 C 285.566406 289.464844 283.570312 291.367188 281.53125 293.21875 C 279.488281 295.066406 277.402344 296.867188 275.269531 298.617188 C 273.140625 300.363281 270.96875 302.058594 268.753906 303.703125 C 266.539062 305.34375 264.285156 306.929688 261.996094 308.460938 C 259.703125 309.992188 257.375 311.46875 255.011719 312.886719 C 252.644531 314.300781 250.25 315.660156 247.816406 316.960938 C 245.386719 318.257812 242.925781 319.496094 240.433594 320.675781 C 237.941406 321.855469 235.421875 322.972656 232.875 324.027344 C 230.328125 325.082031 227.757812 326.074219 225.164062 327 C 222.566406 327.929688 219.953125 328.792969 217.3125 329.59375 C 214.675781 330.394531 212.019531 331.128906 209.347656 331.800781 C 206.671875 332.46875 203.984375 333.074219 201.28125 333.609375 C 198.578125 334.148438 195.863281 334.621094 193.136719 335.023438 C 190.410156 335.429688 187.675781 335.765625 184.933594 336.035156 C 182.1875 336.304688 179.441406 336.507812 176.6875 336.644531 C 173.933594 336.777344 171.179688 336.847656 168.421875 336.847656 C 165.667969 336.847656 162.914062 336.777344 160.160156 336.644531 C 157.40625 336.507812 154.65625 336.304688 151.914062 336.035156 C 149.171875 335.765625 146.4375 335.429688 143.710938 335.023438 C 140.984375 334.621094 138.269531 334.148438 135.566406 333.609375 C 132.863281 333.074219 130.171875 332.46875 127.5 331.800781 C 124.824219 331.128906 122.171875 330.394531 119.53125 329.59375 C 116.894531 328.792969 114.277344 327.929688 111.683594 327 C 109.089844 326.074219 106.515625 325.082031 103.96875 324.027344 C 101.425781 322.972656 98.90625 321.855469 96.414062 320.675781 C 93.921875 319.496094 91.460938 318.257812 89.027344 316.960938 C 86.597656 315.660156 84.199219 314.300781 81.835938 312.886719 C 79.472656 311.46875 77.144531 309.992188 74.851562 308.460938 C 72.558594 306.929688 70.308594 305.34375 68.09375 303.703125 C 65.878906 302.058594 63.707031 300.363281 61.578125 298.617188 C 59.445312 296.867188 57.359375 295.066406 55.316406 293.21875 C 53.273438 291.367188 51.277344 289.464844 49.328125 287.515625 C 47.382812 285.566406 45.480469 283.570312 43.628906 281.53125 C 41.777344 279.488281 39.980469 277.402344 38.230469 275.269531 C 36.480469 273.140625 34.785156 270.96875 33.144531 268.753906 C 31.503906 266.539062 29.914062 264.285156 28.382812 261.996094 C 26.851562 259.703125 25.378906 257.375 23.960938 255.011719 C 22.542969 252.644531 21.1875 250.25 19.886719 247.816406 C 18.585938 245.386719 17.347656 242.925781 16.171875 240.433594 C 14.992188 237.941406 13.875 235.421875 12.820312 232.875 C 11.765625 230.328125 10.773438 227.757812 9.84375 225.164062 C 8.917969 222.566406 8.050781 219.953125 7.253906 217.3125 C 6.453125 214.675781 5.71875 212.019531 5.046875 209.347656 C 4.378906 206.671875 3.773438 203.984375 3.234375 201.28125 C 2.699219 198.578125 2.226562 195.863281 1.824219 193.136719 C 1.417969 190.410156 1.082031 187.675781 0.8125 184.933594 C 0.539062 182.1875 0.339844 179.441406 0.203125 176.6875 C 0.0664062 173.933594 0 171.179688 0 168.421875 C 0 165.667969 0.0664062 162.914062 0.203125 160.160156 C 0.339844 157.40625 0.539062 154.65625 0.8125 151.914062 C 1.082031 149.171875 1.417969 146.4375 1.824219 143.710938 C 2.226562 140.984375 2.699219 138.269531 3.234375 135.566406 C 3.773438 132.863281 4.378906 130.171875 5.046875 127.5 C 5.71875 124.824219 6.453125 122.171875 7.253906 119.53125 C 8.050781 116.894531 8.917969 114.277344 9.84375 111.683594 C 10.773438 109.089844 11.765625 106.515625 12.820312 103.96875 C 13.875 101.425781 14.992188 98.90625 16.171875 96.414062 C 17.347656 93.921875 18.585938 91.460938 19.886719 89.027344 C 21.1875 86.597656 22.542969 84.199219 23.960938 81.835938 C 25.378906 79.472656 26.851562 77.144531 28.382812 74.851562 C 29.914062 72.558594 31.503906 70.308594 33.144531 68.09375 C 34.785156 65.878906 36.480469 63.707031 38.230469 61.578125 C 39.980469 59.445312 41.777344 57.359375 43.628906 55.316406 C 45.480469 53.273438 47.382812 51.277344 49.328125 49.328125 C 51.277344 47.382812 53.273438 45.480469 55.316406 43.628906 C 57.359375 41.777344 59.445312 39.980469 61.578125 38.230469 C 63.707031 36.480469 65.878906 34.785156 68.09375 33.144531 C 70.308594 31.503906 72.558594 29.914062 74.851562 28.382812 C 77.144531 26.851562 79.472656 25.378906 81.835938 23.960938 C 84.199219 22.542969 86.597656 21.1875 89.027344 19.886719 C 91.460938 18.585938 93.921875 17.347656 96.414062 16.171875 C 98.90625 14.992188 101.425781 13.875 103.96875 12.820312 C 106.515625 11.765625 109.089844 10.773438 111.683594 9.84375 C 114.277344 8.917969 116.894531 8.050781 119.53125 7.253906 C 122.171875 6.453125 124.824219 5.71875 127.5 5.046875 C 130.171875 4.378906 132.863281 3.773438 135.566406 3.234375 C 138.269531 2.699219 140.984375 2.226562 143.710938 1.824219 C 146.4375 1.417969 149.171875 1.082031 151.914062 0.8125 C 154.65625 0.539062 157.40625 0.339844 160.160156 0.203125 C 162.914062 0.0664062 165.667969 0 168.421875 0 C 171.179688 0 173.933594 0.0664062 176.6875 0.203125 C 179.441406 0.339844 182.1875 0.539062 184.933594 0.8125 C 187.675781 1.082031 190.410156 1.417969 193.136719 1.824219 C 195.863281 2.226562 198.578125 2.699219 201.28125 3.234375 C 203.984375 3.773438 206.671875 4.378906 209.347656 5.046875 C 212.019531 5.71875 214.675781 6.453125 217.3125 7.253906 C 219.953125 8.050781 222.566406 8.917969 225.164062 9.84375 C 227.757812 10.773438 230.328125 11.765625 232.875 12.820312 C 235.421875 13.875 237.941406 14.992188 240.433594 16.171875 C 242.925781 17.347656 245.386719 18.585938 247.816406 19.886719 C 250.25 21.1875 252.644531 22.542969 255.011719 23.960938 C 257.375 25.378906 259.703125 26.851562 261.996094 28.382812 C 264.285156 29.914062 266.539062 31.503906 268.753906 33.144531 C 270.96875 34.785156 273.140625 36.480469 275.269531 38.230469 C 277.402344 39.980469 279.488281 41.777344 281.53125 43.628906 C 283.570312 45.480469 285.566406 47.382812 287.515625 49.328125 C 289.464844 51.277344 291.367188 53.273438 293.21875 55.316406 C 295.066406 57.359375 296.867188 59.445312 298.617188 61.578125 C 300.363281 63.707031 302.058594 65.878906 303.703125 68.09375 C 305.34375 70.308594 306.929688 72.558594 308.460938 74.851562 C 309.992188 77.144531 311.46875 79.472656 312.886719 81.835938 C 314.300781 84.199219 315.660156 86.597656 316.960938 89.027344 C 318.257812 91.460938 319.496094 93.921875 320.675781 96.414062 C 321.855469 98.90625 322.972656 101.425781 324.027344 103.96875 C 325.082031 106.515625 326.074219 109.089844 327 111.683594 C 327.929688 114.277344 328.792969 116.894531 329.59375 119.53125 C 330.394531 122.171875 331.128906 124.824219 331.800781 127.5 C 332.46875 130.171875 333.074219 132.863281 333.609375 135.566406 C 334.148438 138.269531 334.621094 140.984375 335.023438 143.710938 C 335.429688 146.4375 335.765625 149.171875 336.035156 151.914062 C 336.304688 154.65625 336.507812 157.40625 336.644531 160.160156 C 336.777344 162.914062 336.847656 165.667969 336.847656 168.421875 Z M 336.847656 168.421875 " fill-opacity="1" fill-rule="nonzero"/></g><path stroke-linecap="butt" transform="matrix(0.74834, -0.000753868, 0.000753868, 0.74834, 94.364818, 108.667131)" fill="none" stroke-linejoin="miter" d="M 0.000646801 2.501445 L 198.533754 2.497869 " stroke="#53e9f6" stroke-width="5" stroke-opacity="1" stroke-miterlimit="4"/><g fill="#ff00ff" fill-opacity="1"><g transform="translate(42.092653, 192.374384)"><g><path d="M 2.234375 -46.578125 L 22.90625 -46.578125 C 24.769531 -46.578125 26.316406 -46.4375 27.546875 -46.15625 C 28.785156 -45.882812 29.765625 -45.375 30.484375 -44.625 C 31.203125 -43.882812 31.703125 -42.894531 31.984375 -41.65625 C 32.265625 -40.425781 32.40625 -38.859375 32.40625 -36.953125 L 32.40625 -34.5 C 32.40625 -33.0625 32.367188 -31.828125 32.296875 -30.796875 C 32.234375 -29.773438 32.109375 -28.890625 31.921875 -28.140625 C 31.734375 -27.398438 31.488281 -26.785156 31.1875 -26.296875 C 30.882812 -25.804688 30.523438 -25.375 30.109375 -25 C 29.773438 -24.71875 29.445312 -24.484375 29.125 -24.296875 C 28.800781 -24.117188 28.378906 -23.957031 27.859375 -23.8125 C 27.347656 -23.675781 26.734375 -23.535156 26.015625 -23.390625 C 25.296875 -23.253906 24.398438 -23.09375 23.328125 -22.90625 C 24.585938 -22.625 25.632812 -22.367188 26.46875 -22.140625 C 27.3125 -21.910156 28.007812 -21.675781 28.5625 -21.4375 C 29.125 -21.207031 29.578125 -20.941406 29.921875 -20.640625 C 30.273438 -20.335938 30.613281 -19.976562 30.9375 -19.5625 C 31.914062 -18.164062 32.40625 -15.972656 32.40625 -12.984375 L 32.40625 -10.0625 C 32.40625 -5.820312 31.753906 -2.976562 30.453125 -1.53125 C 30.171875 -1.207031 29.867188 -0.953125 29.546875 -0.765625 C 29.222656 -0.578125 28.816406 -0.425781 28.328125 -0.3125 C 27.835938 -0.195312 27.226562 -0.113281 26.5 -0.0625 C 25.78125 -0.0195312 24.882812 0 23.8125 0 L 2.234375 0 Z M 14.734375 -36.3125 L 14.734375 -28.28125 L 17.046875 -28.28125 C 19.046875 -28.28125 20.046875 -29.492188 20.046875 -31.921875 C 20.046875 -33.503906 19.8125 -34.628906 19.34375 -35.296875 C 18.875 -35.972656 18.082031 -36.3125 16.96875 -36.3125 Z M 16.546875 -10.0625 C 17.765625 -10.0625 18.648438 -10.347656 19.203125 -10.921875 C 19.765625 -11.503906 20.046875 -12.472656 20.046875 -13.828125 C 20.046875 -15.460938 19.800781 -16.582031 19.3125 -17.1875 C 18.820312 -17.789062 17.898438 -18.09375 16.546875 -18.09375 L 14.734375 -18.09375 L 14.734375 -10.0625 Z M 16.546875 -10.0625 "/></g></g></g><g fill="#ff00ff" fill-opacity="1"><g transform="translate(75.965688, 192.374384)"><g><path d="M 2.234375 -46.578125 L 21.296875 -46.578125 C 22.878906 -46.578125 24.132812 -46.566406 25.0625 -46.546875 C 26 -46.523438 26.742188 -46.476562 27.296875 -46.40625 C 27.859375 -46.34375 28.300781 -46.238281 28.625 -46.09375 C 28.957031 -45.957031 29.3125 -45.769531 29.6875 -45.53125 C 31.550781 -44.320312 32.484375 -41.671875 32.484375 -37.578125 L 32.484375 -34.578125 C 32.484375 -33.410156 32.46875 -32.429688 32.4375 -31.640625 C 32.414062 -30.847656 32.359375 -30.171875 32.265625 -29.609375 C 32.171875 -29.054688 32.039062 -28.566406 31.875 -28.140625 C 31.71875 -27.722656 31.5 -27.304688 31.21875 -26.890625 C 30.65625 -25.960938 29.96875 -25.273438 29.15625 -24.828125 C 28.34375 -24.390625 27.164062 -24.078125 25.625 -23.890625 C 27.03125 -23.472656 28.171875 -23.039062 29.046875 -22.59375 C 29.929688 -22.15625 30.628906 -21.597656 31.140625 -20.921875 C 31.660156 -20.242188 32.015625 -19.4375 32.203125 -18.5 C 32.390625 -17.570312 32.484375 -16.410156 32.484375 -15.015625 L 32.484375 -7.828125 C 32.484375 -4.984375 32.804688 -2.375 33.453125 0 L 20.953125 0 C 20.578125 -1.207031 20.316406 -2.367188 20.171875 -3.484375 C 20.035156 -4.609375 19.96875 -6.054688 19.96875 -7.828125 L 19.96875 -14.03125 C 19.96875 -15.53125 19.6875 -16.601562 19.125 -17.25 C 18.570312 -17.90625 17.644531 -18.234375 16.34375 -18.234375 L 14.734375 -18.234375 L 14.734375 0 L 2.234375 0 Z M 16.484375 -28.359375 C 17.921875 -28.359375 18.875 -28.613281 19.34375 -29.125 C 19.8125 -29.632812 20.046875 -30.707031 20.046875 -32.34375 C 20.046875 -33.875 19.789062 -34.941406 19.28125 -35.546875 C 18.769531 -36.148438 17.835938 -36.453125 16.484375 -36.453125 L 14.734375 -36.453125 L 14.734375 -28.359375 Z M 16.484375 -28.359375 "/></g></g></g><g fill="#ff00ff" fill-opacity="1"><g transform="translate(110.676826, 192.374384)"><g><path d="M 2.234375 -46.578125 L 14.734375 -46.578125 L 14.734375 0 L 2.234375 0 Z M 2.234375 -46.578125 "/></g></g></g><g fill="#ff00ff" fill-opacity="1"><g transform="translate(127.648262, 192.374384)"><g><path d="M 14.171875 0 C 12.679688 0 11.503906 -0.0078125 10.640625 -0.03125 C 9.785156 -0.0507812 9.113281 -0.0820312 8.625 -0.125 C 8.132812 -0.175781 7.757812 -0.210938 7.5 -0.234375 C 7.25 -0.265625 6.984375 -0.328125 6.703125 -0.421875 C 5.722656 -0.703125 4.921875 -1.15625 4.296875 -1.78125 C 3.671875 -2.40625 3.171875 -3.332031 2.796875 -4.5625 C 2.421875 -5.800781 2.160156 -7.398438 2.015625 -9.359375 C 1.878906 -11.316406 1.8125 -13.785156 1.8125 -16.765625 L 1.8125 -31.640625 C 1.8125 -32.285156 1.832031 -33.050781 1.875 -33.9375 C 1.925781 -34.820312 1.988281 -35.679688 2.0625 -36.515625 C 2.132812 -37.359375 2.203125 -38.148438 2.265625 -38.890625 C 2.335938 -39.640625 2.421875 -40.203125 2.515625 -40.578125 C 2.835938 -42.210938 3.359375 -43.457031 4.078125 -44.3125 C 4.804688 -45.175781 5.820312 -45.796875 7.125 -46.171875 C 7.40625 -46.210938 7.695312 -46.253906 8 -46.296875 C 8.300781 -46.347656 8.695312 -46.394531 9.1875 -46.4375 C 9.675781 -46.488281 10.316406 -46.523438 11.109375 -46.546875 C 11.898438 -46.566406 12.921875 -46.578125 14.171875 -46.578125 L 22.140625 -46.578125 L 22.140625 -36.453125 L 19.90625 -36.453125 C 19.0625 -36.453125 18.382812 -36.441406 17.875 -36.421875 C 17.363281 -36.398438 16.945312 -36.363281 16.625 -36.3125 C 16.300781 -36.269531 16.03125 -36.175781 15.8125 -36.03125 C 15.601562 -35.894531 15.40625 -35.734375 15.21875 -35.546875 C 14.800781 -35.128906 14.546875 -34.648438 14.453125 -34.109375 C 14.359375 -33.578125 14.3125 -32.472656 14.3125 -30.796875 L 14.3125 -15.78125 C 14.3125 -14.101562 14.367188 -12.992188 14.484375 -12.453125 C 14.609375 -11.921875 14.851562 -11.445312 15.21875 -11.03125 C 15.40625 -10.800781 15.601562 -10.628906 15.8125 -10.515625 C 16.03125 -10.398438 16.300781 -10.316406 16.625 -10.265625 C 16.945312 -10.222656 17.363281 -10.1875 17.875 -10.15625 C 18.382812 -10.132812 19.0625 -10.125 19.90625 -10.125 L 22.484375 -10.125 L 22.484375 0 Z M 14.171875 0 "/></g></g></g><g fill="#ff00ff" fill-opacity="1"><g transform="translate(150.835575, 192.374384)"><g><path d="M 2.234375 -46.578125 L 14.734375 -46.578125 L 14.734375 0 L 2.234375 0 Z M 2.234375 -46.578125 "/></g></g></g><g fill="#ff00ff" fill-opacity="1"><g transform="translate(167.80701, 192.374384)"><g><path d="M 14.171875 0 C 11.378906 0 9.144531 -0.40625 7.46875 -1.21875 C 5.789062 -2.03125 4.535156 -3.320312 3.703125 -5.09375 C 3.328125 -5.882812 3.019531 -6.6875 2.78125 -7.5 C 2.550781 -8.320312 2.367188 -9.253906 2.234375 -10.296875 C 2.097656 -11.347656 1.992188 -12.5625 1.921875 -13.9375 C 1.847656 -15.3125 1.8125 -16.972656 1.8125 -18.921875 L 1.8125 -27.65625 C 1.8125 -29.613281 1.847656 -31.28125 1.921875 -32.65625 C 1.992188 -34.03125 2.097656 -35.238281 2.234375 -36.28125 C 2.367188 -37.332031 2.550781 -38.265625 2.78125 -39.078125 C 3.019531 -39.890625 3.328125 -40.691406 3.703125 -41.484375 C 4.535156 -43.253906 5.789062 -44.546875 7.46875 -45.359375 C 9.144531 -46.171875 11.378906 -46.578125 14.171875 -46.578125 L 19.765625 -46.578125 C 22.554688 -46.578125 24.789062 -46.171875 26.46875 -45.359375 C 28.144531 -44.546875 29.40625 -43.253906 30.25 -41.484375 C 30.613281 -40.691406 30.910156 -39.890625 31.140625 -39.078125 C 31.378906 -38.265625 31.566406 -37.332031 31.703125 -36.28125 C 31.847656 -35.238281 31.953125 -34.03125 32.015625 -32.65625 C 32.085938 -31.28125 32.125 -29.613281 32.125 -27.65625 L 32.125 -18.921875 C 32.125 -16.972656 32.085938 -15.3125 32.015625 -13.9375 C 31.953125 -12.5625 31.847656 -11.347656 31.703125 -10.296875 C 31.566406 -9.253906 31.378906 -8.320312 31.140625 -7.5 C 30.910156 -6.6875 30.613281 -5.882812 30.25 -5.09375 C 29.40625 -3.320312 28.144531 -2.03125 26.46875 -1.21875 C 24.789062 -0.40625 22.554688 0 19.765625 0 Z M 19.625 -33.25 C 19.625 -34.363281 19.378906 -35.257812 18.890625 -35.9375 C 18.398438 -36.613281 17.757812 -36.953125 16.96875 -36.953125 C 16.175781 -36.953125 15.535156 -36.613281 15.046875 -35.9375 C 14.554688 -35.257812 14.3125 -34.363281 14.3125 -33.25 L 14.3125 -13.203125 C 14.3125 -12.035156 14.554688 -11.125 15.046875 -10.46875 C 15.535156 -9.820312 16.175781 -9.5 16.96875 -9.5 C 17.757812 -9.5 18.398438 -9.820312 18.890625 -10.46875 C 19.378906 -11.125 19.625 -12.035156 19.625 -13.203125 Z M 19.625 -33.25 "/></g></g></g><g fill="#ff00ff" fill-opacity="1"><g transform="translate(201.680045, 192.374384)"><g><path d="M 2.234375 -46.578125 L 19.828125 -46.578125 C 21.085938 -46.578125 22.066406 -46.566406 22.765625 -46.546875 C 23.460938 -46.523438 24.007812 -46.515625 24.40625 -46.515625 C 24.800781 -46.515625 25.082031 -46.503906 25.25 -46.484375 C 25.414062 -46.460938 25.613281 -46.425781 25.84375 -46.375 C 28.59375 -45.957031 30.457031 -44.75 31.4375 -42.75 C 31.800781 -41.957031 32.078125 -40.523438 32.265625 -38.453125 C 32.453125 -36.378906 32.546875 -33.875 32.546875 -30.9375 L 32.546875 -18.375 C 32.546875 -16 32.472656 -13.691406 32.328125 -11.453125 C 32.191406 -9.222656 32.007812 -7.429688 31.78125 -6.078125 C 31.125 -2.347656 29.070312 -0.367188 25.625 -0.140625 C 25.488281 -0.140625 25.046875 -0.125 24.296875 -0.09375 C 23.554688 -0.0703125 22.066406 -0.0390625 19.828125 0 L 2.234375 0 Z M 16.96875 -10.265625 C 18.269531 -10.265625 19.109375 -10.519531 19.484375 -11.03125 C 19.859375 -11.539062 20.046875 -12.632812 20.046875 -14.3125 L 20.046875 -32.34375 C 20.046875 -34.0625 19.859375 -35.175781 19.484375 -35.6875 C 19.109375 -36.195312 18.269531 -36.453125 16.96875 -36.453125 L 14.734375 -36.453125 L 14.734375 -10.265625 Z M 16.96875 -10.265625 "/></g></g></g><g fill="#ff00ff" fill-opacity="1"><g transform="translate(236.041962, 192.374384)"><g><path d="M 14.171875 0 C 12.679688 0 11.503906 -0.0078125 10.640625 -0.03125 C 9.785156 -0.0507812 9.113281 -0.0820312 8.625 -0.125 C 8.132812 -0.175781 7.757812 -0.210938 7.5 -0.234375 C 7.25 -0.265625 6.984375 -0.328125 6.703125 -0.421875 C 5.722656 -0.703125 4.921875 -1.15625 4.296875 -1.78125 C 3.671875 -2.40625 3.171875 -3.332031 2.796875 -4.5625 C 2.421875 -5.800781 2.160156 -7.398438 2.015625 -9.359375 C 1.878906 -11.316406 1.8125 -13.785156 1.8125 -16.765625 L 1.8125 -31.640625 C 1.8125 -32.335938 1.832031 -33.113281 1.875 -33.96875 C 1.925781 -34.832031 1.988281 -35.679688 2.0625 -36.515625 C 2.132812 -37.359375 2.203125 -38.140625 2.265625 -38.859375 C 2.335938 -39.585938 2.421875 -40.160156 2.515625 -40.578125 C 2.835938 -42.210938 3.359375 -43.457031 4.078125 -44.3125 C 4.804688 -45.175781 5.820312 -45.796875 7.125 -46.171875 C 7.40625 -46.210938 7.695312 -46.253906 8 -46.296875 C 8.300781 -46.347656 8.695312 -46.394531 9.1875 -46.4375 C 9.675781 -46.488281 10.316406 -46.523438 11.109375 -46.546875 C 11.898438 -46.566406 12.921875 -46.578125 14.171875 -46.578125 L 25.84375 -46.578125 L 25.84375 -36.453125 L 14.3125 -36.453125 L 14.3125 -28.359375 L 25.84375 -28.359375 L 25.84375 -18.234375 L 14.3125 -18.234375 L 14.3125 -10.125 L 25.84375 -10.125 L 25.84375 0 Z M 14.171875 0 "/></g></g></g><g fill="#ff00ff" fill-opacity="1"><g transform="translate(263.699119, 192.374384)"><g><path d="M 10.125 0 C 7.46875 -4.65625 5.414062 -9.207031 3.96875 -13.65625 C 2.53125 -18.101562 1.8125 -22.140625 1.8125 -25.765625 L 1.8125 -46.578125 L 14.3125 -46.578125 L 14.3125 -13.125 C 14.3125 -11.78125 14.507812 -10.828125 14.90625 -10.265625 C 15.300781 -9.703125 15.96875 -9.421875 16.90625 -9.421875 C 17.789062 -9.421875 18.429688 -9.703125 18.828125 -10.265625 C 19.222656 -10.828125 19.421875 -11.78125 19.421875 -13.125 L 19.421875 -46.578125 L 31.921875 -46.578125 L 31.921875 -25.765625 C 31.921875 -22.140625 31.195312 -18.066406 29.75 -13.546875 C 28.3125 -9.035156 26.265625 -4.519531 23.609375 0 Z M 10.125 0 "/></g></g></g><g fill="#00ffff" fill-opacity="1"><g transform="translate(39.473469, 192.374384)"><g><path d="M 2.234375 -46.578125 L 22.90625 -46.578125 C 24.769531 -46.578125 26.316406 -46.4375 27.546875 -46.15625 C 28.785156 -45.882812 29.765625 -45.375 30.484375 -44.625 C 31.203125 -43.882812 31.703125 -42.894531 31.984375 -41.65625 C 32.265625 -40.425781 32.40625 -38.859375 32.40625 -36.953125 L 32.40625 -34.5 C 32.40625 -33.0625 32.367188 -31.828125 32.296875 -30.796875 C 32.234375 -29.773438 32.109375 -28.890625 31.921875 -28.140625 C 31.734375 -27.398438 31.488281 -26.785156 31.1875 -26.296875 C 30.882812 -25.804688 30.523438 -25.375 30.109375 -25 C 29.773438 -24.71875 29.445312 -24.484375 29.125 -24.296875 C 28.800781 -24.117188 28.378906 -23.957031 27.859375 -23.8125 C 27.347656 -23.675781 26.734375 -23.535156 26.015625 -23.390625 C 25.296875 -23.253906 24.398438 -23.09375 23.328125 -22.90625 C 24.585938 -22.625 25.632812 -22.367188 26.46875 -22.140625 C 27.3125 -21.910156 28.007812 -21.675781 28.5625 -21.4375 C 29.125 -21.207031 29.578125 -20.941406 29.921875 -20.640625 C 30.273438 -20.335938 30.613281 -19.976562 30.9375 -19.5625 C 31.914062 -18.164062 32.40625 -15.972656 32.40625 -12.984375 L 32.40625 -10.0625 C 32.40625 -5.820312 31.753906 -2.976562 30.453125 -1.53125 C 30.171875 -1.207031 29.867188 -0.953125 29.546875 -0.765625 C 29.222656 -0.578125 28.816406 -0.425781 28.328125 -0.3125 C 27.835938 -0.195312 27.226562 -0.113281 26.5 -0.0625 C 25.78125 -0.0195312 24.882812 0 23.8125 0 L 2.234375 0 Z M 14.734375 -36.3125 L 14.734375 -28.28125 L 17.046875 -28.28125 C 19.046875 -28.28125 20.046875 -29.492188 20.046875 -31.921875 C 20.046875 -33.503906 19.8125 -34.628906 19.34375 -35.296875 C 18.875 -35.972656 18.082031 -36.3125 16.96875 -36.3125 Z M 16.546875 -10.0625 C 17.765625 -10.0625 18.648438 -10.347656 19.203125 -10.921875 C 19.765625 -11.503906 20.046875 -12.472656 20.046875 -13.828125 C 20.046875 -15.460938 19.800781 -16.582031 19.3125 -17.1875 C 18.820312 -17.789062 17.898438 -18.09375 16.546875 -18.09375 L 14.734375 -18.09375 L 14.734375 -10.0625 Z M 16.546875 -10.0625 "/></g></g></g><g fill="#00ffff" fill-opacity="1"><g transform="translate(73.346503, 192.374384)"><g><path d="M 2.234375 -46.578125 L 21.296875 -46.578125 C 22.878906 -46.578125 24.132812 -46.566406 25.0625 -46.546875 C 26 -46.523438 26.742188 -46.476562 27.296875 -46.40625 C 27.859375 -46.34375 28.300781 -46.238281 28.625 -46.09375 C 28.957031 -45.957031 29.3125 -45.769531 29.6875 -45.53125 C 31.550781 -44.320312 32.484375 -41.671875 32.484375 -37.578125 L 32.484375 -34.578125 C 32.484375 -33.410156 32.46875 -32.429688 32.4375 -31.640625 C 32.414062 -30.847656 32.359375 -30.171875 32.265625 -29.609375 C 32.171875 -29.054688 32.039062 -28.566406 31.875 -28.140625 C 31.71875 -27.722656 31.5 -27.304688 31.21875 -26.890625 C 30.65625 -25.960938 29.96875 -25.273438 29.15625 -24.828125 C 28.34375 -24.390625 27.164062 -24.078125 25.625 -23.890625 C 27.03125 -23.472656 28.171875 -23.039062 29.046875 -22.59375 C 29.929688 -22.15625 30.628906 -21.597656 31.140625 -20.921875 C 31.660156 -20.242188 32.015625 -19.4375 32.203125 -18.5 C 32.390625 -17.570312 32.484375 -16.410156 32.484375 -15.015625 L 32.484375 -7.828125 C 32.484375 -4.984375 32.804688 -2.375 33.453125 0 L 20.953125 0 C 20.578125 -1.207031 20.316406 -2.367188 20.171875 -3.484375 C 20.035156 -4.609375 19.96875 -6.054688 19.96875 -7.828125 L 19.96875 -14.03125 C 19.96875 -15.53125 19.6875 -16.601562 19.125 -17.25 C 18.570312 -17.90625 17.644531 -18.234375 16.34375 -18.234375 L 14.734375 -18.234375 L 14.734375 0 L 2.234375 0 Z M 16.484375 -28.359375 C 17.921875 -28.359375 18.875 -28.613281 19.34375 -29.125 C 19.8125 -29.632812 20.046875 -30.707031 20.046875 -32.34375 C 20.046875 -33.875 19.789062 -34.941406 19.28125 -35.546875 C 18.769531 -36.148438 17.835938 -36.453125 16.484375 -36.453125 L 14.734375 -36.453125 L 14.734375 -28.359375 Z M 16.484375 -28.359375 "/></g></g></g><g fill="#00ffff" fill-opacity="1"><g transform="translate(108.057641, 192.374384)"><g><path d="M 2.234375 -46.578125 L 14.734375 -46.578125 L 14.734375 0 L 2.234375 0 Z M 2.234375 -46.578125 "/></g></g></g><g fill="#00ffff" fill-opacity="1"><g transform="translate(125.029077, 192.374384)"><g><path d="M 14.171875 0 C 12.679688 0 11.503906 -0.0078125 10.640625 -0.03125 C 9.785156 -0.0507812 9.113281 -0.0820312 8.625 -0.125 C 8.132812 -0.175781 7.757812 -0.210938 7.5 -0.234375 C 7.25 -0.265625 6.984375 -0.328125 6.703125 -0.421875 C 5.722656 -0.703125 4.921875 -1.15625 4.296875 -1.78125 C 3.671875 -2.40625 3.171875 -3.332031 2.796875 -4.5625 C 2.421875 -5.800781 2.160156 -7.398438 2.015625 -9.359375 C 1.878906 -11.316406 1.8125 -13.785156 1.8125 -16.765625 L 1.8125 -31.640625 C 1.8125 -32.285156 1.832031 -33.050781 1.875 -33.9375 C 1.925781 -34.820312 1.988281 -35.679688 2.0625 -36.515625 C 2.132812 -37.359375 2.203125 -38.148438 2.265625 -38.890625 C 2.335938 -39.640625 2.421875 -40.203125 2.515625 -40.578125 C 2.835938 -42.210938 3.359375 -43.457031 4.078125 -44.3125 C 4.804688 -45.175781 5.820312 -45.796875 7.125 -46.171875 C 7.40625 -46.210938 7.695312 -46.253906 8 -46.296875 C 8.300781 -46.347656 8.695312 -46.394531 9.1875 -46.4375 C 9.675781 -46.488281 10.316406 -46.523438 11.109375 -46.546875 C 11.898438 -46.566406 12.921875 -46.578125 14.171875 -46.578125 L 22.140625 -46.578125 L 22.140625 -36.453125 L 19.90625 -36.453125 C 19.0625 -36.453125 18.382812 -36.441406 17.875 -36.421875 C 17.363281 -36.398438 16.945312 -36.363281 16.625 -36.3125 C 16.300781 -36.269531 16.03125 -36.175781 15.8125 -36.03125 C 15.601562 -35.894531 15.40625 -35.734375 15.21875 -35.546875 C 14.800781 -35.128906 14.546875 -34.648438 14.453125 -34.109375 C 14.359375 -33.578125 14.3125 -32.472656 14.3125 -30.796875 L 14.3125 -15.78125 C 14.3125 -14.101562 14.367188 -12.992188 14.484375 -12.453125 C 14.609375 -11.921875 14.851562 -11.445312 15.21875 -11.03125 C 15.40625 -10.800781 15.601562 -10.628906 15.8125 -10.515625 C 16.03125 -10.398438 16.300781 -10.316406 16.625 -10.265625 C 16.945312 -10.222656 17.363281 -10.1875 17.875 -10.15625 C 18.382812 -10.132812 19.0625 -10.125 19.90625 -10.125 L 22.484375 -10.125 L 22.484375 0 Z M 14.171875 0 "/></g></g></g><g fill="#00ffff" fill-opacity="1"><g transform="translate(148.21639, 192.374384)"><g><path d="M 2.234375 -46.578125 L 14.734375 -46.578125 L 14.734375 0 L 2.234375 0 Z M 2.234375 -46.578125 "/></g></g></g><g fill="#00ffff" fill-opacity="1"><g transform="translate(165.187826, 192.374384)"><g><path d="M 14.171875 0 C 11.378906 0 9.144531 -0.40625 7.46875 -1.21875 C 5.789062 -2.03125 4.535156 -3.320312 3.703125 -5.09375 C 3.328125 -5.882812 3.019531 -6.6875 2.78125 -7.5 C 2.550781 -8.320312 2.367188 -9.253906 2.234375 -10.296875 C 2.097656 -11.347656 1.992188 -12.5625 1.921875 -13.9375 C 1.847656 -15.3125 1.8125 -16.972656 1.8125 -18.921875 L 1.8125 -27.65625 C 1.8125 -29.613281 1.847656 -31.28125 1.921875 -32.65625 C 1.992188 -34.03125 2.097656 -35.238281 2.234375 -36.28125 C 2.367188 -37.332031 2.550781 -38.265625 2.78125 -39.078125 C 3.019531 -39.890625 3.328125 -40.691406 3.703125 -41.484375 C 4.535156 -43.253906 5.789062 -44.546875 7.46875 -45.359375 C 9.144531 -46.171875 11.378906 -46.578125 14.171875 -46.578125 L 19.765625 -46.578125 C 22.554688 -46.578125 24.789062 -46.171875 26.46875 -45.359375 C 28.144531 -44.546875 29.40625 -43.253906 30.25 -41.484375 C 30.613281 -40.691406 30.910156 -39.890625 31.140625 -39.078125 C 31.378906 -38.265625 31.566406 -37.332031 31.703125 -36.28125 C 31.847656 -35.238281 31.953125 -34.03125 32.015625 -32.65625 C 32.085938 -31.28125 32.125 -29.613281 32.125 -27.65625 L 32.125 -18.921875 C 32.125 -16.972656 32.085938 -15.3125 32.015625 -13.9375 C 31.953125 -12.5625 31.847656 -11.347656 31.703125 -10.296875 C 31.566406 -9.253906 31.378906 -8.320312 31.140625 -7.5 C 30.910156 -6.6875 30.613281 -5.882812 30.25 -5.09375 C 29.40625 -3.320312 28.144531 -2.03125 26.46875 -1.21875 C 24.789062 -0.40625 22.554688 0 19.765625 0 Z M 19.625 -33.25 C 19.625 -34.363281 19.378906 -35.257812 18.890625 -35.9375 C 18.398438 -36.613281 17.757812 -36.953125 16.96875 -36.953125 C 16.175781 -36.953125 15.535156 -36.613281 15.046875 -35.9375 C 14.554688 -35.257812 14.3125 -34.363281 14.3125 -33.25 L 14.3125 -13.203125 C 14.3125 -12.035156 14.554688 -11.125 15.046875 -10.46875 C 15.535156 -9.820312 16.175781 -9.5 16.96875 -9.5 C 17.757812 -9.5 18.398438 -9.820312 18.890625 -10.46875 C 19.378906 -11.125 19.625 -12.035156 19.625 -13.203125 Z M 19.625 -33.25 "/></g></g></g><g fill="#00ffff" fill-opacity="1"><g transform="translate(199.06086, 192.374384)"><g><path d="M 2.234375 -46.578125 L 19.828125 -46.578125 C 21.085938 -46.578125 22.066406 -46.566406 22.765625 -46.546875 C 23.460938 -46.523438 24.007812 -46.515625 24.40625 -46.515625 C 24.800781 -46.515625 25.082031 -46.503906 25.25 -46.484375 C 25.414062 -46.460938 25.613281 -46.425781 25.84375 -46.375 C 28.59375 -45.957031 30.457031 -44.75 31.4375 -42.75 C 31.800781 -41.957031 32.078125 -40.523438 32.265625 -38.453125 C 32.453125 -36.378906 32.546875 -33.875 32.546875 -30.9375 L 32.546875 -18.375 C 32.546875 -16 32.472656 -13.691406 32.328125 -11.453125 C 32.191406 -9.222656 32.007812 -7.429688 31.78125 -6.078125 C 31.125 -2.347656 29.070312 -0.367188 25.625 -0.140625 C 25.488281 -0.140625 25.046875 -0.125 24.296875 -0.09375 C 23.554688 -0.0703125 22.066406 -0.0390625 19.828125 0 L 2.234375 0 Z M 16.96875 -10.265625 C 18.269531 -10.265625 19.109375 -10.519531 19.484375 -11.03125 C 19.859375 -11.539062 20.046875 -12.632812 20.046875 -14.3125 L 20.046875 -32.34375 C 20.046875 -34.0625 19.859375 -35.175781 19.484375 -35.6875 C 19.109375 -36.195312 18.269531 -36.453125 16.96875 -36.453125 L 14.734375 -36.453125 L 14.734375 -10.265625 Z M 16.96875 -10.265625 "/></g></g></g><g fill="#00ffff" fill-opacity="1"><g transform="translate(233.422777, 192.374384)"><g><path d="M 14.171875 0 C 12.679688 0 11.503906 -0.0078125 10.640625 -0.03125 C 9.785156 -0.0507812 9.113281 -0.0820312 8.625 -0.125 C 8.132812 -0.175781 7.757812 -0.210938 7.5 -0.234375 C 7.25 -0.265625 6.984375 -0.328125 6.703125 -0.421875 C 5.722656 -0.703125 4.921875 -1.15625 4.296875 -1.78125 C 3.671875 -2.40625 3.171875 -3.332031 2.796875 -4.5625 C 2.421875 -5.800781 2.160156 -7.398438 2.015625 -9.359375 C 1.878906 -11.316406 1.8125 -13.785156 1.8125 -16.765625 L 1.8125 -31.640625 C 1.8125 -32.335938 1.832031 -33.113281 1.875 -33.96875 C 1.925781 -34.832031 1.988281 -35.679688 2.0625 -36.515625 C 2.132812 -37.359375 2.203125 -38.140625 2.265625 -38.859375 C 2.335938 -39.585938 2.421875 -40.160156 2.515625 -40.578125 C 2.835938 -42.210938 3.359375 -43.457031 4.078125 -44.3125 C 4.804688 -45.175781 5.820312 -45.796875 7.125 -46.171875 C 7.40625 -46.210938 7.695312 -46.253906 8 -46.296875 C 8.300781 -46.347656 8.695312 -46.394531 9.1875 -46.4375 C 9.675781 -46.488281 10.316406 -46.523438 11.109375 -46.546875 C 11.898438 -46.566406 12.921875 -46.578125 14.171875 -46.578125 L 25.84375 -46.578125 L 25.84375 -36.453125 L 14.3125 -36.453125 L 14.3125 -28.359375 L 25.84375 -28.359375 L 25.84375 -18.234375 L 14.3125 -18.234375 L 14.3125 -10.125 L 25.84375 -10.125 L 25.84375 0 Z M 14.171875 0 "/></g></g></g><g fill="#00ffff" fill-opacity="1"><g transform="translate(261.079934, 192.374384)"><g><path d="M 10.125 0 C 7.46875 -4.65625 5.414062 -9.207031 3.96875 -13.65625 C 2.53125 -18.101562 1.8125 -22.140625 1.8125 -25.765625 L 1.8125 -46.578125 L 14.3125 -46.578125 L 14.3125 -13.125 C 14.3125 -11.78125 14.507812 -10.828125 14.90625 -10.265625 C 15.300781 -9.703125 15.96875 -9.421875 16.90625 -9.421875 C 17.789062 -9.421875 18.429688 -9.703125 18.828125 -10.265625 C 19.222656 -10.828125 19.421875 -11.78125 19.421875 -13.125 L 19.421875 -46.578125 L 31.921875 -46.578125 L 31.921875 -25.765625 C 31.921875 -22.140625 31.195312 -18.066406 29.75 -13.546875 C 28.3125 -9.035156 26.265625 -4.519531 23.609375 0 Z M 10.125 0 "/></g></g></g><g fill="#f2fcfc" fill-opacity="1"><g transform="translate(40.783061, 192.374384)"><g><path d="M 2.234375 -46.578125 L 22.90625 -46.578125 C 24.769531 -46.578125 26.316406 -46.4375 27.546875 -46.15625 C 28.785156 -45.882812 29.765625 -45.375 30.484375 -44.625 C 31.203125 -43.882812 31.703125 -42.894531 31.984375 -41.65625 C 32.265625 -40.425781 32.40625 -38.859375 32.40625 -36.953125 L 32.40625 -34.5 C 32.40625 -33.0625 32.367188 -31.828125 32.296875 -30.796875 C 32.234375 -29.773438 32.109375 -28.890625 31.921875 -28.140625 C 31.734375 -27.398438 31.488281 -26.785156 31.1875 -26.296875 C 30.882812 -25.804688 30.523438 -25.375 30.109375 -25 C 29.773438 -24.71875 29.445312 -24.484375 29.125 -24.296875 C 28.800781 -24.117188 28.378906 -23.957031 27.859375 -23.8125 C 27.347656 -23.675781 26.734375 -23.535156 26.015625 -23.390625 C 25.296875 -23.253906 24.398438 -23.09375 23.328125 -22.90625 C 24.585938 -22.625 25.632812 -22.367188 26.46875 -22.140625 C 27.3125 -21.910156 28.007812 -21.675781 28.5625 -21.4375 C 29.125 -21.207031 29.578125 -20.941406 29.921875 -20.640625 C 30.273438 -20.335938 30.613281 -19.976562 30.9375 -19.5625 C 31.914062 -18.164062 32.40625 -15.972656 32.40625 -12.984375 L 32.40625 -10.0625 C 32.40625 -5.820312 31.753906 -2.976562 30.453125 -1.53125 C 30.171875 -1.207031 29.867188 -0.953125 29.546875 -0.765625 C 29.222656 -0.578125 28.816406 -0.425781 28.328125 -0.3125 C 27.835938 -0.195312 27.226562 -0.113281 26.5 -0.0625 C 25.78125 -0.0195312 24.882812 0 23.8125 0 L 2.234375 0 Z M 14.734375 -36.3125 L 14.734375 -28.28125 L 17.046875 -28.28125 C 19.046875 -28.28125 20.046875 -29.492188 20.046875 -31.921875 C 20.046875 -33.503906 19.8125 -34.628906 19.34375 -35.296875 C 18.875 -35.972656 18.082031 -36.3125 16.96875 -36.3125 Z M 16.546875 -10.0625 C 17.765625 -10.0625 18.648438 -10.347656 19.203125 -10.921875 C 19.765625 -11.503906 20.046875 -12.472656 20.046875 -13.828125 C 20.046875 -15.460938 19.800781 -16.582031 19.3125 -17.1875 C 18.820312 -17.789062 17.898438 -18.09375 16.546875 -18.09375 L 14.734375 -18.09375 L 14.734375 -10.0625 Z M 16.546875 -10.0625 "/></g></g></g><g fill="#f2fcfc" fill-opacity="1"><g transform="translate(74.656095, 192.374384)"><g><path d="M 2.234375 -46.578125 L 21.296875 -46.578125 C 22.878906 -46.578125 24.132812 -46.566406 25.0625 -46.546875 C 26 -46.523438 26.742188 -46.476562 27.296875 -46.40625 C 27.859375 -46.34375 28.300781 -46.238281 28.625 -46.09375 C 28.957031 -45.957031 29.3125 -45.769531 29.6875 -45.53125 C 31.550781 -44.320312 32.484375 -41.671875 32.484375 -37.578125 L 32.484375 -34.578125 C 32.484375 -33.410156 32.46875 -32.429688 32.4375 -31.640625 C 32.414062 -30.847656 32.359375 -30.171875 32.265625 -29.609375 C 32.171875 -29.054688 32.039062 -28.566406 31.875 -28.140625 C 31.71875 -27.722656 31.5 -27.304688 31.21875 -26.890625 C 30.65625 -25.960938 29.96875 -25.273438 29.15625 -24.828125 C 28.34375 -24.390625 27.164062 -24.078125 25.625 -23.890625 C 27.03125 -23.472656 28.171875 -23.039062 29.046875 -22.59375 C 29.929688 -22.15625 30.628906 -21.597656 31.140625 -20.921875 C 31.660156 -20.242188 32.015625 -19.4375 32.203125 -18.5 C 32.390625 -17.570312 32.484375 -16.410156 32.484375 -15.015625 L 32.484375 -7.828125 C 32.484375 -4.984375 32.804688 -2.375 33.453125 0 L 20.953125 0 C 20.578125 -1.207031 20.316406 -2.367188 20.171875 -3.484375 C 20.035156 -4.609375 19.96875 -6.054688 19.96875 -7.828125 L 19.96875 -14.03125 C 19.96875 -15.53125 19.6875 -16.601562 19.125 -17.25 C 18.570312 -17.90625 17.644531 -18.234375 16.34375 -18.234375 L 14.734375 -18.234375 L 14.734375 0 L 2.234375 0 Z M 16.484375 -28.359375 C 17.921875 -28.359375 18.875 -28.613281 19.34375 -29.125 C 19.8125 -29.632812 20.046875 -30.707031 20.046875 -32.34375 C 20.046875 -33.875 19.789062 -34.941406 19.28125 -35.546875 C 18.769531 -36.148438 17.835938 -36.453125 16.484375 -36.453125 L 14.734375 -36.453125 L 14.734375 -28.359375 Z M 16.484375 -28.359375 "/></g></g></g><g fill="#f2fcfc" fill-opacity="1"><g transform="translate(109.367233, 192.374384)"><g><path d="M 2.234375 -46.578125 L 14.734375 -46.578125 L 14.734375 0 L 2.234375 0 Z M 2.234375 -46.578125 "/></g></g></g><g fill="#f2fcfc" fill-opacity="1"><g transform="translate(126.338669, 192.374384)"><g><path d="M 14.171875 0 C 12.679688 0 11.503906 -0.0078125 10.640625 -0.03125 C 9.785156 -0.0507812 9.113281 -0.0820312 8.625 -0.125 C 8.132812 -0.175781 7.757812 -0.210938 7.5 -0.234375 C 7.25 -0.265625 6.984375 -0.328125 6.703125 -0.421875 C 5.722656 -0.703125 4.921875 -1.15625 4.296875 -1.78125 C 3.671875 -2.40625 3.171875 -3.332031 2.796875 -4.5625 C 2.421875 -5.800781 2.160156 -7.398438 2.015625 -9.359375 C 1.878906 -11.316406 1.8125 -13.785156 1.8125 -16.765625 L 1.8125 -31.640625 C 1.8125 -32.285156 1.832031 -33.050781 1.875 -33.9375 C 1.925781 -34.820312 1.988281 -35.679688 2.0625 -36.515625 C 2.132812 -37.359375 2.203125 -38.148438 2.265625 -38.890625 C 2.335938 -39.640625 2.421875 -40.203125 2.515625 -40.578125 C 2.835938 -42.210938 3.359375 -43.457031 4.078125 -44.3125 C 4.804688 -45.175781 5.820312 -45.796875 7.125 -46.171875 C 7.40625 -46.210938 7.695312 -46.253906 8 -46.296875 C 8.300781 -46.347656 8.695312 -46.394531 9.1875 -46.4375 C 9.675781 -46.488281 10.316406 -46.523438 11.109375 -46.546875 C 11.898438 -46.566406 12.921875 -46.578125 14.171875 -46.578125 L 22.140625 -46.578125 L 22.140625 -36.453125 L 19.90625 -36.453125 C 19.0625 -36.453125 18.382812 -36.441406 17.875 -36.421875 C 17.363281 -36.398438 16.945312 -36.363281 16.625 -36.3125 C 16.300781 -36.269531 16.03125 -36.175781 15.8125 -36.03125 C 15.601562 -35.894531 15.40625 -35.734375 15.21875 -35.546875 C 14.800781 -35.128906 14.546875 -34.648438 14.453125 -34.109375 C 14.359375 -33.578125 14.3125 -32.472656 14.3125 -30.796875 L 14.3125 -15.78125 C 14.3125 -14.101562 14.367188 -12.992188 14.484375 -12.453125 C 14.609375 -11.921875 14.851562 -11.445312 15.21875 -11.03125 C 15.40625 -10.800781 15.601562 -10.628906 15.8125 -10.515625 C 16.03125 -10.398438 16.300781 -10.316406 16.625 -10.265625 C 16.945312 -10.222656 17.363281 -10.1875 17.875 -10.15625 C 18.382812 -10.132812 19.0625 -10.125 19.90625 -10.125 L 22.484375 -10.125 L 22.484375 0 Z M 14.171875 0 "/></g></g></g><g fill="#f2fcfc" fill-opacity="1"><g transform="translate(149.525982, 192.374384)"><g><path d="M 2.234375 -46.578125 L 14.734375 -46.578125 L 14.734375 0 L 2.234375 0 Z M 2.234375 -46.578125 "/></g></g></g><g fill="#f2fcfc" fill-opacity="1"><g transform="translate(166.497418, 192.374384)"><g><path d="M 14.171875 0 C 11.378906 0 9.144531 -0.40625 7.46875 -1.21875 C 5.789062 -2.03125 4.535156 -3.320312 3.703125 -5.09375 C 3.328125 -5.882812 3.019531 -6.6875 2.78125 -7.5 C 2.550781 -8.320312 2.367188 -9.253906 2.234375 -10.296875 C 2.097656 -11.347656 1.992188 -12.5625 1.921875 -13.9375 C 1.847656 -15.3125 1.8125 -16.972656 1.8125 -18.921875 L 1.8125 -27.65625 C 1.8125 -29.613281 1.847656 -31.28125 1.921875 -32.65625 C 1.992188 -34.03125 2.097656 -35.238281 2.234375 -36.28125 C 2.367188 -37.332031 2.550781 -38.265625 2.78125 -39.078125 C 3.019531 -39.890625 3.328125 -40.691406 3.703125 -41.484375 C 4.535156 -43.253906 5.789062 -44.546875 7.46875 -45.359375 C 9.144531 -46.171875 11.378906 -46.578125 14.171875 -46.578125 L 19.765625 -46.578125 C 22.554688 -46.578125 24.789062 -46.171875 26.46875 -45.359375 C 28.144531 -44.546875 29.40625 -43.253906 30.25 -41.484375 C 30.613281 -40.691406 30.910156 -39.890625 31.140625 -39.078125 C 31.378906 -38.265625 31.566406 -37.332031 31.703125 -36.28125 C 31.847656 -35.238281 31.953125 -34.03125 32.015625 -32.65625 C 32.085938 -31.28125 32.125 -29.613281 32.125 -27.65625 L 32.125 -18.921875 C 32.125 -16.972656 32.085938 -15.3125 32.015625 -13.9375 C 31.953125 -12.5625 31.847656 -11.347656 31.703125 -10.296875 C 31.566406 -9.253906 31.378906 -8.320312 31.140625 -7.5 C 30.910156 -6.6875 30.613281 -5.882812 30.25 -5.09375 C 29.40625 -3.320312 28.144531 -2.03125 26.46875 -1.21875 C 24.789062 -0.40625 22.554688 0 19.765625 0 Z M 19.625 -33.25 C 19.625 -34.363281 19.378906 -35.257812 18.890625 -35.9375 C 18.398438 -36.613281 17.757812 -36.953125 16.96875 -36.953125 C 16.175781 -36.953125 15.535156 -36.613281 15.046875 -35.9375 C 14.554688 -35.257812 14.3125 -34.363281 14.3125 -33.25 L 14.3125 -13.203125 C 14.3125 -12.035156 14.554688 -11.125 15.046875 -10.46875 C 15.535156 -9.820312 16.175781 -9.5 16.96875 -9.5 C 17.757812 -9.5 18.398438 -9.820312 18.890625 -10.46875 C 19.378906 -11.125 19.625 -12.035156 19.625 -13.203125 Z M 19.625 -33.25 "/></g></g></g><g fill="#f2fcfc" fill-opacity="1"><g transform="translate(200.370452, 192.374384)"><g><path d="M 2.234375 -46.578125 L 19.828125 -46.578125 C 21.085938 -46.578125 22.066406 -46.566406 22.765625 -46.546875 C 23.460938 -46.523438 24.007812 -46.515625 24.40625 -46.515625 C 24.800781 -46.515625 25.082031 -46.503906 25.25 -46.484375 C 25.414062 -46.460938 25.613281 -46.425781 25.84375 -46.375 C 28.59375 -45.957031 30.457031 -44.75 31.4375 -42.75 C 31.800781 -41.957031 32.078125 -40.523438 32.265625 -38.453125 C 32.453125 -36.378906 32.546875 -33.875 32.546875 -30.9375 L 32.546875 -18.375 C 32.546875 -16 32.472656 -13.691406 32.328125 -11.453125 C 32.191406 -9.222656 32.007812 -7.429688 31.78125 -6.078125 C 31.125 -2.347656 29.070312 -0.367188 25.625 -0.140625 C 25.488281 -0.140625 25.046875 -0.125 24.296875 -0.09375 C 23.554688 -0.0703125 22.066406 -0.0390625 19.828125 0 L 2.234375 0 Z M 16.96875 -10.265625 C 18.269531 -10.265625 19.109375 -10.519531 19.484375 -11.03125 C 19.859375 -11.539062 20.046875 -12.632812 20.046875 -14.3125 L 20.046875 -32.34375 C 20.046875 -34.0625 19.859375 -35.175781 19.484375 -35.6875 C 19.109375 -36.195312 18.269531 -36.453125 16.96875 -36.453125 L 14.734375 -36.453125 L 14.734375 -10.265625 Z M 16.96875 -10.265625 "/></g></g></g><g fill="#f2fcfc" fill-opacity="1"><g transform="translate(234.73237, 192.374384)"><g><path d="M 14.171875 0 C 12.679688 0 11.503906 -0.0078125 10.640625 -0.03125 C 9.785156 -0.0507812 9.113281 -0.0820312 8.625 -0.125 C 8.132812 -0.175781 7.757812 -0.210938 7.5 -0.234375 C 7.25 -0.265625 6.984375 -0.328125 6.703125 -0.421875 C 5.722656 -0.703125 4.921875 -1.15625 4.296875 -1.78125 C 3.671875 -2.40625 3.171875 -3.332031 2.796875 -4.5625 C 2.421875 -5.800781 2.160156 -7.398438 2.015625 -9.359375 C 1.878906 -11.316406 1.8125 -13.785156 1.8125 -16.765625 L 1.8125 -31.640625 C 1.8125 -32.335938 1.832031 -33.113281 1.875 -33.96875 C 1.925781 -34.832031 1.988281 -35.679688 2.0625 -36.515625 C 2.132812 -37.359375 2.203125 -38.140625 2.265625 -38.859375 C 2.335938 -39.585938 2.421875 -40.160156 2.515625 -40.578125 C 2.835938 -42.210938 3.359375 -43.457031 4.078125 -44.3125 C 4.804688 -45.175781 5.820312 -45.796875 7.125 -46.171875 C 7.40625 -46.210938 7.695312 -46.253906 8 -46.296875 C 8.300781 -46.347656 8.695312 -46.394531 9.1875 -46.4375 C 9.675781 -46.488281 10.316406 -46.523438 11.109375 -46.546875 C 11.898438 -46.566406 12.921875 -46.578125 14.171875 -46.578125 L 25.84375 -46.578125 L 25.84375 -36.453125 L 14.3125 -36.453125 L 14.3125 -28.359375 L 25.84375 -28.359375 L 25.84375 -18.234375 L 14.3125 -18.234375 L 14.3125 -10.125 L 25.84375 -10.125 L 25.84375 0 Z M 14.171875 0 "/></g></g></g><g fill="#f2fcfc" fill-opacity="1"><g transform="translate(262.389526, 192.374384)"><g><path d="M 10.125 0 C 7.46875 -4.65625 5.414062 -9.207031 3.96875 -13.65625 C 2.53125 -18.101562 1.8125 -22.140625 1.8125 -25.765625 L 1.8125 -46.578125 L 14.3125 -46.578125 L 14.3125 -13.125 C 14.3125 -11.78125 14.507812 -10.828125 14.90625 -10.265625 C 15.300781 -9.703125 15.96875 -9.421875 16.90625 -9.421875 C 17.789062 -9.421875 18.429688 -9.703125 18.828125 -10.265625 C 19.222656 -10.828125 19.421875 -11.78125 19.421875 -13.125 L 19.421875 -46.578125 L 31.921875 -46.578125 L 31.921875 -25.765625 C 31.921875 -22.140625 31.195312 -18.066406 29.75 -13.546875 C 28.3125 -9.035156 26.265625 -4.519531 23.609375 0 Z M 10.125 0 "/></g></g></g><path stroke-linecap="butt" transform="matrix(0.529157, -0.529157, 0.529157, 0.529157, 67.952092, 135.048141)" fill="none" stroke-linejoin="miter" d="M -0.00151858 2.498596 L 49.675839 2.502287 " stroke="#53e9f6" stroke-width="5" stroke-opacity="1" stroke-miterlimit="4"/><path stroke-linecap="butt" transform="matrix(0.748341, 0.000000000000000477, -0.000000000000000477, 0.748341, 37.220426, 134.060815)" fill="none" stroke-linejoin="miter" d="M -0.0022395 2.502575 L 44.632972 2.502575 " stroke="#53e9f6" stroke-width="5" stroke-opacity="1" stroke-miterlimit="4"/><path stroke-linecap="butt" transform="matrix(0.748341, 0, 0, 0.748341, 37.220426, 198.966695)" fill="none" stroke-linejoin="miter" d="M -0.0022395 2.49785 L 44.632972 2.49785 " stroke="#53e9f6" stroke-width="5" stroke-opacity="1" stroke-miterlimit="4"/><path stroke-linecap="butt" transform="matrix(0.524072, 0.534193, -0.534193, 0.524072, 70.761737, 198.938588)" fill="none" stroke-linejoin="miter" d="M 0.000733258 2.501603 L 50.437029 2.499076 " stroke="#53e9f6" stroke-width="5" stroke-opacity="1" stroke-miterlimit="4"/><path stroke-linecap="butt" transform="matrix(0.74834, 0.000752836, -0.000752836, 0.74834, 94.36563, 224.568569)" fill="none" stroke-linejoin="miter" d="M -0.000625521 2.497436 L 198.803897 2.501012 " stroke="#53e9f6" stroke-width="5" stroke-opacity="1" stroke-miterlimit="4"/><path stroke-linecap="butt" transform="matrix(0.522573, -0.53566, 0.53566, 0.522573, 240.549212, 225.728717)" fill="none" stroke-linejoin="miter" d="M -0.00153989 2.498436 L 50.587655 2.500243 " stroke="#53e9f6" stroke-width="5" stroke-opacity="1" stroke-miterlimit="4"/><path stroke-linecap="butt" transform="matrix(0.748341, -0.0000624551, 0.0000624551, 0.748341, 266.884035, 198.675996)" fill="none" stroke-linejoin="miter" d="M -0.00184277 2.500036 L 43.72511 2.498466 " stroke="#53e9f6" stroke-width="5" stroke-opacity="1" stroke-miterlimit="4"/><path stroke-linecap="butt" transform="matrix(0.504696, -0.552536, 0.552536, 0.504696, 296.492982, 200.553191)" fill="none" stroke-linejoin="miter" d="M 1.738215 1.874987 C 6.258447 6.25095 11.002542 6.251326 15.974019 1.879969 " stroke="#53e9f6" stroke-width="5" stroke-opacity="1" stroke-miterlimit="4"/><path stroke-linecap="butt" transform="matrix(0.00649893, 0.748312, -0.748312, 0.00649893, 307.011232, 141.864737)" fill="none" stroke-linejoin="miter" d="M 0.00244496 2.499789 L 69.090196 2.499492 " stroke="#53e9f6" stroke-width="5" stroke-opacity="1" stroke-miterlimit="4"/><path stroke-linecap="butt" transform="matrix(-0.557427, -0.499288, 0.499288, -0.557427, 305.19332, 144.722668)" fill="none" stroke-linejoin="miter" d="M 1.727866 1.886114 C 6.293054 6.255293 11.083578 6.260099 16.10762 1.886198 " stroke="#53e9f6" stroke-width="5" stroke-opacity="1" stroke-miterlimit="4"/><path stroke-linecap="butt" transform="matrix(0.748339, 0.00157622, -0.00157622, 0.748339, 266.983015, 133.720027)" fill="none" stroke-linejoin="miter" d="M 0.00186015 2.498619 L 40.99891 2.501005 " stroke="#53e9f6" stroke-width="5" stroke-opacity="1" stroke-miterlimit="4"/><path stroke-linecap="butt" transform="matrix(0.532988, 0.525298, -0.525298, 0.532988, 242.905814, 108.428905)" fill="none" stroke-linejoin="miter" d="M 0.00144615 2.49922 L 49.986466 2.500707 " stroke="#53e9f6" stroke-width="5" stroke-opacity="1" stroke-miterlimit="4"/><path stroke-linecap="butt" transform="matrix(0.531669, 0.526633, -0.526633, 0.531669, 68.417357, 121.609684)" fill="none" stroke-linejoin="miter" d="M -0.000526807 2.497972 L 15.077428 2.499588 " stroke="#53e9f6" stroke-width="5" stroke-opacity="1" stroke-miterlimit="4"/><path stroke-linecap="butt" transform="matrix(-0.748316, -0.00606181, 0.00606181, -0.748316, 68.4319, 125.255272)" fill="none" stroke-linejoin="miter" d="M 0.00234527 2.502211 L 24.687964 2.500605 " stroke="#53e9f6" stroke-width="5" stroke-opacity="1" stroke-miterlimit="4"/><path stroke-linecap="butt" transform="matrix(-0.531669, -0.526633, 0.526633, -0.531669, 269.445789, 215.156505)" fill="none" stroke-linejoin="miter" d="M -0.000125425 2.498635 L 15.07783 2.500252 " stroke="#53e9f6" stroke-width="5" stroke-opacity="1" stroke-miterlimit="4"/><path stroke-linecap="butt" transform="matrix(0.748316, 0.00606181, -0.00606181, 0.748316, 269.438712, 211.510915)" fill="none" stroke-linejoin="miter" d="M -0.00223668 2.501498 L 24.688602 2.499849 " stroke="#53e9f6" stroke-width="5" stroke-opacity="1" stroke-miterlimit="4"/><path stroke-linecap="butt" transform="matrix(0.532661, -0.525629, 0.525629, 0.532661, 64.739678, 212.646932)" fill="none" stroke-linejoin="miter" d="M -0.000876345 2.502672 L 15.03662 2.498716 " stroke="#53e9f6" stroke-width="5" stroke-opacity="1" stroke-miterlimit="4"/><path stroke-linecap="butt" transform="matrix(0.748307, 0.00707359, -0.00707359, 0.748307, 49.990676, 211.361292)" fill="none" stroke-linejoin="miter" d="M -0.00046884 2.497878 L 23.135088 2.498427 " stroke="#53e9f6" stroke-width="5" stroke-opacity="1" stroke-miterlimit="4"/><path stroke-linecap="butt" transform="matrix(-0.532661, 0.525629, -0.525629, -0.532661, 272.135167, 123.979175)" fill="none" stroke-linejoin="miter" d="M 0.00160339 2.499863 L 15.035434 2.499623 " stroke="#53e9f6" stroke-width="5" stroke-opacity="1" stroke-miterlimit="4"/><path stroke-linecap="butt" transform="matrix(-0.748317, 0.00589449, -0.00589449, -0.748317, 287.210809, 124.965581)" fill="none" stroke-linejoin="miter" d="M 0.00100521 2.501394 L 23.76265 2.500643 " stroke="#53e9f6" stroke-width="5" stroke-opacity="1" stroke-miterlimit="4"/><g clip-path="url(#dedbb08365)"><path fill="#53e9f6" d="M 43.710938 116.238281 C 39.761719 116.238281 36.5625 119.4375 36.5625 123.390625 C 36.5625 127.339844 39.761719 130.539062 43.710938 130.539062 C 47.660156 130.539062 50.859375 127.339844 50.859375 123.390625 C 50.859375 119.4375 47.660156 116.238281 43.710938 116.238281 Z M 43.710938 129.109375 C 40.550781 129.109375 37.992188 126.550781 37.992188 123.390625 C 37.992188 120.230469 40.550781 117.667969 43.710938 117.667969 C 46.871094 117.667969 49.429688 120.230469 49.429688 123.390625 C 49.429688 126.550781 46.871094 129.109375 43.710938 129.109375 Z M 43.710938 129.109375 " fill-opacity="1" fill-rule="nonzero"/></g><g clip-path="url(#1a056a6aa3)"><path fill="#53e9f6" d="M 43.640625 116.988281 C 40.140625 116.988281 37.308594 119.820312 37.308594 123.320312 C 37.308594 126.816406 40.140625 129.652344 43.640625 129.652344 C 47.140625 129.652344 49.972656 126.816406 49.972656 123.320312 C 49.972656 119.820312 47.140625 116.988281 43.640625 116.988281 Z M 43.640625 128.382812 C 40.84375 128.382812 38.574219 126.117188 38.574219 123.320312 C 38.574219 120.519531 40.84375 118.253906 43.640625 118.253906 C 46.4375 118.253906 48.707031 120.519531 48.707031 123.320312 C 48.707031 126.117188 46.4375 128.382812 43.640625 128.382812 Z M 43.640625 128.382812 " fill-opacity="1" fill-rule="nonzero"/></g><g clip-path="url(#6a7e5465c5)"><path fill="#53e9f6" d="M 43.714844 118.074219 C 40.773438 118.074219 38.394531 120.453125 38.394531 123.394531 C 38.394531 126.332031 40.773438 128.714844 43.714844 128.714844 C 46.652344 128.714844 49.035156 126.332031 49.035156 123.394531 C 49.035156 120.453125 46.652344 118.074219 43.714844 118.074219 Z M 43.714844 127.648438 C 41.363281 127.648438 39.457031 125.746094 39.457031 123.394531 C 39.457031 121.042969 41.363281 119.136719 43.714844 119.136719 C 46.066406 119.136719 47.972656 121.042969 47.972656 123.394531 C 47.972656 125.746094 46.066406 127.648438 43.714844 127.648438 Z M 43.714844 127.648438 " fill-opacity="1" fill-rule="nonzero"/></g><g clip-path="url(#13a0233273)"><path fill="#53e9f6" d="M 43.636719 118.972656 C 41.195312 118.972656 39.21875 120.949219 39.21875 123.390625 C 39.21875 125.832031 41.195312 127.8125 43.636719 127.8125 C 46.078125 127.8125 48.058594 125.832031 48.058594 123.390625 C 48.058594 120.949219 46.078125 118.972656 43.636719 118.972656 Z M 43.636719 126.925781 C 41.683594 126.925781 40.101562 125.34375 40.101562 123.390625 C 40.101562 121.4375 41.683594 119.855469 43.636719 119.855469 C 45.589844 119.855469 47.171875 121.4375 47.171875 123.390625 C 47.171875 125.34375 45.589844 126.925781 43.636719 126.925781 Z M 43.636719 126.925781 " fill-opacity="1" fill-rule="nonzero"/></g><g clip-path="url(#92062c1bba)"><path fill="#53e9f6" d="M 43.710938 205.890625 C 39.761719 205.890625 36.5625 209.089844 36.5625 213.042969 C 36.5625 216.992188 39.761719 220.191406 43.710938 220.191406 C 47.660156 220.191406 50.859375 216.992188 50.859375 213.042969 C 50.859375 209.089844 47.660156 205.890625 43.710938 205.890625 Z M 43.710938 218.761719 C 40.550781 218.761719 37.992188 216.203125 37.992188 213.042969 C 37.992188 209.882812 40.550781 207.320312 43.710938 207.320312 C 46.871094 207.320312 49.429688 209.882812 49.429688 213.042969 C 49.429688 216.203125 46.871094 218.761719 43.710938 218.761719 Z M 43.710938 218.761719 " fill-opacity="1" fill-rule="nonzero"/></g><g clip-path="url(#401e56315c)"><path fill="#53e9f6" d="M 43.640625 206.640625 C 40.140625 206.640625 37.308594 209.472656 37.308594 212.972656 C 37.308594 216.46875 40.140625 219.304688 43.640625 219.304688 C 47.140625 219.304688 49.972656 216.46875 49.972656 212.972656 C 49.972656 209.472656 47.140625 206.640625 43.640625 206.640625 Z M 43.640625 218.035156 C 40.84375 218.035156 38.574219 215.769531 38.574219 212.972656 C 38.574219 210.171875 40.84375 207.90625 43.640625 207.90625 C 46.4375 207.90625 48.707031 210.171875 48.707031 212.972656 C 48.707031 215.769531 46.4375 218.035156 43.640625 218.035156 Z M 43.640625 218.035156 " fill-opacity="1" fill-rule="nonzero"/></g><g clip-path="url(#f2ea75de05)"><path fill="#53e9f6" d="M 43.714844 207.726562 C 40.773438 207.726562 38.394531 210.105469 38.394531 213.046875 C 38.394531 215.984375 40.773438 218.367188 43.714844 218.367188 C 46.652344 218.367188 49.035156 215.984375 49.035156 213.046875 C 49.035156 210.105469 46.652344 207.726562 43.714844 207.726562 Z M 43.714844 217.300781 C 41.363281 217.300781 39.457031 215.398438 39.457031 213.046875 C 39.457031 210.695312 41.363281 208.789062 43.714844 208.789062 C 46.066406 208.789062 47.972656 210.695312 47.972656 213.046875 C 47.972656 215.398438 46.066406 217.300781 43.714844 217.300781 Z M 43.714844 217.300781 " fill-opacity="1" fill-rule="nonzero"/></g><g clip-path="url(#ba950cf9a3)"><path fill="#53e9f6" d="M 43.636719 208.625 C 41.195312 208.625 39.21875 210.601562 39.21875 213.042969 C 39.21875 215.484375 41.195312 217.464844 43.636719 217.464844 C 46.078125 217.464844 48.058594 215.484375 48.058594 213.042969 C 48.058594 210.601562 46.078125 208.625 43.636719 208.625 Z M 43.636719 216.578125 C 41.683594 216.578125 40.101562 214.996094 40.101562 213.042969 C 40.101562 211.089844 41.683594 209.507812 43.636719 209.507812 C 45.589844 209.507812 47.171875 211.089844 47.171875 213.042969 C 47.171875 214.996094 45.589844 216.578125 43.636719 216.578125 Z M 43.636719 216.578125 " fill-opacity="1" fill-rule="nonzero"/></g><g clip-path="url(#902ddb5fa6)"><path fill="#53e9f6" d="M 293.46875 205.871094 C 289.519531 205.871094 286.320312 209.074219 286.320312 213.023438 C 286.320312 216.972656 289.519531 220.171875 293.46875 220.171875 C 297.421875 220.171875 300.621094 216.972656 300.621094 213.023438 C 300.621094 209.074219 297.421875 205.871094 293.46875 205.871094 Z M 293.46875 218.742188 C 290.308594 218.742188 287.75 216.183594 287.75 213.023438 C 287.75 209.863281 290.308594 207.304688 293.46875 207.304688 C 296.628906 207.304688 299.191406 209.863281 299.191406 213.023438 C 299.191406 216.183594 296.628906 218.742188 293.46875 218.742188 Z M 293.46875 218.742188 " fill-opacity="1" fill-rule="nonzero"/></g><g clip-path="url(#2d6443368d)"><path fill="#53e9f6" d="M 293.398438 206.621094 C 289.902344 206.621094 287.066406 209.453125 287.066406 212.953125 C 287.066406 216.453125 289.902344 219.285156 293.398438 219.285156 C 296.898438 219.285156 299.730469 216.453125 299.730469 212.953125 C 299.730469 209.453125 296.898438 206.621094 293.398438 206.621094 Z M 293.398438 218.019531 C 290.601562 218.019531 288.335938 215.75 288.335938 212.953125 C 288.335938 210.15625 290.601562 207.886719 293.398438 207.886719 C 296.199219 207.886719 298.464844 210.15625 298.464844 212.953125 C 298.464844 215.75 296.199219 218.019531 293.398438 218.019531 Z M 293.398438 218.019531 " fill-opacity="1" fill-rule="nonzero"/></g><g clip-path="url(#cc10e03805)"><path fill="#53e9f6" d="M 293.472656 207.707031 C 290.535156 207.707031 288.152344 210.085938 288.152344 213.027344 C 288.152344 215.964844 290.535156 218.347656 293.472656 218.347656 C 296.414062 218.347656 298.792969 215.964844 298.792969 213.027344 C 298.792969 210.085938 296.414062 207.707031 293.472656 207.707031 Z M 293.472656 217.285156 C 291.121094 217.285156 289.21875 215.378906 289.21875 213.027344 C 289.21875 210.675781 291.121094 208.769531 293.472656 208.769531 C 295.824219 208.769531 297.730469 210.675781 297.730469 213.027344 C 297.730469 215.378906 295.824219 217.285156 293.472656 217.285156 Z M 293.472656 217.285156 " fill-opacity="1" fill-rule="nonzero"/></g><g clip-path="url(#555b18b55a)"><path fill="#53e9f6" d="M 293.394531 208.605469 C 290.953125 208.605469 288.976562 210.582031 288.976562 213.023438 C 288.976562 215.464844 290.953125 217.445312 293.394531 217.445312 C 295.839844 217.445312 297.816406 215.464844 297.816406 213.023438 C 297.816406 210.582031 295.839844 208.605469 293.394531 208.605469 Z M 293.394531 216.5625 C 291.441406 216.5625 289.859375 214.976562 289.859375 213.023438 C 289.859375 211.070312 291.441406 209.488281 293.394531 209.488281 C 295.351562 209.488281 296.933594 211.070312 296.933594 213.023438 C 296.933594 214.976562 295.351562 216.5625 293.394531 216.5625 Z M 293.394531 216.5625 " fill-opacity="1" fill-rule="nonzero"/></g><g clip-path="url(#f7876ea328)"><path fill="#53e9f6" d="M 293.46875 116.070312 C 289.519531 116.070312 286.320312 119.273438 286.320312 123.222656 C 286.320312 127.171875 289.519531 130.371094 293.46875 130.371094 C 297.421875 130.371094 300.621094 127.171875 300.621094 123.222656 C 300.621094 119.273438 297.421875 116.070312 293.46875 116.070312 Z M 293.46875 128.941406 C 290.308594 128.941406 287.75 126.382812 287.75 123.222656 C 287.75 120.0625 290.308594 117.503906 293.46875 117.503906 C 296.628906 117.503906 299.191406 120.0625 299.191406 123.222656 C 299.191406 126.382812 296.628906 128.941406 293.46875 128.941406 Z M 293.46875 128.941406 " fill-opacity="1" fill-rule="nonzero"/></g><g clip-path="url(#e02ce27242)"><path fill="#53e9f6" d="M 293.398438 116.820312 C 289.902344 116.820312 287.066406 119.652344 287.066406 123.152344 C 287.066406 126.648438 289.902344 129.484375 293.398438 129.484375 C 296.898438 129.484375 299.730469 126.648438 299.730469 123.152344 C 299.730469 119.652344 296.898438 116.820312 293.398438 116.820312 Z M 293.398438 128.21875 C 290.601562 128.21875 288.335938 125.949219 288.335938 123.152344 C 288.335938 120.351562 290.601562 118.085938 293.398438 118.085938 C 296.199219 118.085938 298.464844 120.351562 298.464844 123.152344 C 298.464844 125.949219 296.199219 128.21875 293.398438 128.21875 Z M 293.398438 128.21875 " fill-opacity="1" fill-rule="nonzero"/></g><g clip-path="url(#6aba3dfb83)"><path fill="#53e9f6" d="M 293.472656 117.90625 C 290.535156 117.90625 288.152344 120.285156 288.152344 123.226562 C 288.152344 126.164062 290.535156 128.546875 293.472656 128.546875 C 296.414062 128.546875 298.792969 126.164062 298.792969 123.226562 C 298.792969 120.285156 296.414062 117.90625 293.472656 117.90625 Z M 293.472656 127.480469 C 291.121094 127.480469 289.21875 125.578125 289.21875 123.226562 C 289.21875 120.875 291.121094 118.96875 293.472656 118.96875 C 295.824219 118.96875 297.730469 120.875 297.730469 123.226562 C 297.730469 125.578125 295.824219 127.480469 293.472656 127.480469 Z M 293.472656 127.480469 " fill-opacity="1" fill-rule="nonzero"/></g><g clip-path="url(#e66b52b94e)"><path fill="#53e9f6" d="M 293.394531 118.804688 C 290.953125 118.804688 288.976562 120.78125 288.976562 123.222656 C 288.976562 125.664062 290.953125 127.644531 293.394531 127.644531 C 295.839844 127.644531 297.816406 125.664062 297.816406 123.222656 C 297.816406 120.78125 295.839844 118.804688 293.394531 118.804688 Z M 293.394531 126.761719 C 291.441406 126.761719 289.859375 125.175781 289.859375 123.222656 C 289.859375 121.269531 291.441406 119.6875 293.394531 119.6875 C 295.351562 119.6875 296.933594 121.269531 296.933594 123.222656 C 296.933594 125.175781 295.351562 126.761719 293.394531 126.761719 Z M 293.394531 126.761719 " fill-opacity="1" fill-rule="nonzero"/></g><path stroke-linecap="butt" transform="matrix(0.74834, -0.00131873, 0.00131873, 0.74834, 84.209411, 127.83807)" fill="none" stroke-linejoin="miter" d="M -0.00148752 2.001586 L 15.000476 2.001923 " stroke="#028abc" stroke-width="4" stroke-opacity="1" stroke-miterlimit="4"/><path stroke-linecap="butt" transform="matrix(0.544624, -0.513223, 0.513223, 0.544624, 93.337225, 128.741545)" fill="none" stroke-linejoin="miter" d="M -0.00151418 2.000846 L 14.300084 2.000977 " stroke="#028abc" stroke-width="4" stroke-opacity="1" stroke-miterlimit="4"/><path stroke-linecap="butt" transform="matrix(0.74834, 0.000535243, -0.000535243, 0.74834, 100.815339, 121.579858)" fill="none" stroke-linejoin="miter" d="M -0.00236223 2.002121 L 34.005175 1.998677 " stroke="#028abc" stroke-width="4" stroke-opacity="1" stroke-miterlimit="4"/><path stroke-linecap="butt" transform="matrix(0.74834, -0.00132517, 0.00132517, 0.74834, 108.295027, 127.865927)" fill="none" stroke-linejoin="miter" d="M -0.00107376 2.0009 L 99.208161 1.999106 " stroke="#028abc" stroke-width="4" stroke-opacity="1" stroke-miterlimit="4"/><path stroke-linecap="butt" transform="matrix(0.564481, -0.491299, 0.491299, 0.564481, 180.501584, 128.509984)" fill="none" stroke-linejoin="miter" d="M -0.00127842 2.001862 L 14.857307 2.000494 " stroke="#028abc" stroke-width="4" stroke-opacity="1" stroke-miterlimit="4"/><path stroke-linecap="butt" transform="matrix(0.74834, 0.000861026, -0.000861026, 0.74834, 188.942735, 121.20745)" fill="none" stroke-linejoin="miter" d="M 0.000524488 1.998655 L 40.204084 1.999377 " stroke="#028abc" stroke-width="4" stroke-opacity="1" stroke-miterlimit="4"/><path stroke-linecap="butt" transform="matrix(0.74834, 0.00118504, -0.00118504, 0.74834, 225.224352, 121.190144)" fill="none" stroke-linejoin="miter" d="M 0.000903088 2.000903 L 14.606147 1.998654 " stroke="#028abc" stroke-width="4" stroke-opacity="1" stroke-miterlimit="4"/><path stroke-linecap="butt" transform="matrix(0.517576, 0.540489, -0.540489, 0.517576, 236.232412, 121.304953)" fill="none" stroke-linejoin="miter" d="M 0.000590027 1.99888 L 13.601492 1.999691 " stroke="#028abc" stroke-width="4" stroke-opacity="1" stroke-miterlimit="4"/><path stroke-linecap="butt" transform="matrix(0.748341, 0.000000000000002727, -0.000000000000002727, 0.748341, 241.195606, 127.835323)" fill="none" stroke-linejoin="miter" d="M -0.000391569 2.000036 L 15.601836 2.000036 " stroke="#028abc" stroke-width="4" stroke-opacity="1" stroke-miterlimit="4"/><path stroke-linecap="butt" transform="matrix(0.748341, -0.000291754, 0.000291754, 0.748341, 84.810138, 204.138869)" fill="none" stroke-linejoin="miter" d="M 0.00237558 2.001563 L 67.798208 2.001895 " stroke="#028abc" stroke-width="4" stroke-opacity="1" stroke-miterlimit="4"/><path stroke-linecap="butt" transform="matrix(0.748341, -0.000268034, 0.000268034, 0.748341, 111.874967, 211.926039)" fill="none" stroke-linejoin="miter" d="M -0.000671275 1.99887 L 73.798026 1.999203 " stroke="#028abc" stroke-width="4" stroke-opacity="1" stroke-miterlimit="4"/><path stroke-linecap="butt" transform="matrix(0.748341, -0.000127453, 0.000127453, 0.748341, 174.436531, 204.129003)" fill="none" stroke-linejoin="miter" d="M 0.00095499 1.999086 L 77.599722 2.001863 " stroke="#028abc" stroke-width="4" stroke-opacity="1" stroke-miterlimit="4"/><path stroke-linecap="butt" transform="matrix(0.748341, -0.000233336, 0.000233336, 0.748341, 187.308852, 212.044562)" fill="none" stroke-linejoin="miter" d="M -0.000969369 2.002305 L 42.384477 1.999862 " stroke="#028abc" stroke-width="4" stroke-opacity="1" stroke-miterlimit="4"/><path stroke-linecap="butt" transform="matrix(0.554529, -0.502505, 0.502505, 0.554529, 165.055658, 212.671662)" fill="none" stroke-linejoin="miter" d="M 0.00133839 2.002169 L 16.967122 1.998651 " stroke="#028abc" stroke-width="4" stroke-opacity="1" stroke-miterlimit="4"/><path stroke-linecap="butt" transform="matrix(0.533276, -0.525005, 0.525005, 0.533276, 216.497251, 212.865881)" fill="none" stroke-linejoin="miter" d="M -0.00145621 2.000743 L 16.239489 1.999316 " stroke="#028abc" stroke-width="4" stroke-opacity="1" stroke-miterlimit="4"/><path stroke-linecap="butt" transform="matrix(0.524306, -0.533964, 0.533964, 0.524306, 234.139601, 213.032137)" fill="none" stroke-linejoin="miter" d="M -0.00168778 2.000727 L 17.08841 2.001661 " stroke="#028abc" stroke-width="4" stroke-opacity="1" stroke-miterlimit="4"/><path stroke-linecap="butt" transform="matrix(0.748341, 0.000000000000003836, -0.000000000000003836, 0.748341, 228.185719, 212.223548)" fill="none" stroke-linejoin="miter" d="M 0.00238026 1.998023 L 11.08941 1.998023 " stroke="#028abc" stroke-width="4" stroke-opacity="1" stroke-miterlimit="4"/><path stroke-linecap="butt" transform="matrix(0.748315, -0.0061937, 0.0061937, 0.748315, 243.140123, 203.991847)" fill="none" stroke-linejoin="miter" d="M -0.000220034 1.999737 L 12.987309 1.997612 " stroke="#028abc" stroke-width="4" stroke-opacity="1" stroke-miterlimit="4"/><path stroke-linecap="butt" transform="matrix(0.544432, 0.513427, -0.513427, 0.544432, 105.656577, 204.891376)" fill="none" stroke-linejoin="miter" d="M -0.000583136 2.00097 L 15.120716 1.997353 " stroke="#028abc" stroke-width="4" stroke-opacity="1" stroke-miterlimit="4"/><path stroke-linecap="butt" transform="matrix(0.568099, 0.487111, -0.487111, 0.568099, 135.584058, 204.039963)" fill="none" stroke-linejoin="miter" d="M -0.000798901 2.000015 L 9.483211 2.002356 " stroke="#028abc" stroke-width="4" stroke-opacity="1" stroke-miterlimit="4"/></svg>