<svg xmlns="http://www.w3.org/2000/svg" xmlns:xlink="http://www.w3.org/1999/xlink" width="418" zoomAndPan="magnify" viewBox="0 0 313.5 123.000003" height="164" preserveAspectRatio="xMidYMid meet" version="1.0"><defs><g/><clipPath id="7077fc6bd4"><path d="M 36 71 L 106 71 L 106 122.007812 L 36 122.007812 Z M 36 71 " clip-rule="nonzero"/></clipPath><clipPath id="f638f70ac5"><path d="M 1.015625 7 L 48 7 L 48 57 L 1.015625 57 Z M 1.015625 7 " clip-rule="nonzero"/></clipPath><clipPath id="f664cbe7aa"><path d="M 1.015625 65 L 49 65 L 49 114 L 1.015625 114 Z M 1.015625 65 " clip-rule="nonzero"/></clipPath><clipPath id="97ad1cd602"><path d="M 61 97 L 252 97 L 252 122.007812 L 61 122.007812 Z M 61 97 " clip-rule="nonzero"/></clipPath><clipPath id="e9228dc23d"><path d="M 208 70 L 277 70 L 277 122.007812 L 208 122.007812 Z M 208 70 " clip-rule="nonzero"/></clipPath><clipPath id="4d724253b6"><path d="M 264 63 L 311.988281 63 L 311.988281 114 L 264 114 Z M 264 63 " clip-rule="nonzero"/></clipPath><clipPath id="bcf9af1f77"><path d="M 271 13 L 311.988281 13 L 311.988281 107 L 271 107 Z M 271 13 " clip-rule="nonzero"/></clipPath><clipPath id="6816284e3e"><path d="M 263 7 L 311.988281 7 L 311.988281 57 L 263 57 Z M 263 7 " clip-rule="nonzero"/></clipPath><clipPath id="f99547f86e"><path d="M 228 76 L 279 76 L 279 122.007812 L 228 122.007812 Z M 228 76 " clip-rule="nonzero"/></clipPath><clipPath id="a5037af685"><path d="M 235 84 L 296 84 L 296 122.007812 L 235 122.007812 Z M 235 84 " clip-rule="nonzero"/></clipPath><clipPath id="a40775f45f"><path d="M 33 77 L 84 77 L 84 122.007812 L 33 122.007812 Z M 33 77 " clip-rule="nonzero"/></clipPath><clipPath id="365a214712"><path d="M 17 84 L 77 84 L 77 122.007812 L 17 122.007812 Z M 17 84 " clip-rule="nonzero"/></clipPath><clipPath id="10ac023447"><path d="M 25.039062 8.765625 L 39.171875 8.765625 L 39.171875 22.898438 L 25.039062 22.898438 Z M 25.039062 8.765625 " clip-rule="nonzero"/></clipPath><clipPath id="c49008eb5b"><path d="M 25.78125 9.507812 L 38.429688 9.507812 L 38.429688 22.15625 L 25.78125 22.15625 Z M 25.78125 9.507812 " clip-rule="nonzero"/></clipPath><clipPath id="0571dbc44e"><path d="M 26.859375 10.585938 L 37.277344 10.585938 L 37.277344 21.003906 L 26.859375 21.003906 Z M 26.859375 10.585938 " clip-rule="nonzero"/></clipPath><clipPath id="bdc1277e59"><path d="M 27.679688 11.480469 L 36.605469 11.480469 L 36.605469 20.40625 L 27.679688 20.40625 Z M 27.679688 11.480469 " clip-rule="nonzero"/></clipPath><clipPath id="763f4395a8"><path d="M 25.039062 97.890625 L 39.171875 97.890625 L 39.171875 112.027344 L 25.039062 112.027344 Z M 25.039062 97.890625 " clip-rule="nonzero"/></clipPath><clipPath id="2b23848061"><path d="M 25.78125 98.636719 L 38.429688 98.636719 L 38.429688 111.28125 L 25.78125 111.28125 Z M 25.78125 98.636719 " clip-rule="nonzero"/></clipPath><clipPath id="a2991fbf98"><path d="M 26.859375 99.714844 L 37.277344 99.714844 L 37.277344 110.128906 L 26.859375 110.128906 Z M 26.859375 99.714844 " clip-rule="nonzero"/></clipPath><clipPath id="9d84b53166"><path d="M 27.679688 100.605469 L 36.605469 100.605469 L 36.605469 109.535156 L 27.679688 109.535156 Z M 27.679688 100.605469 " clip-rule="nonzero"/></clipPath><clipPath id="16734f7ef3"><path d="M 273.332031 97.871094 L 287.464844 97.871094 L 287.464844 112.007812 L 273.332031 112.007812 Z M 273.332031 97.871094 " clip-rule="nonzero"/></clipPath><clipPath id="4beff8dcd2"><path d="M 274.074219 98.617188 L 286.722656 98.617188 L 286.722656 111.265625 L 274.074219 111.265625 Z M 274.074219 98.617188 " clip-rule="nonzero"/></clipPath><clipPath id="b44ed1c325"><path d="M 275.15625 99.695312 L 285.570312 99.695312 L 285.570312 110.109375 L 275.15625 110.109375 Z M 275.15625 99.695312 " clip-rule="nonzero"/></clipPath><clipPath id="f3723d70e2"><path d="M 275.972656 100.589844 L 284.898438 100.589844 L 284.898438 109.515625 L 275.972656 109.515625 Z M 275.972656 100.589844 " clip-rule="nonzero"/></clipPath><clipPath id="bcf30837b9"><path d="M 273.332031 8.597656 L 287.464844 8.597656 L 287.464844 22.734375 L 273.332031 22.734375 Z M 273.332031 8.597656 " clip-rule="nonzero"/></clipPath><clipPath id="4f06d5013d"><path d="M 274.074219 9.34375 L 286.722656 9.34375 L 286.722656 21.988281 L 274.074219 21.988281 Z M 274.074219 9.34375 " clip-rule="nonzero"/></clipPath><clipPath id="05deb69c71"><path d="M 275.15625 10.421875 L 285.570312 10.421875 L 285.570312 20.835938 L 275.15625 20.835938 Z M 275.15625 10.421875 " clip-rule="nonzero"/></clipPath><clipPath id="d10c6cee32"><path d="M 275.972656 11.3125 L 284.898438 11.3125 L 284.898438 20.242188 L 275.972656 20.242188 Z M 275.972656 11.3125 " clip-rule="nonzero"/></clipPath><clipPath id="6dc9e401c0"><path d="M 83 88 L 172 88 L 172 122.007812 L 83 122.007812 Z M 83 88 " clip-rule="nonzero"/></clipPath><clipPath id="6365d89108"><path d="M 158 88 L 224 88 L 224 122.007812 L 158 122.007812 Z M 158 88 " clip-rule="nonzero"/></clipPath><clipPath id="edd09c13f9"><path d="M 136 80 L 180 80 L 180 122.007812 L 136 122.007812 Z M 136 80 " clip-rule="nonzero"/></clipPath><clipPath id="e34a9b5115"><path d="M 188 80 L 231 80 L 231 122.007812 L 188 122.007812 Z M 188 80 " clip-rule="nonzero"/></clipPath><clipPath id="589aec9835"><path d="M 205 80 L 249 80 L 249 122.007812 L 205 122.007812 Z M 205 80 " clip-rule="nonzero"/></clipPath><clipPath id="3598eda012"><path d="M 75 81 L 118 81 L 118 122.007812 L 75 122.007812 Z M 75 81 " clip-rule="nonzero"/></clipPath></defs><path stroke-linecap="butt" transform="matrix(0.743951, -0.000749447, 0.000749447, 0.743951, 82.502749, 1.237055)" fill="none" stroke-linejoin="miter" d="M -0.000963285 2.500971 L 198.532515 2.501445 " stroke="#53e9f6" stroke-width="5" stroke-opacity="1" stroke-miterlimit="4"/><path stroke-linecap="butt" transform="matrix(0.743952, 0, 0, 0.743952, 20.249704, 12.290056)" fill="none" stroke-linejoin="miter" d="M 15.064592 34.747648 L 42.677905 34.747648 C 45.171977 34.747648 47.235493 34.941923 48.878955 35.319972 C 50.532919 35.682269 51.840337 36.364857 52.795961 37.367736 C 53.767336 38.354864 54.444674 39.678035 54.822722 41.337249 C 55.206022 42.97546 55.395046 45.07048 55.395046 47.62231 L 55.395046 50.903983 C 55.395046 52.836233 55.342539 54.479695 55.232275 55.850122 C 55.143014 57.215298 54.969741 58.401951 54.712458 59.40483 C 54.465676 60.391958 54.140134 61.211063 53.730581 61.862147 C 53.336781 62.518482 52.858969 63.096057 52.297146 63.594871 C 51.871842 63.962418 51.436035 64.272208 50.994978 64.529492 C 50.553921 64.771023 49.992099 64.991551 49.309511 65.191077 C 48.626923 65.374851 47.797316 65.553374 46.82594 65.737148 C 45.870317 65.920921 44.678413 66.14145 43.250229 66.398733 C 44.935696 66.76103 46.332377 67.107574 47.44027 67.422615 C 48.563915 67.727154 49.498535 68.036944 50.244131 68.357236 C 50.989728 68.661775 51.593556 69.018821 52.066117 69.428374 C 52.538678 69.822175 52.995487 70.305237 53.436543 70.86706 C 54.738711 72.73105 55.395046 75.655677 55.395046 79.635691 L 55.395046 83.557947 C 55.395046 89.223428 54.518183 93.019668 52.774958 94.951918 C 52.391659 95.387724 51.982106 95.729018 51.541049 95.9758 C 51.115744 96.217331 50.580175 96.422107 49.92384 96.590129 C 49.272756 96.742399 48.458901 96.847412 47.487526 96.91042 C 46.531902 96.968178 45.339999 96.999682 43.911814 96.999682 L 15.064592 96.999682 Z M 31.766997 48.467669 L 31.766997 59.200054 L 34.838643 59.200054 C 37.532241 59.200054 38.876414 57.582845 38.876414 54.343177 C 38.876414 52.232405 38.561374 50.730711 37.941794 49.832845 C 37.316963 48.924478 36.251076 48.467669 34.749382 48.467669 Z M 34.203311 83.557947 C 35.815269 83.557947 36.991421 83.169397 37.737017 82.392297 C 38.493115 81.620447 38.876414 80.328781 38.876414 78.522547 C 38.876414 76.348767 38.545622 74.857574 37.894538 74.054221 C 37.243454 73.235115 36.009544 72.825562 34.203311 72.825562 L 31.766997 72.825562 L 31.766997 83.557947 Z M 60.325432 34.747648 L 85.80172 34.747648 C 87.928245 34.747648 89.608461 34.7634 90.83712 34.794904 C 92.081531 34.826408 93.079159 34.884166 93.819505 34.978678 C 94.580853 35.06794 95.17418 35.214959 95.599485 35.409234 C 96.040541 35.593007 96.513102 35.834539 97.011917 36.139078 C 99.500738 37.766788 100.750399 41.310995 100.750399 46.782201 L 100.750399 50.788468 C 100.750399 52.35317 100.734647 53.67109 100.703143 54.731727 C 100.671639 55.781863 100.587628 56.674478 100.451111 57.420074 C 100.330345 58.16567 100.157073 58.816754 99.931294 59.378577 C 99.716016 59.940399 99.427229 60.507473 99.064932 61.069295 C 98.319336 62.313706 97.400467 63.232574 96.308326 63.825901 C 95.210934 64.413977 93.640982 64.834031 91.587967 65.075562 C 93.457208 65.637385 94.985155 66.214959 96.166558 66.808286 C 97.353211 67.401612 98.287831 68.152459 98.97042 69.066077 C 99.653008 69.958692 100.120318 71.029831 100.361849 72.279492 C 100.619132 73.50815 100.750399 75.0571 100.750399 76.926341 L 100.750399 86.540332 C 100.750399 90.336572 101.180955 93.823022 102.047317 96.999682 L 85.344911 96.999682 C 84.846097 95.387724 84.494301 93.838774 84.300026 92.352832 C 84.116253 90.845888 84.02174 88.913638 84.02174 86.540332 L 84.02174 78.249512 C 84.02174 76.259505 83.654193 74.831321 82.908597 73.964959 C 82.163001 73.082845 80.91859 72.641789 79.170114 72.641789 L 77.027838 72.641789 L 77.027838 96.999682 L 60.325432 96.999682 Z M 79.374891 59.105542 C 81.30714 59.105542 82.583055 58.764248 83.202635 58.08166 C 83.827465 57.399071 84.137255 55.970887 84.137255 53.797107 C 84.137255 51.73359 83.790711 50.294905 83.092371 49.491551 C 82.404532 48.688197 81.170623 48.283895 79.374891 48.283895 L 77.027838 48.283895 L 77.027838 59.105542 Z M 106.709918 34.747648 L 123.412324 34.747648 L 123.412324 96.999682 L 106.709918 96.999682 Z M 145.339153 96.999682 C 143.349147 96.999682 141.779194 96.98393 140.624045 96.952426 C 139.484648 96.926172 138.586782 96.878916 137.935698 96.815908 C 137.279363 96.758151 136.780549 96.710895 136.428754 96.679391 C 136.097961 96.653137 135.740915 96.569126 135.357615 96.432609 C 134.055447 96.065061 132.984309 95.466484 132.149451 94.631626 C 131.309343 93.781017 130.642507 92.536606 130.143692 90.893144 C 129.639627 89.23918 129.293083 87.102155 129.093557 84.492568 C 128.909783 81.87773 128.820522 78.580305 128.820522 74.600291 L 128.820522 54.731727 C 128.820522 53.849613 128.852026 52.825731 128.909783 51.65483 C 128.988543 50.473428 129.072554 49.318279 129.161816 48.194634 C 129.251077 47.070989 129.345589 46.015602 129.434851 45.028475 C 129.529363 44.025596 129.634377 43.269498 129.755142 42.770684 C 130.196199 40.596903 130.894539 38.932438 131.850163 37.78254 C 132.821538 36.627391 134.181464 35.803035 135.929939 35.319972 C 136.292236 35.241212 136.680786 35.172953 137.090339 35.115196 C 137.499892 35.052188 138.035461 34.99443 138.686545 34.931422 C 139.337629 34.873665 140.188239 34.826408 141.238374 34.794904 C 142.304262 34.7634 143.669438 34.747648 145.339153 34.747648 L 155.982277 34.747648 L 155.982277 48.283895 L 152.994641 48.283895 C 151.886748 48.283895 150.988883 48.299647 150.306294 48.331151 C 149.623706 48.362655 149.061884 48.404661 148.620827 48.467669 C 148.17977 48.525426 147.817473 48.656693 147.528686 48.856219 C 147.255651 49.034742 146.998368 49.25002 146.751586 49.491551 C 146.189763 50.053374 145.848469 50.693956 145.727704 51.408048 C 145.606938 52.12214 145.54393 53.602832 145.54393 55.850122 L 145.54393 75.902459 C 145.54393 78.149749 145.62269 79.63044 145.77496 80.344533 C 145.927229 81.058625 146.252771 81.693957 146.751586 82.255779 C 146.998368 82.560319 147.255651 82.796599 147.528686 82.964621 C 147.817473 83.11689 148.17977 83.221904 148.620827 83.284912 C 149.061884 83.342669 149.623706 83.389926 150.306294 83.42143 C 150.988883 83.447683 151.886748 83.463435 152.994641 83.463435 L 156.460089 83.463435 L 156.460089 96.999682 Z M 160.377094 34.747648 L 177.0795 34.747648 L 177.0795 96.999682 L 160.377094 96.999682 Z M 199.006329 96.999682 C 195.283599 96.999682 192.295963 96.458862 190.048673 95.382473 C 187.817135 94.290332 186.136918 92.557609 185.013273 90.189553 C 184.514459 89.123666 184.099655 88.052527 183.784615 86.976138 C 183.480075 85.878747 183.238544 84.634336 183.054771 83.237656 C 182.870997 81.840976 182.729229 80.223767 182.618964 78.38603 C 182.529703 76.548293 182.482447 74.322005 182.482447 71.707168 L 182.482447 60.040162 C 182.482447 57.430576 182.529703 55.204288 182.618964 53.366551 C 182.729229 51.528814 182.870997 49.911605 183.054771 48.509674 C 183.238544 47.112994 183.480075 45.879085 183.784615 44.797445 C 184.099655 43.705304 184.514459 42.623665 185.013273 41.563028 C 186.136918 39.194972 187.817135 37.467499 190.048673 36.39111 C 192.295963 35.298969 195.283599 34.747648 199.006329 34.747648 L 206.478043 34.747648 C 210.216526 34.747648 213.198911 35.298969 215.430449 36.39111 C 217.682989 37.467499 219.368457 39.194972 220.492102 41.563028 C 220.975164 42.623665 221.374216 43.705304 221.673504 44.797445 C 221.993796 45.879085 222.245828 47.112994 222.429602 48.509674 C 222.623877 49.911605 222.770896 51.528814 222.860157 53.366551 C 222.949419 55.204288 222.996675 57.430576 222.996675 60.040162 L 222.996675 71.707168 C 222.996675 74.322005 222.949419 76.548293 222.860157 78.38603 C 222.770896 80.223767 222.623877 81.840976 222.429602 83.237656 C 222.245828 84.634336 221.993796 85.878747 221.673504 86.976138 C 221.374216 88.052527 220.975164 89.123666 220.492102 90.189553 C 219.368457 92.557609 217.682989 94.290332 215.430449 95.382473 C 213.198911 96.458862 210.216526 96.999682 206.478043 96.999682 Z M 206.29427 52.568448 C 206.29427 51.077256 205.968728 49.885352 205.317644 48.992737 C 204.661309 48.079119 203.805448 47.62231 202.739561 47.62231 C 201.694676 47.62231 200.844066 48.079119 200.187732 48.992737 C 199.536648 49.885352 199.211106 51.077256 199.211106 52.568448 L 199.211106 79.362656 C 199.211106 80.911606 199.536648 82.129763 200.187732 83.011877 C 200.844066 83.872988 201.694676 84.308794 202.739561 84.308794 C 203.805448 84.308794 204.661309 83.872988 205.317644 83.011877 C 205.968728 82.129763 206.29427 80.911606 206.29427 79.362656 Z M 228.315612 34.747648 L 251.833396 34.747648 C 253.518864 34.747648 254.826283 34.7634 255.750402 34.794904 C 256.695524 34.826408 257.425368 34.842161 257.939935 34.842161 C 258.470253 34.842161 258.843051 34.857913 259.058329 34.884166 C 259.284108 34.91567 259.557143 34.962926 259.877435 35.020684 C 263.537157 35.582506 266.020727 37.204965 267.328146 39.87756 C 267.82696 40.938197 268.199759 42.854695 268.44129 45.616551 C 268.703824 48.383658 268.82984 51.723089 268.82984 55.645345 L 268.82984 72.458015 C 268.82984 75.634675 268.730077 78.716823 268.535802 81.709709 C 268.352028 84.686843 268.110497 87.081152 267.805958 88.887385 C 266.923844 93.854526 264.18299 96.500868 259.578146 96.815908 C 259.399623 96.815908 258.806296 96.83166 257.803417 96.863164 C 256.816289 96.894668 254.826283 96.936674 251.833396 96.999682 L 228.315612 96.999682 Z M 248.005652 83.284912 C 249.754128 83.284912 250.877773 82.943618 251.376588 82.255779 C 251.880653 81.573191 252.127434 80.108252 252.127434 77.860962 L 252.127434 53.797107 C 252.127434 51.492059 251.880653 49.995616 251.376588 49.307777 C 250.877773 48.625189 249.754128 48.283895 248.005652 48.283895 L 245.018017 48.283895 L 245.018017 83.284912 Z M 290.184346 96.999682 C 288.194339 96.999682 286.624386 96.98393 285.469237 96.952426 C 284.32984 96.926172 283.431974 96.878916 282.78089 96.815908 C 282.124556 96.758151 281.625741 96.710895 281.273946 96.679391 C 280.943153 96.653137 280.586107 96.569126 280.202808 96.432609 C 278.900639 96.065061 277.829501 95.466484 276.994644 94.631626 C 276.154535 93.781017 275.487699 92.536606 274.988885 90.893144 C 274.48482 89.23918 274.138275 87.102155 273.938749 84.492568 C 273.754975 81.87773 273.665714 78.580305 273.665714 74.600291 L 273.665714 54.731727 C 273.665714 53.791856 273.697218 52.752222 273.754975 51.612825 C 273.833736 50.457676 273.917746 49.318279 274.007008 48.194634 C 274.096269 47.070989 274.190782 46.026104 274.280043 45.07048 C 274.374555 44.099105 274.479569 43.332506 274.600335 42.770684 C 275.041391 40.596903 275.739732 38.932438 276.695355 37.78254 C 277.66673 36.627391 279.026656 35.803035 280.775131 35.319972 C 281.137428 35.241212 281.525978 35.172953 281.935531 35.115196 C 282.345084 35.052188 282.880653 34.99443 283.531737 34.931422 C 284.182821 34.873665 285.033431 34.826408 286.083566 34.794904 C 287.149454 34.7634 288.51463 34.747648 290.184346 34.747648 L 305.79461 34.747648 L 305.79461 48.283895 L 290.389122 48.283895 L 290.389122 59.105542 L 305.79461 59.105542 L 305.79461 72.641789 L 290.389122 72.641789 L 290.389122 83.463435 L 305.79461 83.463435 L 305.79461 96.999682 Z M 321.740918 96.999682 C 318.186209 90.772378 315.445356 84.686843 313.518357 78.748327 C 311.586108 72.80981 310.625234 67.417364 310.625234 62.570989 L 310.625234 34.747648 L 327.348642 34.747648 L 327.348642 79.457168 C 327.348642 81.263401 327.605925 82.539316 328.125742 83.284912 C 328.65606 84.025258 329.543425 84.398056 330.787835 84.398056 C 331.974489 84.398056 332.830349 84.025258 333.365918 83.284912 C 333.896237 82.539316 334.164021 81.263401 334.164021 79.457168 L 334.164021 34.747648 L 350.861176 34.747648 L 350.861176 62.570989 C 350.861176 67.417364 349.900302 72.862317 347.968053 78.905847 C 346.041054 84.938875 343.3002 90.971904 339.745491 96.999682 Z M 321.740918 96.999682 " stroke="#028abc" stroke-width="2.449994" stroke-opacity="1" stroke-miterlimit="4"/><g fill="#f7fdfd" fill-opacity="1"><g transform="translate(29.235245, 84.453362)"><g><path d="M 2.21875 -46.3125 L 22.78125 -46.3125 C 24.625 -46.3125 26.160156 -46.171875 27.390625 -45.890625 C 28.617188 -45.617188 29.59375 -45.113281 30.3125 -44.375 C 31.03125 -43.632812 31.523438 -42.648438 31.796875 -41.421875 C 32.078125 -40.191406 32.21875 -38.628906 32.21875 -36.734375 L 32.21875 -34.296875 C 32.21875 -32.867188 32.179688 -31.644531 32.109375 -30.625 C 32.046875 -29.601562 31.921875 -28.722656 31.734375 -27.984375 C 31.546875 -27.242188 31.300781 -26.628906 31 -26.140625 C 30.695312 -25.660156 30.335938 -25.234375 29.921875 -24.859375 C 29.597656 -24.578125 29.273438 -24.34375 28.953125 -24.15625 C 28.628906 -23.976562 28.210938 -23.816406 27.703125 -23.671875 C 27.191406 -23.535156 26.578125 -23.394531 25.859375 -23.25 C 25.148438 -23.113281 24.257812 -22.957031 23.1875 -22.78125 C 24.4375 -22.5 25.476562 -22.242188 26.3125 -22.015625 C 27.144531 -21.785156 27.835938 -21.550781 28.390625 -21.3125 C 28.953125 -21.082031 29.40625 -20.816406 29.75 -20.515625 C 30.101562 -20.210938 30.441406 -19.851562 30.765625 -19.4375 C 31.734375 -18.050781 32.21875 -15.878906 32.21875 -12.921875 L 32.21875 -10 C 32.21875 -5.789062 31.570312 -2.96875 30.28125 -1.53125 C 30 -1.207031 29.695312 -0.953125 29.375 -0.765625 C 29.050781 -0.578125 28.644531 -0.425781 28.15625 -0.3125 C 27.664062 -0.195312 27.0625 -0.113281 26.34375 -0.0625 C 25.632812 -0.0195312 24.742188 0 23.671875 0 L 2.21875 0 Z M 14.65625 -36.109375 L 14.65625 -28.125 L 16.9375 -28.125 C 18.925781 -28.125 19.921875 -29.328125 19.921875 -31.734375 C 19.921875 -33.304688 19.691406 -34.425781 19.234375 -35.09375 C 18.773438 -35.769531 17.988281 -36.109375 16.875 -36.109375 Z M 16.453125 -10 C 17.660156 -10 18.539062 -10.285156 19.09375 -10.859375 C 19.644531 -11.441406 19.921875 -12.40625 19.921875 -13.75 C 19.921875 -15.363281 19.675781 -16.472656 19.1875 -17.078125 C 18.707031 -17.679688 17.796875 -17.984375 16.453125 -17.984375 L 14.65625 -17.984375 L 14.65625 -10 Z M 16.453125 -10 "/></g></g></g><g fill="#f7fdfd" fill-opacity="1"><g transform="translate(62.909612, 84.453362)"><g><path d="M 2.21875 -46.3125 L 21.171875 -46.3125 C 22.753906 -46.3125 24.003906 -46.300781 24.921875 -46.28125 C 25.847656 -46.257812 26.585938 -46.210938 27.140625 -46.140625 C 27.703125 -46.066406 28.144531 -45.960938 28.46875 -45.828125 C 28.789062 -45.691406 29.140625 -45.503906 29.515625 -45.265625 C 31.359375 -44.066406 32.28125 -41.429688 32.28125 -37.359375 L 32.28125 -34.375 C 32.28125 -33.21875 32.269531 -32.242188 32.25 -31.453125 C 32.226562 -30.671875 32.171875 -30 32.078125 -29.4375 C 31.984375 -28.882812 31.851562 -28.398438 31.6875 -27.984375 C 31.53125 -27.566406 31.3125 -27.148438 31.03125 -26.734375 C 30.476562 -25.804688 29.796875 -25.125 28.984375 -24.6875 C 28.179688 -24.25 27.015625 -23.9375 25.484375 -23.75 C 26.867188 -23.332031 28 -22.898438 28.875 -22.453125 C 29.757812 -22.015625 30.457031 -21.460938 30.96875 -20.796875 C 31.476562 -20.128906 31.820312 -19.332031 32 -18.40625 C 32.1875 -17.476562 32.28125 -16.316406 32.28125 -14.921875 L 32.28125 -7.78125 C 32.28125 -4.957031 32.609375 -2.363281 33.265625 0 L 20.828125 0 C 20.460938 -1.207031 20.207031 -2.363281 20.0625 -3.46875 C 19.925781 -4.582031 19.859375 -6.019531 19.859375 -7.78125 L 19.859375 -13.953125 C 19.859375 -15.429688 19.578125 -16.492188 19.015625 -17.140625 C 18.460938 -17.796875 17.539062 -18.125 16.25 -18.125 L 14.65625 -18.125 L 14.65625 0 L 2.21875 0 Z M 16.390625 -28.1875 C 17.828125 -28.1875 18.773438 -28.441406 19.234375 -28.953125 C 19.691406 -29.460938 19.921875 -30.53125 19.921875 -32.15625 C 19.921875 -33.675781 19.664062 -34.738281 19.15625 -35.34375 C 18.65625 -35.945312 17.734375 -36.25 16.390625 -36.25 L 14.65625 -36.25 L 14.65625 -28.1875 Z M 16.390625 -28.1875 "/></g></g></g><g fill="#f7fdfd" fill-opacity="1"><g transform="translate(97.417167, 84.453362)"><g><path d="M 2.21875 -46.3125 L 14.65625 -46.3125 L 14.65625 0 L 2.21875 0 Z M 2.21875 -46.3125 "/></g></g></g><g fill="#f7fdfd" fill-opacity="1"><g transform="translate(114.289065, 84.453362)"><g><path d="M 14.09375 0 C 12.613281 0 11.441406 -0.0078125 10.578125 -0.03125 C 9.722656 -0.0507812 9.050781 -0.0820312 8.5625 -0.125 C 8.082031 -0.175781 7.710938 -0.210938 7.453125 -0.234375 C 7.203125 -0.265625 6.941406 -0.328125 6.671875 -0.421875 C 5.691406 -0.691406 4.890625 -1.140625 4.265625 -1.765625 C 3.640625 -2.390625 3.140625 -3.316406 2.765625 -4.546875 C 2.398438 -5.773438 2.148438 -7.359375 2.015625 -9.296875 C 1.878906 -11.242188 1.8125 -13.703125 1.8125 -16.671875 L 1.8125 -31.453125 C 1.8125 -32.097656 1.832031 -32.859375 1.875 -33.734375 C 1.914062 -34.617188 1.972656 -35.476562 2.046875 -36.3125 C 2.117188 -37.144531 2.1875 -37.929688 2.25 -38.671875 C 2.320312 -39.410156 2.40625 -39.96875 2.5 -40.34375 C 2.820312 -41.96875 3.34375 -43.207031 4.0625 -44.0625 C 4.78125 -44.914062 5.785156 -45.523438 7.078125 -45.890625 C 7.359375 -45.941406 7.648438 -45.988281 7.953125 -46.03125 C 8.253906 -46.082031 8.644531 -46.128906 9.125 -46.171875 C 9.613281 -46.222656 10.25 -46.257812 11.03125 -46.28125 C 11.820312 -46.300781 12.84375 -46.3125 14.09375 -46.3125 L 22.015625 -46.3125 L 22.015625 -36.25 L 19.796875 -36.25 C 18.960938 -36.25 18.289062 -36.234375 17.78125 -36.203125 C 17.269531 -36.179688 16.851562 -36.144531 16.53125 -36.09375 C 16.207031 -36.050781 15.941406 -35.960938 15.734375 -35.828125 C 15.523438 -35.691406 15.328125 -35.53125 15.140625 -35.34375 C 14.722656 -34.925781 14.46875 -34.453125 14.375 -33.921875 C 14.28125 -33.390625 14.234375 -32.289062 14.234375 -30.625 L 14.234375 -15.6875 C 14.234375 -14.019531 14.289062 -12.921875 14.40625 -12.390625 C 14.519531 -11.859375 14.765625 -11.382812 15.140625 -10.96875 C 15.328125 -10.738281 15.523438 -10.566406 15.734375 -10.453125 C 15.941406 -10.335938 16.207031 -10.253906 16.53125 -10.203125 C 16.851562 -10.160156 17.269531 -10.125 17.78125 -10.09375 C 18.289062 -10.070312 18.960938 -10.0625 19.796875 -10.0625 L 22.359375 -10.0625 L 22.359375 0 Z M 14.09375 0 "/></g></g></g><g fill="#f7fdfd" fill-opacity="1"><g transform="translate(137.340383, 84.453362)"><g><path d="M 2.21875 -46.3125 L 14.65625 -46.3125 L 14.65625 0 L 2.21875 0 Z M 2.21875 -46.3125 "/></g></g></g><g fill="#f7fdfd" fill-opacity="1"><g transform="translate(154.21228, 84.453362)"><g><path d="M 14.09375 0 C 11.3125 0 9.085938 -0.40625 7.421875 -1.21875 C 5.765625 -2.03125 4.519531 -3.3125 3.6875 -5.0625 C 3.3125 -5.851562 3.007812 -6.65625 2.78125 -7.46875 C 2.550781 -8.28125 2.363281 -9.203125 2.21875 -10.234375 C 2.082031 -11.273438 1.976562 -12.476562 1.90625 -13.84375 C 1.84375 -15.21875 1.8125 -16.875 1.8125 -18.8125 L 1.8125 -27.5 C 1.8125 -29.4375 1.84375 -31.085938 1.90625 -32.453125 C 1.976562 -33.828125 2.082031 -35.035156 2.21875 -36.078125 C 2.363281 -37.117188 2.550781 -38.039062 2.78125 -38.84375 C 3.007812 -39.65625 3.3125 -40.457031 3.6875 -41.25 C 4.519531 -43.007812 5.765625 -44.289062 7.421875 -45.09375 C 9.085938 -45.90625 11.3125 -46.3125 14.09375 -46.3125 L 19.65625 -46.3125 C 22.425781 -46.3125 24.644531 -45.90625 26.3125 -45.09375 C 27.976562 -44.289062 29.226562 -43.007812 30.0625 -41.25 C 30.4375 -40.457031 30.738281 -39.65625 30.96875 -38.84375 C 31.195312 -38.039062 31.378906 -37.117188 31.515625 -36.078125 C 31.660156 -35.035156 31.765625 -33.828125 31.828125 -32.453125 C 31.898438 -31.085938 31.9375 -29.4375 31.9375 -27.5 L 31.9375 -18.8125 C 31.9375 -16.875 31.898438 -15.21875 31.828125 -13.84375 C 31.765625 -12.476562 31.660156 -11.273438 31.515625 -10.234375 C 31.378906 -9.203125 31.195312 -8.28125 30.96875 -7.46875 C 30.738281 -6.65625 30.4375 -5.851562 30.0625 -5.0625 C 29.226562 -3.3125 27.976562 -2.03125 26.3125 -1.21875 C 24.644531 -0.40625 22.425781 0 19.65625 0 Z M 19.515625 -33.046875 C 19.515625 -34.160156 19.269531 -35.050781 18.78125 -35.71875 C 18.289062 -36.394531 17.65625 -36.734375 16.875 -36.734375 C 16.082031 -36.734375 15.441406 -36.394531 14.953125 -35.71875 C 14.472656 -35.050781 14.234375 -34.160156 14.234375 -33.046875 L 14.234375 -13.125 C 14.234375 -11.96875 14.472656 -11.0625 14.953125 -10.40625 C 15.441406 -9.757812 16.082031 -9.4375 16.875 -9.4375 C 17.65625 -9.4375 18.289062 -9.757812 18.78125 -10.40625 C 19.269531 -11.0625 19.515625 -11.96875 19.515625 -13.125 Z M 19.515625 -33.046875 "/></g></g></g><g fill="#f7fdfd" fill-opacity="1"><g transform="translate(187.886648, 84.453362)"><g><path d="M 2.21875 -46.3125 L 19.71875 -46.3125 C 20.96875 -46.3125 21.9375 -46.300781 22.625 -46.28125 C 23.320312 -46.257812 23.867188 -46.25 24.265625 -46.25 C 24.660156 -46.25 24.9375 -46.234375 25.09375 -46.203125 C 25.257812 -46.179688 25.457031 -46.148438 25.6875 -46.109375 C 28.414062 -45.691406 30.269531 -44.488281 31.25 -42.5 C 31.613281 -41.707031 31.890625 -40.28125 32.078125 -38.21875 C 32.265625 -36.164062 32.359375 -33.679688 32.359375 -30.765625 L 32.359375 -18.265625 C 32.359375 -15.898438 32.285156 -13.609375 32.140625 -11.390625 C 32.003906 -9.171875 31.820312 -7.390625 31.59375 -6.046875 C 30.945312 -2.335938 28.910156 -0.367188 25.484375 -0.140625 C 25.347656 -0.140625 24.90625 -0.125 24.15625 -0.09375 C 23.414062 -0.0703125 21.9375 -0.0390625 19.71875 0 L 2.21875 0 Z M 16.875 -10.203125 C 18.164062 -10.203125 18.992188 -10.457031 19.359375 -10.96875 C 19.734375 -11.476562 19.921875 -12.566406 19.921875 -14.234375 L 19.921875 -32.15625 C 19.921875 -33.863281 19.734375 -34.972656 19.359375 -35.484375 C 18.992188 -35.992188 18.164062 -36.25 16.875 -36.25 L 14.65625 -36.25 L 14.65625 -10.203125 Z M 16.875 -10.203125 "/></g></g></g><g fill="#f7fdfd" fill-opacity="1"><g transform="translate(222.04703, 84.453362)"><g><path d="M 14.09375 0 C 12.613281 0 11.441406 -0.0078125 10.578125 -0.03125 C 9.722656 -0.0507812 9.050781 -0.0820312 8.5625 -0.125 C 8.082031 -0.175781 7.710938 -0.210938 7.453125 -0.234375 C 7.203125 -0.265625 6.941406 -0.328125 6.671875 -0.421875 C 5.691406 -0.691406 4.890625 -1.140625 4.265625 -1.765625 C 3.640625 -2.390625 3.140625 -3.316406 2.765625 -4.546875 C 2.398438 -5.773438 2.148438 -7.359375 2.015625 -9.296875 C 1.878906 -11.242188 1.8125 -13.703125 1.8125 -16.671875 L 1.8125 -31.453125 C 1.8125 -32.148438 1.832031 -32.925781 1.875 -33.78125 C 1.914062 -34.632812 1.972656 -35.476562 2.046875 -36.3125 C 2.117188 -37.144531 2.1875 -37.921875 2.25 -38.640625 C 2.320312 -39.359375 2.40625 -39.925781 2.5 -40.34375 C 2.820312 -41.96875 3.34375 -43.207031 4.0625 -44.0625 C 4.78125 -44.914062 5.785156 -45.523438 7.078125 -45.890625 C 7.359375 -45.941406 7.648438 -45.988281 7.953125 -46.03125 C 8.253906 -46.082031 8.644531 -46.128906 9.125 -46.171875 C 9.613281 -46.222656 10.25 -46.257812 11.03125 -46.28125 C 11.820312 -46.300781 12.84375 -46.3125 14.09375 -46.3125 L 25.6875 -46.3125 L 25.6875 -36.25 L 14.234375 -36.25 L 14.234375 -28.1875 L 25.6875 -28.1875 L 25.6875 -18.125 L 14.234375 -18.125 L 14.234375 -10.0625 L 25.6875 -10.0625 L 25.6875 0 Z M 14.09375 0 "/></g></g></g><g fill="#f7fdfd" fill-opacity="1"><g transform="translate(249.541976, 84.453362)"><g><path d="M 10.0625 0 C 7.425781 -4.625 5.390625 -9.144531 3.953125 -13.5625 C 2.523438 -17.988281 1.8125 -22.007812 1.8125 -25.625 L 1.8125 -46.3125 L 14.234375 -46.3125 L 14.234375 -13.046875 C 14.234375 -11.710938 14.429688 -10.765625 14.828125 -10.203125 C 15.222656 -9.648438 15.878906 -9.375 16.796875 -9.375 C 17.679688 -9.375 18.316406 -9.648438 18.703125 -10.203125 C 19.097656 -10.765625 19.296875 -11.710938 19.296875 -13.046875 L 19.296875 -46.3125 L 31.734375 -46.3125 L 31.734375 -25.625 C 31.734375 -22.007812 31.015625 -17.957031 29.578125 -13.46875 C 28.140625 -8.976562 26.101562 -4.488281 23.46875 0 Z M 10.0625 0 "/></g></g></g><path stroke-linecap="butt" transform="matrix(0.526053, -0.526053, 0.526053, 0.526053, 56.244928, 27.463331)" fill="none" stroke-linejoin="miter" d="M -0.000330123 2.497541 L 49.673084 2.501254 " stroke="#53e9f6" stroke-width="5" stroke-opacity="1" stroke-miterlimit="4"/><path stroke-linecap="butt" transform="matrix(0.743952, 0.000000000000000474, -0.000000000000000474, 0.743952, 25.693507, 26.4818)" fill="none" stroke-linejoin="miter" d="M 0.00242738 2.497533 L 44.633187 2.497533 " stroke="#53e9f6" stroke-width="5" stroke-opacity="1" stroke-miterlimit="4"/><path stroke-linecap="butt" transform="matrix(0, 0.743952, -0.743952, 0, 22.175978, 35.134465)" fill="none" stroke-linejoin="miter" d="M -0.00222174 2.499587 L 71.501506 2.499587 " stroke="#53e9f6" stroke-width="5" stroke-opacity="1" stroke-miterlimit="4"/><path stroke-linecap="butt" transform="matrix(0.743952, 0, 0, 0.743952, 25.693507, 91.007004)" fill="none" stroke-linejoin="miter" d="M 0.00242738 2.500409 L 44.633187 2.500409 " stroke="#53e9f6" stroke-width="5" stroke-opacity="1" stroke-miterlimit="4"/><g clip-path="url(#7077fc6bd4)"><path stroke-linecap="butt" transform="matrix(0.520998, 0.53106, -0.53106, 0.520998, 59.038101, 90.979055)" fill="none" stroke-linejoin="miter" d="M 0.000170286 2.49925 L 50.437013 2.499548 " stroke="#53e9f6" stroke-width="5" stroke-opacity="1" stroke-miterlimit="4"/></g><g clip-path="url(#f638f70ac5)"><path stroke-linecap="butt" transform="matrix(0.460389, -0.584385, 0.584385, 0.460389, 16.705518, 34.112941)" fill="none" stroke-linejoin="miter" d="M 1.575963 5.191389 C 6.002289 1.603983 10.223888 1.600266 14.239009 5.194986 " stroke="#53e9f6" stroke-width="5" stroke-opacity="1" stroke-miterlimit="4"/></g><g clip-path="url(#f664cbe7aa)"><path stroke-linecap="butt" transform="matrix(-0.567635, -0.480889, 0.480889, -0.567635, 25.749029, 97.277266)" fill="none" stroke-linejoin="miter" d="M 1.758941 6.285954 C 6.859718 1.235229 11.244486 1.236618 14.909851 6.286115 " stroke="#53e9f6" stroke-width="5" stroke-opacity="1" stroke-miterlimit="4"/></g><g clip-path="url(#97ad1cd602)"><path stroke-linecap="butt" transform="matrix(0.743951, 0.000748421, -0.000748421, 0.743951, 82.503556, 116.458728)" fill="none" stroke-linejoin="miter" d="M -0.00226199 2.502295 L 198.804232 2.50182 " stroke="#53e9f6" stroke-width="5" stroke-opacity="1" stroke-miterlimit="4"/></g><g clip-path="url(#e9228dc23d)"><path stroke-linecap="butt" transform="matrix(0.519508, -0.532518, 0.532518, 0.519508, 227.829749, 117.61207)" fill="none" stroke-linejoin="miter" d="M -0.000176177 2.498504 L 50.586719 2.500315 " stroke="#53e9f6" stroke-width="5" stroke-opacity="1" stroke-miterlimit="4"/></g><path stroke-linecap="butt" transform="matrix(0.743952, -0.0000620888, 0.0000620888, 0.743952, 254.010118, 90.718003)" fill="none" stroke-linejoin="miter" d="M 0.00194368 2.500327 L 43.724336 2.498725 " stroke="#53e9f6" stroke-width="5" stroke-opacity="1" stroke-miterlimit="4"/><g clip-path="url(#4d724253b6)"><path stroke-linecap="butt" transform="matrix(0.501736, -0.549295, 0.549295, 0.501736, 283.445406, 92.58421)" fill="none" stroke-linejoin="miter" d="M 1.738252 1.875324 C 6.256487 6.253507 11.002775 6.249001 15.972568 1.880184 " stroke="#53e9f6" stroke-width="5" stroke-opacity="1" stroke-miterlimit="4"/></g><g clip-path="url(#bcf9af1f77)"><path stroke-linecap="butt" transform="matrix(0.00646081, 0.743924, -0.743924, 0.00646081, 293.901966, 34.239954)" fill="none" stroke-linejoin="miter" d="M 0.00230264 2.49893 L 69.088064 2.500325 " stroke="#53e9f6" stroke-width="5" stroke-opacity="1" stroke-miterlimit="4"/></g><g clip-path="url(#6816284e3e)"><path stroke-linecap="butt" transform="matrix(-0.554158, -0.49636, 0.49636, -0.554158, 292.094716, 37.08113)" fill="none" stroke-linejoin="miter" d="M 1.733197 1.885852 C 6.292974 6.260435 11.086014 6.260135 16.104903 1.884544 " stroke="#53e9f6" stroke-width="5" stroke-opacity="1" stroke-miterlimit="4"/></g><path stroke-linecap="butt" transform="matrix(0.74395, 0.00156698, -0.00156698, 0.74395, 254.108548, 26.143008)" fill="none" stroke-linejoin="miter" d="M 0.00113004 2.501374 L 40.998506 2.499032 " stroke="#53e9f6" stroke-width="5" stroke-opacity="1" stroke-miterlimit="4"/><path stroke-linecap="butt" transform="matrix(0.529862, 0.522217, -0.522217, 0.529862, 230.172544, 1.000219)" fill="none" stroke-linejoin="miter" d="M -0.000440091 2.499198 L 49.982459 2.498535 " stroke="#53e9f6" stroke-width="5" stroke-opacity="1" stroke-miterlimit="4"/><path stroke-linecap="butt" transform="matrix(0.52855, 0.523544, -0.523544, 0.52855, 56.707473, 14.103703)" fill="none" stroke-linejoin="miter" d="M 0.000497116 2.500837 L 15.074606 2.498308 " stroke="#53e9f6" stroke-width="5" stroke-opacity="1" stroke-miterlimit="4"/><path stroke-linecap="butt" transform="matrix(-0.743927, -0.00602626, 0.00602626, -0.743927, 56.721921, 17.727903)" fill="none" stroke-linejoin="miter" d="M -0.00173007 2.501221 L 24.687762 2.500753 " stroke="#53e9f6" stroke-width="5" stroke-opacity="1" stroke-miterlimit="4"/><g clip-path="url(#f99547f86e)"><path stroke-linecap="butt" transform="matrix(-0.52855, -0.523544, 0.523544, -0.52855, 256.556846, 107.101858)" fill="none" stroke-linejoin="miter" d="M -0.00214146 2.500667 L 15.075662 2.501869 " stroke="#53e9f6" stroke-width="5" stroke-opacity="1" stroke-miterlimit="4"/></g><g clip-path="url(#a5037af685)"><path stroke-linecap="butt" transform="matrix(0.743927, 0.00602625, -0.00602625, 0.743927, 256.549811, 103.477659)" fill="none" stroke-linejoin="miter" d="M 0.000535331 2.497927 L 24.690027 2.497459 " stroke="#53e9f6" stroke-width="5" stroke-opacity="1" stroke-miterlimit="4"/></g><g clip-path="url(#a40775f45f)"><path stroke-linecap="butt" transform="matrix(0.529537, -0.522546, 0.522546, 0.529537, 53.051359, 104.607006)" fill="none" stroke-linejoin="miter" d="M 0.00267544 2.500447 L 15.036095 2.500798 " stroke="#53e9f6" stroke-width="5" stroke-opacity="1" stroke-miterlimit="4"/></g><g clip-path="url(#365a214712)"><path stroke-linecap="butt" transform="matrix(0.743918, 0.0070321, -0.0070321, 0.743918, 38.388861, 103.328921)" fill="none" stroke-linejoin="miter" d="M -0.000266434 2.498367 L 23.135271 2.50021 " stroke="#53e9f6" stroke-width="5" stroke-opacity="1" stroke-miterlimit="4"/></g><path stroke-linecap="butt" transform="matrix(-0.529537, 0.522546, -0.522546, -0.529537, 259.230479, 16.459306)" fill="none" stroke-linejoin="miter" d="M -0.000409389 2.497225 L 15.036748 2.501263 " stroke="#53e9f6" stroke-width="5" stroke-opacity="1" stroke-miterlimit="4"/><path stroke-linecap="butt" transform="matrix(-0.743929, 0.00585992, -0.00585992, -0.743929, 274.217705, 17.439911)" fill="none" stroke-linejoin="miter" d="M -0.0000737743 2.497389 L 23.765202 2.500809 " stroke="#53e9f6" stroke-width="5" stroke-opacity="1" stroke-miterlimit="4"/><g clip-path="url(#10ac023447)"><path fill="#53e9f6" d="M 32.144531 8.765625 C 28.21875 8.765625 25.039062 11.945312 25.039062 15.871094 C 25.039062 19.800781 28.21875 22.980469 32.144531 22.980469 C 36.074219 22.980469 39.253906 19.800781 39.253906 15.871094 C 39.253906 11.945312 36.074219 8.765625 32.144531 8.765625 Z M 32.144531 21.558594 C 29.003906 21.558594 26.460938 19.015625 26.460938 15.871094 C 26.460938 12.730469 29.003906 10.1875 32.144531 10.1875 C 35.289062 10.1875 37.832031 12.730469 37.832031 15.871094 C 37.832031 19.015625 35.289062 21.558594 32.144531 21.558594 Z M 32.144531 21.558594 " fill-opacity="1" fill-rule="nonzero"/></g><g clip-path="url(#c49008eb5b)"><path fill="#53e9f6" d="M 32.074219 9.507812 C 28.597656 9.507812 25.78125 12.324219 25.78125 15.804688 C 25.78125 19.28125 28.597656 22.097656 32.074219 22.097656 C 35.554688 22.097656 38.371094 19.28125 38.371094 15.804688 C 38.371094 12.324219 35.554688 9.507812 32.074219 9.507812 Z M 32.074219 20.839844 C 29.292969 20.839844 27.039062 18.585938 27.039062 15.804688 C 27.039062 13.019531 29.292969 10.765625 32.074219 10.765625 C 34.859375 10.765625 37.113281 13.019531 37.113281 15.804688 C 37.113281 18.585938 34.859375 20.839844 32.074219 20.839844 Z M 32.074219 20.839844 " fill-opacity="1" fill-rule="nonzero"/></g><g clip-path="url(#0571dbc44e)"><path fill="#53e9f6" d="M 32.148438 10.585938 C 29.226562 10.585938 26.859375 12.953125 26.859375 15.875 C 26.859375 18.796875 29.226562 21.164062 32.148438 21.164062 C 35.070312 21.164062 37.4375 18.796875 37.4375 15.875 C 37.4375 12.953125 35.070312 10.585938 32.148438 10.585938 Z M 32.148438 20.109375 C 29.8125 20.109375 27.917969 18.214844 27.917969 15.875 C 27.917969 13.539062 29.8125 11.644531 32.148438 11.644531 C 34.488281 11.644531 36.382812 13.539062 36.382812 15.875 C 36.382812 18.214844 34.488281 20.109375 32.148438 20.109375 Z M 32.148438 20.109375 " fill-opacity="1" fill-rule="nonzero"/></g><g clip-path="url(#bdc1277e59)"><path fill="#53e9f6" d="M 32.074219 11.480469 C 29.644531 11.480469 27.679688 13.445312 27.679688 15.875 C 27.679688 18.300781 29.644531 20.269531 32.074219 20.269531 C 34.5 20.269531 36.464844 18.300781 36.464844 15.875 C 36.464844 13.445312 34.5 11.480469 32.074219 11.480469 Z M 32.074219 19.390625 C 30.128906 19.390625 28.558594 17.816406 28.558594 15.875 C 28.558594 13.933594 30.128906 12.359375 32.074219 12.359375 C 34.015625 12.359375 35.585938 13.933594 35.585938 15.875 C 35.585938 17.816406 34.015625 19.390625 32.074219 19.390625 Z M 32.074219 19.390625 " fill-opacity="1" fill-rule="nonzero"/></g><g clip-path="url(#763f4395a8)"><path fill="#53e9f6" d="M 32.144531 97.890625 C 28.21875 97.890625 25.039062 101.070312 25.039062 105 C 25.039062 108.925781 28.21875 112.109375 32.144531 112.109375 C 36.074219 112.109375 39.253906 108.925781 39.253906 105 C 39.253906 101.070312 36.074219 97.890625 32.144531 97.890625 Z M 32.144531 110.6875 C 29.003906 110.6875 26.460938 108.140625 26.460938 105 C 26.460938 101.859375 29.003906 99.3125 32.144531 99.3125 C 35.289062 99.3125 37.832031 101.859375 37.832031 105 C 37.832031 108.140625 35.289062 110.6875 32.144531 110.6875 Z M 32.144531 110.6875 " fill-opacity="1" fill-rule="nonzero"/></g><g clip-path="url(#2b23848061)"><path fill="#53e9f6" d="M 32.074219 98.636719 C 28.597656 98.636719 25.78125 101.453125 25.78125 104.929688 C 25.78125 108.40625 28.597656 111.222656 32.074219 111.222656 C 35.554688 111.222656 38.371094 108.40625 38.371094 104.929688 C 38.371094 101.453125 35.554688 98.636719 32.074219 98.636719 Z M 32.074219 109.964844 C 29.292969 109.964844 27.039062 107.710938 27.039062 104.929688 C 27.039062 102.148438 29.292969 99.894531 32.074219 99.894531 C 34.859375 99.894531 37.113281 102.148438 37.113281 104.929688 C 37.113281 107.710938 34.859375 109.964844 32.074219 109.964844 Z M 32.074219 109.964844 " fill-opacity="1" fill-rule="nonzero"/></g><g clip-path="url(#a2991fbf98)"><path fill="#53e9f6" d="M 32.148438 99.714844 C 29.226562 99.714844 26.859375 102.082031 26.859375 105.003906 C 26.859375 107.925781 29.226562 110.292969 32.148438 110.292969 C 35.070312 110.292969 37.4375 107.925781 37.4375 105.003906 C 37.4375 102.082031 35.070312 99.714844 32.148438 99.714844 Z M 32.148438 109.234375 C 29.8125 109.234375 27.917969 107.339844 27.917969 105.003906 C 27.917969 102.664062 29.8125 100.773438 32.148438 100.773438 C 34.488281 100.773438 36.382812 102.664062 36.382812 105.003906 C 36.382812 107.339844 34.488281 109.234375 32.148438 109.234375 Z M 32.148438 109.234375 " fill-opacity="1" fill-rule="nonzero"/></g><g clip-path="url(#9d84b53166)"><path fill="#53e9f6" d="M 32.074219 100.605469 C 29.644531 100.605469 27.679688 102.574219 27.679688 105 C 27.679688 107.429688 29.644531 109.394531 32.074219 109.394531 C 34.5 109.394531 36.464844 107.429688 36.464844 105 C 36.464844 102.574219 34.5 100.605469 32.074219 100.605469 Z M 32.074219 108.515625 C 30.128906 108.515625 28.558594 106.941406 28.558594 105 C 28.558594 103.058594 30.128906 101.484375 32.074219 101.484375 C 34.015625 101.484375 35.585938 103.058594 35.585938 105 C 35.585938 106.941406 34.015625 108.515625 32.074219 108.515625 Z M 32.074219 108.515625 " fill-opacity="1" fill-rule="nonzero"/></g><g clip-path="url(#16734f7ef3)"><path fill="#53e9f6" d="M 280.441406 97.871094 C 276.511719 97.871094 273.332031 101.054688 273.332031 104.980469 C 273.332031 108.910156 276.511719 112.089844 280.441406 112.089844 C 284.367188 112.089844 287.546875 108.910156 287.546875 104.980469 C 287.546875 101.054688 284.367188 97.871094 280.441406 97.871094 Z M 280.441406 110.667969 C 277.296875 110.667969 274.753906 108.121094 274.753906 104.980469 C 274.753906 101.839844 277.296875 99.292969 280.441406 99.292969 C 283.582031 99.292969 286.125 101.839844 286.125 104.980469 C 286.125 108.121094 283.582031 110.667969 280.441406 110.667969 Z M 280.441406 110.667969 " fill-opacity="1" fill-rule="nonzero"/></g><g clip-path="url(#4beff8dcd2)"><path fill="#53e9f6" d="M 280.371094 98.617188 C 276.890625 98.617188 274.074219 101.433594 274.074219 104.910156 C 274.074219 108.390625 276.890625 111.207031 280.371094 111.207031 C 283.847656 111.207031 286.664062 108.390625 286.664062 104.910156 C 286.664062 101.433594 283.847656 98.617188 280.371094 98.617188 Z M 280.371094 109.945312 C 277.589844 109.945312 275.335938 107.695312 275.335938 104.910156 C 275.335938 102.128906 277.589844 99.875 280.371094 99.875 C 283.152344 99.875 285.40625 102.128906 285.40625 104.910156 C 285.40625 107.695312 283.152344 109.945312 280.371094 109.945312 Z M 280.371094 109.945312 " fill-opacity="1" fill-rule="nonzero"/></g><g clip-path="url(#b44ed1c325)"><path fill="#53e9f6" d="M 280.445312 99.695312 C 277.523438 99.695312 275.15625 102.0625 275.15625 104.984375 C 275.15625 107.90625 277.523438 110.273438 280.445312 110.273438 C 283.367188 110.273438 285.734375 107.90625 285.734375 104.984375 C 285.734375 102.0625 283.367188 99.695312 280.445312 99.695312 Z M 280.445312 109.214844 C 278.105469 109.214844 276.210938 107.324219 276.210938 104.984375 C 276.210938 102.648438 278.105469 100.753906 280.445312 100.753906 C 282.78125 100.753906 284.675781 102.648438 284.675781 104.984375 C 284.675781 107.324219 282.78125 109.214844 280.445312 109.214844 Z M 280.445312 109.214844 " fill-opacity="1" fill-rule="nonzero"/></g><g clip-path="url(#f3723d70e2)"><path fill="#53e9f6" d="M 280.367188 100.589844 C 277.9375 100.589844 275.972656 102.554688 275.972656 104.984375 C 275.972656 107.410156 277.9375 109.375 280.367188 109.375 C 282.792969 109.375 284.761719 107.410156 284.761719 104.984375 C 284.761719 102.554688 282.792969 100.589844 280.367188 100.589844 Z M 280.367188 108.496094 C 278.425781 108.496094 276.851562 106.925781 276.851562 104.984375 C 276.851562 103.039062 278.425781 101.46875 280.367188 101.46875 C 282.308594 101.46875 283.882812 103.039062 283.882812 104.984375 C 283.882812 106.925781 282.308594 108.496094 280.367188 108.496094 Z M 280.367188 108.496094 " fill-opacity="1" fill-rule="nonzero"/></g><g clip-path="url(#bcf30837b9)"><path fill="#53e9f6" d="M 280.441406 8.597656 C 276.511719 8.597656 273.332031 11.78125 273.332031 15.707031 C 273.332031 19.632812 276.511719 22.816406 280.441406 22.816406 C 284.367188 22.816406 287.546875 19.632812 287.546875 15.707031 C 287.546875 11.78125 284.367188 8.597656 280.441406 8.597656 Z M 280.441406 21.394531 C 277.296875 21.394531 274.753906 18.847656 274.753906 15.707031 C 274.753906 12.566406 277.296875 10.019531 280.441406 10.019531 C 283.582031 10.019531 286.125 12.566406 286.125 15.707031 C 286.125 18.847656 283.582031 21.394531 280.441406 21.394531 Z M 280.441406 21.394531 " fill-opacity="1" fill-rule="nonzero"/></g><g clip-path="url(#4f06d5013d)"><path fill="#53e9f6" d="M 280.371094 9.34375 C 276.890625 9.34375 274.074219 12.160156 274.074219 15.636719 C 274.074219 19.113281 276.890625 21.929688 280.371094 21.929688 C 283.847656 21.929688 286.664062 19.113281 286.664062 15.636719 C 286.664062 12.160156 283.847656 9.34375 280.371094 9.34375 Z M 280.371094 20.671875 C 277.589844 20.671875 275.335938 18.417969 275.335938 15.636719 C 275.335938 12.855469 277.589844 10.601562 280.371094 10.601562 C 283.152344 10.601562 285.40625 12.855469 285.40625 15.636719 C 285.40625 18.417969 283.152344 20.671875 280.371094 20.671875 Z M 280.371094 20.671875 " fill-opacity="1" fill-rule="nonzero"/></g><g clip-path="url(#05deb69c71)"><path fill="#53e9f6" d="M 280.445312 10.421875 C 277.523438 10.421875 275.15625 12.789062 275.15625 15.710938 C 275.15625 18.632812 277.523438 21 280.445312 21 C 283.367188 21 285.734375 18.632812 285.734375 15.710938 C 285.734375 12.789062 283.367188 10.421875 280.445312 10.421875 Z M 280.445312 19.941406 C 278.105469 19.941406 276.210938 18.046875 276.210938 15.710938 C 276.210938 13.371094 278.105469 11.480469 280.445312 11.480469 C 282.78125 11.480469 284.675781 13.371094 284.675781 15.710938 C 284.675781 18.046875 282.78125 19.941406 280.445312 19.941406 Z M 280.445312 19.941406 " fill-opacity="1" fill-rule="nonzero"/></g><g clip-path="url(#d10c6cee32)"><path fill="#53e9f6" d="M 280.367188 11.3125 C 277.9375 11.3125 275.972656 13.28125 275.972656 15.707031 C 275.972656 18.136719 277.9375 20.101562 280.367188 20.101562 C 282.792969 20.101562 284.761719 18.136719 284.761719 15.707031 C 284.761719 13.28125 282.792969 11.3125 280.367188 11.3125 Z M 280.367188 19.222656 C 278.425781 19.222656 276.851562 17.652344 276.851562 15.707031 C 276.851562 13.765625 278.425781 12.191406 280.367188 12.191406 C 282.308594 12.191406 283.882812 13.765625 283.882812 15.707031 C 283.882812 17.652344 282.308594 19.222656 280.367188 19.222656 Z M 280.367188 19.222656 " fill-opacity="1" fill-rule="nonzero"/></g><path stroke-linecap="butt" transform="matrix(0.74395, -0.00131099, 0.00131099, 0.74395, 72.406904, 20.29555)" fill="none" stroke-linejoin="miter" d="M 0.000843202 2.002294 L 15.002052 2.002476 " stroke="#028abc" stroke-width="4" stroke-opacity="1" stroke-miterlimit="4"/><path stroke-linecap="butt" transform="matrix(0.54143, -0.510213, 0.510213, 0.54143, 81.481176, 21.193726)" fill="none" stroke-linejoin="miter" d="M -0.00226646 1.999265 L 14.298239 1.998219 " stroke="#028abc" stroke-width="4" stroke-opacity="1" stroke-miterlimit="4"/><path stroke-linecap="butt" transform="matrix(0.743951, 0.000532103, -0.000532103, 0.743951, 88.91543, 14.074055)" fill="none" stroke-linejoin="miter" d="M -0.000407702 2.00073 L 34.008236 1.997408 " stroke="#028abc" stroke-width="4" stroke-opacity="1" stroke-miterlimit="4"/><path stroke-linecap="butt" transform="matrix(0.74395, -0.0013174, 0.0013174, 0.74395, 96.351249, 20.323246)" fill="none" stroke-linejoin="miter" d="M 0.00212686 2.001822 L 99.208587 1.998976 " stroke="#028abc" stroke-width="4" stroke-opacity="1" stroke-miterlimit="4"/><path stroke-linecap="butt" transform="matrix(0.56117, -0.488418, 0.488418, 0.56117, 168.134318, 20.963531)" fill="none" stroke-linejoin="miter" d="M -0.00186028 1.998497 L 14.858939 1.999322 " stroke="#028abc" stroke-width="4" stroke-opacity="1" stroke-miterlimit="4"/><path stroke-linecap="butt" transform="matrix(0.743951, 0.000855976, -0.000855976, 0.743951, 176.525961, 13.703827)" fill="none" stroke-linejoin="miter" d="M -0.00109128 1.999567 L 40.208626 2.000559 " stroke="#028abc" stroke-width="4" stroke-opacity="1" stroke-miterlimit="4"/><path stroke-linecap="butt" transform="matrix(0.743951, 0.00117809, -0.00117809, 0.743951, 212.59477, 13.686625)" fill="none" stroke-linejoin="miter" d="M 0.00179876 2.001684 L 14.609198 1.999555 " stroke="#028abc" stroke-width="4" stroke-opacity="1" stroke-miterlimit="4"/><path stroke-linecap="butt" transform="matrix(0.51454, 0.537319, -0.537319, 0.51454, 223.538267, 13.800751)" fill="none" stroke-linejoin="miter" d="M -0.000527592 1.997233 L 13.598952 1.999817 " stroke="#028abc" stroke-width="4" stroke-opacity="1" stroke-miterlimit="4"/><path stroke-linecap="butt" transform="matrix(0.743952, 0.000000000000002711, -0.000000000000002711, 0.743952, 228.472352, 20.292823)" fill="none" stroke-linejoin="miter" d="M 0.000409423 2.000704 L 15.600173 2.000704 " stroke="#028abc" stroke-width="4" stroke-opacity="1" stroke-miterlimit="4"/><path stroke-linecap="butt" transform="matrix(0.743952, -0.000290043, 0.000290043, 0.743952, 73.004108, 96.14885)" fill="none" stroke-linejoin="miter" d="M -0.00105068 1.999954 L 67.800953 2.000134 " stroke="#028abc" stroke-width="4" stroke-opacity="1" stroke-miterlimit="4"/><g clip-path="url(#6dc9e401c0)"><path stroke-linecap="butt" transform="matrix(0.743952, -0.000266462, 0.000266462, 0.743952, 99.910192, 103.890348)" fill="none" stroke-linejoin="miter" d="M -0.000765123 2.00088 L 73.797513 2.001059 " stroke="#028abc" stroke-width="4" stroke-opacity="1" stroke-miterlimit="4"/></g><path stroke-linecap="butt" transform="matrix(0.743952, -0.000126706, 0.000126706, 0.743952, 162.104837, 96.13902)" fill="none" stroke-linejoin="miter" d="M 0.000509653 1.997415 L 77.600273 2.00013 " stroke="#028abc" stroke-width="4" stroke-opacity="1" stroke-miterlimit="4"/><g clip-path="url(#6365d89108)"><path stroke-linecap="butt" transform="matrix(0.743952, -0.000231968, 0.000231968, 0.743952, 174.901661, 104.00819)" fill="none" stroke-linejoin="miter" d="M 0.000294041 2.000001 L 42.389018 1.997466 " stroke="#028abc" stroke-width="4" stroke-opacity="1" stroke-miterlimit="4"/></g><g clip-path="url(#edd09c13f9)"><path stroke-linecap="butt" transform="matrix(0.551277, -0.499558, 0.499558, 0.551277, 152.778969, 104.631583)" fill="none" stroke-linejoin="miter" d="M -0.000952936 1.999569 L 16.968507 2.000775 " stroke="#028abc" stroke-width="4" stroke-opacity="1" stroke-miterlimit="4"/></g><g clip-path="url(#e34a9b5115)"><path stroke-linecap="butt" transform="matrix(0.530148, -0.521926, 0.521926, 0.530148, 203.918868, 104.824668)" fill="none" stroke-linejoin="miter" d="M -0.00336208 1.999999 L 16.23687 1.999317 " stroke="#028abc" stroke-width="4" stroke-opacity="1" stroke-miterlimit="4"/></g><g clip-path="url(#589aec9835)"><path stroke-linecap="butt" transform="matrix(0.521231, -0.530832, 0.530832, 0.521231, 221.457731, 104.989952)" fill="none" stroke-linejoin="miter" d="M 0.00124439 1.999036 L 17.088215 1.999026 " stroke="#028abc" stroke-width="4" stroke-opacity="1" stroke-miterlimit="4"/></g><path stroke-linecap="butt" transform="matrix(0.743952, 0.000000000000003814, -0.000000000000003814, 0.743952, 215.538769, 104.186105)" fill="none" stroke-linejoin="miter" d="M 0.000395098 2.002383 L 11.089826 2.002383 " stroke="#028abc" stroke-width="4" stroke-opacity="1" stroke-miterlimit="4"/><path stroke-linecap="butt" transform="matrix(0.743926, -0.00615738, 0.00615738, 0.743926, 230.405493, 96.002683)" fill="none" stroke-linejoin="miter" d="M 0.000198513 2.002223 L 12.985592 1.999433 " stroke="#028abc" stroke-width="4" stroke-opacity="1" stroke-miterlimit="4"/><g clip-path="url(#3598eda012)"><path stroke-linecap="butt" transform="matrix(0.541239, 0.510416, -0.510416, 0.541239, 93.72829, 96.896941)" fill="none" stroke-linejoin="miter" d="M 0.000550859 2.00142 L 15.118172 1.998773 " stroke="#028abc" stroke-width="4" stroke-opacity="1" stroke-miterlimit="4"/></g><path stroke-linecap="butt" transform="matrix(0.564767, 0.484254, -0.484254, 0.564767, 123.48025, 96.050543)" fill="none" stroke-linejoin="miter" d="M -0.000365702 1.999622 L 9.483784 2.001416 " stroke="#028abc" stroke-width="4" stroke-opacity="1" stroke-miterlimit="4"/></svg>