<svg xmlns="http://www.w3.org/2000/svg" xmlns:xlink="http://www.w3.org/1999/xlink" width="500" zoomAndPan="magnify" viewBox="0 0 375 374.999991" height="500" preserveAspectRatio="xMidYMid meet" version="1.0"><defs><g/><clipPath id="488633a65c"><path d="M 55.339844 135.195312 L 69.589844 135.195312 L 69.589844 149.445312 L 55.339844 149.445312 Z M 55.339844 135.195312 " clip-rule="nonzero"/></clipPath><clipPath id="ae2128b035"><path d="M 56.089844 135.945312 L 68.839844 135.945312 L 68.839844 148.695312 L 56.089844 148.695312 Z M 56.089844 135.945312 " clip-rule="nonzero"/></clipPath><clipPath id="9976f49cad"><path d="M 57.179688 137.035156 L 67.679688 137.035156 L 67.679688 147.535156 L 57.179688 147.535156 Z M 57.179688 137.035156 " clip-rule="nonzero"/></clipPath><clipPath id="0573df4536"><path d="M 58.003906 137.933594 L 67 137.933594 L 67 146.933594 L 58.003906 146.933594 Z M 58.003906 137.933594 " clip-rule="nonzero"/></clipPath><clipPath id="b60cd78699"><path d="M 55.339844 225.046875 L 69.589844 225.046875 L 69.589844 239.296875 L 55.339844 239.296875 Z M 55.339844 225.046875 " clip-rule="nonzero"/></clipPath><clipPath id="453c0a58e8"><path d="M 56.089844 225.796875 L 68.839844 225.796875 L 68.839844 238.546875 L 56.089844 238.546875 Z M 56.089844 225.796875 " clip-rule="nonzero"/></clipPath><clipPath id="57521bddc4"><path d="M 57.179688 226.886719 L 67.679688 226.886719 L 67.679688 237.386719 L 57.179688 237.386719 Z M 57.179688 226.886719 " clip-rule="nonzero"/></clipPath><clipPath id="9bde20f05d"><path d="M 58.003906 227.785156 L 67 227.785156 L 67 236.785156 L 58.003906 236.785156 Z M 58.003906 227.785156 " clip-rule="nonzero"/></clipPath><clipPath id="fe367ab643"><path d="M 305.652344 225.027344 L 319.902344 225.027344 L 319.902344 239.277344 L 305.652344 239.277344 Z M 305.652344 225.027344 " clip-rule="nonzero"/></clipPath><clipPath id="0427b2a7d7"><path d="M 306.402344 225.777344 L 319.152344 225.777344 L 319.152344 238.527344 L 306.402344 238.527344 Z M 306.402344 225.777344 " clip-rule="nonzero"/></clipPath><clipPath id="2764ff7863"><path d="M 307.492188 226.867188 L 317.992188 226.867188 L 317.992188 237.367188 L 307.492188 237.367188 Z M 307.492188 226.867188 " clip-rule="nonzero"/></clipPath><clipPath id="66221d4ec7"><path d="M 308.316406 227.765625 L 317.316406 227.765625 L 317.316406 236.765625 L 308.316406 236.765625 Z M 308.316406 227.765625 " clip-rule="nonzero"/></clipPath><clipPath id="f18b587351"><path d="M 305.652344 135.027344 L 319.902344 135.027344 L 319.902344 149.277344 L 305.652344 149.277344 Z M 305.652344 135.027344 " clip-rule="nonzero"/></clipPath><clipPath id="47bbc3b043"><path d="M 306.402344 135.777344 L 319.152344 135.777344 L 319.152344 148.527344 L 306.402344 148.527344 Z M 306.402344 135.777344 " clip-rule="nonzero"/></clipPath><clipPath id="6f28324fe6"><path d="M 307.492188 136.867188 L 317.992188 136.867188 L 317.992188 147.367188 L 307.492188 147.367188 Z M 307.492188 136.867188 " clip-rule="nonzero"/></clipPath><clipPath id="feca6a79ef"><path d="M 308.316406 137.765625 L 317.316406 137.765625 L 317.316406 146.765625 L 308.316406 146.765625 Z M 308.316406 137.765625 " clip-rule="nonzero"/></clipPath></defs><path stroke-linecap="butt" transform="matrix(0.75, -0.00075554, 0.00075554, 0.75, 113.27309, 127.60713)" fill="none" stroke-linejoin="miter" d="M -0.00205272 2.497784 L 198.534525 2.499871 " stroke="#53e9f6" stroke-width="5" stroke-opacity="1" stroke-miterlimit="4"/><g fill="#ff00ff" fill-opacity="1"><g transform="translate(60.885029, 211.499986)"><g><path d="M 2.234375 -46.6875 L 22.953125 -46.6875 C 24.828125 -46.6875 26.378906 -46.546875 27.609375 -46.265625 C 28.847656 -45.984375 29.828125 -45.46875 30.546875 -44.71875 C 31.273438 -43.976562 31.78125 -42.988281 32.0625 -41.75 C 32.34375 -40.519531 32.484375 -38.945312 32.484375 -37.03125 L 32.484375 -34.578125 C 32.484375 -33.128906 32.445312 -31.890625 32.375 -30.859375 C 32.300781 -29.835938 32.171875 -28.953125 31.984375 -28.203125 C 31.796875 -27.460938 31.550781 -26.847656 31.25 -26.359375 C 30.945312 -25.867188 30.585938 -25.4375 30.171875 -25.0625 C 29.847656 -24.78125 29.519531 -24.546875 29.1875 -24.359375 C 28.863281 -24.171875 28.441406 -24.003906 27.921875 -23.859375 C 27.410156 -23.722656 26.789062 -23.582031 26.0625 -23.4375 C 25.34375 -23.300781 24.445312 -23.140625 23.375 -22.953125 C 24.632812 -22.679688 25.6875 -22.425781 26.53125 -22.1875 C 27.375 -21.957031 28.070312 -21.722656 28.625 -21.484375 C 29.1875 -21.253906 29.640625 -20.988281 29.984375 -20.6875 C 30.335938 -20.382812 30.679688 -20.019531 31.015625 -19.59375 C 31.992188 -18.195312 32.484375 -16.003906 32.484375 -13.015625 L 32.484375 -10.078125 C 32.484375 -5.828125 31.828125 -2.984375 30.515625 -1.546875 C 30.234375 -1.210938 29.929688 -0.953125 29.609375 -0.765625 C 29.285156 -0.578125 28.878906 -0.425781 28.390625 -0.3125 C 27.898438 -0.195312 27.289062 -0.113281 26.5625 -0.0625 C 25.84375 -0.0195312 24.945312 0 23.875 0 L 2.234375 0 Z M 14.765625 -36.40625 L 14.765625 -28.34375 L 17.078125 -28.34375 C 19.085938 -28.34375 20.09375 -29.554688 20.09375 -31.984375 C 20.09375 -33.578125 19.859375 -34.710938 19.390625 -35.390625 C 18.921875 -36.066406 18.128906 -36.40625 17.015625 -36.40625 Z M 16.59375 -10.078125 C 17.800781 -10.078125 18.6875 -10.367188 19.25 -10.953125 C 19.8125 -11.535156 20.09375 -12.503906 20.09375 -13.859375 C 20.09375 -15.492188 19.847656 -16.613281 19.359375 -17.21875 C 18.867188 -17.820312 17.945312 -18.125 16.59375 -18.125 L 14.765625 -18.125 L 14.765625 -10.078125 Z M 16.59375 -10.078125 "/></g></g></g><g fill="#ff00ff" fill-opacity="1"><g transform="translate(94.83317, 211.499986)"><g><path d="M 2.234375 -46.6875 L 21.34375 -46.6875 C 22.9375 -46.6875 24.195312 -46.675781 25.125 -46.65625 C 26.0625 -46.632812 26.804688 -46.585938 27.359375 -46.515625 C 27.921875 -46.441406 28.363281 -46.332031 28.6875 -46.1875 C 29.019531 -46.050781 29.375 -45.867188 29.75 -45.640625 C 31.613281 -44.421875 32.546875 -41.757812 32.546875 -37.65625 L 32.546875 -34.65625 C 32.546875 -33.488281 32.535156 -32.503906 32.515625 -31.703125 C 32.492188 -30.910156 32.4375 -30.234375 32.34375 -29.671875 C 32.25 -29.117188 32.117188 -28.628906 31.953125 -28.203125 C 31.785156 -27.785156 31.566406 -27.367188 31.296875 -26.953125 C 30.734375 -26.015625 30.039062 -25.320312 29.21875 -24.875 C 28.40625 -24.4375 27.226562 -24.125 25.6875 -23.9375 C 27.09375 -23.519531 28.238281 -23.085938 29.125 -22.640625 C 30.007812 -22.203125 30.707031 -21.644531 31.21875 -20.96875 C 31.726562 -20.289062 32.078125 -19.484375 32.265625 -18.546875 C 32.453125 -17.617188 32.546875 -16.453125 32.546875 -15.046875 L 32.546875 -7.84375 C 32.546875 -4.988281 32.875 -2.375 33.53125 0 L 21 0 C 20.625 -1.207031 20.363281 -2.375 20.21875 -3.5 C 20.082031 -4.625 20.015625 -6.070312 20.015625 -7.84375 L 20.015625 -14.0625 C 20.015625 -15.5625 19.734375 -16.632812 19.171875 -17.28125 C 18.617188 -17.9375 17.6875 -18.265625 16.375 -18.265625 L 14.765625 -18.265625 L 14.765625 0 L 2.234375 0 Z M 16.515625 -28.421875 C 17.960938 -28.421875 18.921875 -28.675781 19.390625 -29.1875 C 19.859375 -29.695312 20.09375 -30.769531 20.09375 -32.40625 C 20.09375 -33.945312 19.832031 -35.019531 19.3125 -35.625 C 18.800781 -36.238281 17.867188 -36.546875 16.515625 -36.546875 L 14.765625 -36.546875 L 14.765625 -28.421875 Z M 16.515625 -28.421875 "/></g></g></g><g fill="#ff00ff" fill-opacity="1"><g transform="translate(129.621273, 211.499986)"><g><path d="M 2.234375 -46.6875 L 14.765625 -46.6875 L 14.765625 0 L 2.234375 0 Z M 2.234375 -46.6875 "/></g></g></g><g fill="#ff00ff" fill-opacity="1"><g transform="translate(146.63034, 211.499986)"><g><path d="M 14.203125 0 C 12.710938 0 11.535156 -0.0078125 10.671875 -0.03125 C 9.804688 -0.0507812 9.128906 -0.0820312 8.640625 -0.125 C 8.148438 -0.175781 7.773438 -0.210938 7.515625 -0.234375 C 7.265625 -0.265625 7 -0.328125 6.71875 -0.421875 C 5.738281 -0.703125 4.929688 -1.15625 4.296875 -1.78125 C 3.671875 -2.414062 3.171875 -3.347656 2.796875 -4.578125 C 2.421875 -5.816406 2.160156 -7.414062 2.015625 -9.375 C 1.878906 -11.332031 1.8125 -13.804688 1.8125 -16.796875 L 1.8125 -31.703125 C 1.8125 -32.359375 1.832031 -33.128906 1.875 -34.015625 C 1.925781 -34.898438 1.988281 -35.765625 2.0625 -36.609375 C 2.132812 -37.453125 2.203125 -38.242188 2.265625 -38.984375 C 2.335938 -39.734375 2.421875 -40.296875 2.515625 -40.671875 C 2.847656 -42.304688 3.375 -43.550781 4.09375 -44.40625 C 4.820312 -45.269531 5.835938 -45.890625 7.140625 -46.265625 C 7.421875 -46.316406 7.710938 -46.363281 8.015625 -46.40625 C 8.316406 -46.457031 8.710938 -46.503906 9.203125 -46.546875 C 9.691406 -46.597656 10.332031 -46.632812 11.125 -46.65625 C 11.914062 -46.675781 12.941406 -46.6875 14.203125 -46.6875 L 22.1875 -46.6875 L 22.1875 -36.546875 L 19.953125 -36.546875 C 19.109375 -36.546875 18.429688 -36.53125 17.921875 -36.5 C 17.410156 -36.476562 16.988281 -36.441406 16.65625 -36.390625 C 16.332031 -36.347656 16.066406 -36.253906 15.859375 -36.109375 C 15.648438 -35.972656 15.453125 -35.8125 15.265625 -35.625 C 14.835938 -35.207031 14.578125 -34.726562 14.484375 -34.1875 C 14.390625 -33.65625 14.34375 -32.550781 14.34375 -30.875 L 14.34375 -15.8125 C 14.34375 -14.132812 14.398438 -13.023438 14.515625 -12.484375 C 14.640625 -11.953125 14.890625 -11.476562 15.265625 -11.0625 C 15.453125 -10.820312 15.648438 -10.644531 15.859375 -10.53125 C 16.066406 -10.414062 16.332031 -10.332031 16.65625 -10.28125 C 16.988281 -10.238281 17.410156 -10.207031 17.921875 -10.1875 C 18.429688 -10.164062 19.109375 -10.15625 19.953125 -10.15625 L 22.546875 -10.15625 L 22.546875 0 Z M 14.203125 0 "/></g></g></g><g fill="#ff00ff" fill-opacity="1"><g transform="translate(169.869066, 211.499986)"><g><path d="M 2.234375 -46.6875 L 14.765625 -46.6875 L 14.765625 0 L 2.234375 0 Z M 2.234375 -46.6875 "/></g></g></g><g fill="#ff00ff" fill-opacity="1"><g transform="translate(186.878132, 211.499986)"><g><path d="M 14.203125 0 C 11.410156 0 9.171875 -0.40625 7.484375 -1.21875 C 5.804688 -2.039062 4.546875 -3.335938 3.703125 -5.109375 C 3.335938 -5.898438 3.035156 -6.703125 2.796875 -7.515625 C 2.566406 -8.335938 2.378906 -9.273438 2.234375 -10.328125 C 2.097656 -11.378906 1.992188 -12.59375 1.921875 -13.96875 C 1.847656 -15.34375 1.8125 -17.007812 1.8125 -18.96875 L 1.8125 -27.71875 C 1.8125 -29.675781 1.847656 -31.34375 1.921875 -32.71875 C 1.992188 -34.101562 2.097656 -35.316406 2.234375 -36.359375 C 2.378906 -37.410156 2.566406 -38.34375 2.796875 -39.15625 C 3.035156 -39.976562 3.335938 -40.785156 3.703125 -41.578125 C 4.546875 -43.347656 5.804688 -44.640625 7.484375 -45.453125 C 9.171875 -46.273438 11.410156 -46.6875 14.203125 -46.6875 L 19.8125 -46.6875 C 22.613281 -46.6875 24.851562 -46.273438 26.53125 -45.453125 C 28.207031 -44.640625 29.46875 -43.347656 30.3125 -41.578125 C 30.6875 -40.785156 30.988281 -39.976562 31.21875 -39.15625 C 31.445312 -38.34375 31.628906 -37.410156 31.765625 -36.359375 C 31.910156 -35.316406 32.019531 -34.101562 32.09375 -32.71875 C 32.164062 -31.34375 32.203125 -29.675781 32.203125 -27.71875 L 32.203125 -18.96875 C 32.203125 -17.007812 32.164062 -15.34375 32.09375 -13.96875 C 32.019531 -12.59375 31.910156 -11.378906 31.765625 -10.328125 C 31.628906 -9.273438 31.445312 -8.335938 31.21875 -7.515625 C 30.988281 -6.703125 30.6875 -5.898438 30.3125 -5.109375 C 29.46875 -3.335938 28.207031 -2.039062 26.53125 -1.21875 C 24.851562 -0.40625 22.613281 0 19.8125 0 Z M 19.671875 -33.3125 C 19.671875 -34.4375 19.425781 -35.335938 18.9375 -36.015625 C 18.445312 -36.691406 17.804688 -37.03125 17.015625 -37.03125 C 16.210938 -37.03125 15.566406 -36.691406 15.078125 -36.015625 C 14.585938 -35.335938 14.34375 -34.4375 14.34375 -33.3125 L 14.34375 -13.234375 C 14.34375 -12.066406 14.585938 -11.15625 15.078125 -10.5 C 15.566406 -9.84375 16.210938 -9.515625 17.015625 -9.515625 C 17.804688 -9.515625 18.445312 -9.84375 18.9375 -10.5 C 19.425781 -11.15625 19.671875 -12.066406 19.671875 -13.234375 Z M 19.671875 -33.3125 "/></g></g></g><g fill="#ff00ff" fill-opacity="1"><g transform="translate(220.826273, 211.499986)"><g><path d="M 2.234375 -46.6875 L 19.875 -46.6875 C 21.132812 -46.6875 22.113281 -46.675781 22.8125 -46.65625 C 23.519531 -46.632812 24.070312 -46.625 24.46875 -46.625 C 24.863281 -46.625 25.140625 -46.609375 25.296875 -46.578125 C 25.460938 -46.554688 25.664062 -46.523438 25.90625 -46.484375 C 28.65625 -46.054688 30.519531 -44.84375 31.5 -42.84375 C 31.875 -42.050781 32.15625 -40.613281 32.34375 -38.53125 C 32.53125 -36.457031 32.625 -33.953125 32.625 -31.015625 L 32.625 -18.40625 C 32.625 -16.03125 32.550781 -13.722656 32.40625 -11.484375 C 32.269531 -9.242188 32.082031 -7.445312 31.84375 -6.09375 C 31.195312 -2.351562 29.144531 -0.367188 25.6875 -0.140625 C 25.550781 -0.140625 25.109375 -0.125 24.359375 -0.09375 C 23.609375 -0.0703125 22.113281 -0.0390625 19.875 0 L 2.234375 0 Z M 17.015625 -10.296875 C 18.316406 -10.296875 19.15625 -10.550781 19.53125 -11.0625 C 19.90625 -11.570312 20.09375 -12.664062 20.09375 -14.34375 L 20.09375 -32.40625 C 20.09375 -34.132812 19.90625 -35.253906 19.53125 -35.765625 C 19.15625 -36.285156 18.316406 -36.546875 17.015625 -36.546875 L 14.765625 -36.546875 L 14.765625 -10.296875 Z M 17.015625 -10.296875 "/></g></g></g><g fill="#ff00ff" fill-opacity="1"><g transform="translate(255.264381, 211.499986)"><g><path d="M 14.203125 0 C 12.710938 0 11.535156 -0.0078125 10.671875 -0.03125 C 9.804688 -0.0507812 9.128906 -0.0820312 8.640625 -0.125 C 8.148438 -0.175781 7.773438 -0.210938 7.515625 -0.234375 C 7.265625 -0.265625 7 -0.328125 6.71875 -0.421875 C 5.738281 -0.703125 4.929688 -1.15625 4.296875 -1.78125 C 3.671875 -2.414062 3.171875 -3.347656 2.796875 -4.578125 C 2.421875 -5.816406 2.160156 -7.414062 2.015625 -9.375 C 1.878906 -11.332031 1.8125 -13.804688 1.8125 -16.796875 L 1.8125 -31.703125 C 1.8125 -32.410156 1.832031 -33.191406 1.875 -34.046875 C 1.925781 -34.910156 1.988281 -35.765625 2.0625 -36.609375 C 2.132812 -37.453125 2.203125 -38.234375 2.265625 -38.953125 C 2.335938 -39.679688 2.421875 -40.253906 2.515625 -40.671875 C 2.847656 -42.304688 3.375 -43.550781 4.09375 -44.40625 C 4.820312 -45.269531 5.835938 -45.890625 7.140625 -46.265625 C 7.421875 -46.316406 7.710938 -46.363281 8.015625 -46.40625 C 8.316406 -46.457031 8.710938 -46.503906 9.203125 -46.546875 C 9.691406 -46.597656 10.332031 -46.632812 11.125 -46.65625 C 11.914062 -46.675781 12.941406 -46.6875 14.203125 -46.6875 L 25.90625 -46.6875 L 25.90625 -36.546875 L 14.34375 -36.546875 L 14.34375 -28.421875 L 25.90625 -28.421875 L 25.90625 -18.265625 L 14.34375 -18.265625 L 14.34375 -10.15625 L 25.90625 -10.15625 L 25.90625 0 Z M 14.203125 0 "/></g></g></g><g fill="#ff00ff" fill-opacity="1"><g transform="translate(282.982862, 211.499986)"><g><path d="M 10.15625 0 C 7.488281 -4.664062 5.429688 -9.226562 3.984375 -13.6875 C 2.535156 -18.144531 1.8125 -22.191406 1.8125 -25.828125 L 1.8125 -46.6875 L 14.34375 -46.6875 L 14.34375 -13.15625 C 14.34375 -11.800781 14.539062 -10.84375 14.9375 -10.28125 C 15.34375 -9.726562 16.007812 -9.453125 16.9375 -9.453125 C 17.820312 -9.453125 18.460938 -9.726562 18.859375 -10.28125 C 19.253906 -10.84375 19.453125 -11.800781 19.453125 -13.15625 L 19.453125 -46.6875 L 31.984375 -46.6875 L 31.984375 -25.828125 C 31.984375 -22.191406 31.257812 -18.109375 29.8125 -13.578125 C 28.375 -9.054688 26.320312 -4.53125 23.65625 0 Z M 10.15625 0 "/></g></g></g><g fill="#00ffff" fill-opacity="1"><g transform="translate(58.260037, 211.499986)"><g><path d="M 2.234375 -46.6875 L 22.953125 -46.6875 C 24.828125 -46.6875 26.378906 -46.546875 27.609375 -46.265625 C 28.847656 -45.984375 29.828125 -45.46875 30.546875 -44.71875 C 31.273438 -43.976562 31.78125 -42.988281 32.0625 -41.75 C 32.34375 -40.519531 32.484375 -38.945312 32.484375 -37.03125 L 32.484375 -34.578125 C 32.484375 -33.128906 32.445312 -31.890625 32.375 -30.859375 C 32.300781 -29.835938 32.171875 -28.953125 31.984375 -28.203125 C 31.796875 -27.460938 31.550781 -26.847656 31.25 -26.359375 C 30.945312 -25.867188 30.585938 -25.4375 30.171875 -25.0625 C 29.847656 -24.78125 29.519531 -24.546875 29.1875 -24.359375 C 28.863281 -24.171875 28.441406 -24.003906 27.921875 -23.859375 C 27.410156 -23.722656 26.789062 -23.582031 26.0625 -23.4375 C 25.34375 -23.300781 24.445312 -23.140625 23.375 -22.953125 C 24.632812 -22.679688 25.6875 -22.425781 26.53125 -22.1875 C 27.375 -21.957031 28.070312 -21.722656 28.625 -21.484375 C 29.1875 -21.253906 29.640625 -20.988281 29.984375 -20.6875 C 30.335938 -20.382812 30.679688 -20.019531 31.015625 -19.59375 C 31.992188 -18.195312 32.484375 -16.003906 32.484375 -13.015625 L 32.484375 -10.078125 C 32.484375 -5.828125 31.828125 -2.984375 30.515625 -1.546875 C 30.234375 -1.210938 29.929688 -0.953125 29.609375 -0.765625 C 29.285156 -0.578125 28.878906 -0.425781 28.390625 -0.3125 C 27.898438 -0.195312 27.289062 -0.113281 26.5625 -0.0625 C 25.84375 -0.0195312 24.945312 0 23.875 0 L 2.234375 0 Z M 14.765625 -36.40625 L 14.765625 -28.34375 L 17.078125 -28.34375 C 19.085938 -28.34375 20.09375 -29.554688 20.09375 -31.984375 C 20.09375 -33.578125 19.859375 -34.710938 19.390625 -35.390625 C 18.921875 -36.066406 18.128906 -36.40625 17.015625 -36.40625 Z M 16.59375 -10.078125 C 17.800781 -10.078125 18.6875 -10.367188 19.25 -10.953125 C 19.8125 -11.535156 20.09375 -12.503906 20.09375 -13.859375 C 20.09375 -15.492188 19.847656 -16.613281 19.359375 -17.21875 C 18.867188 -17.820312 17.945312 -18.125 16.59375 -18.125 L 14.765625 -18.125 L 14.765625 -10.078125 Z M 16.59375 -10.078125 "/></g></g></g><g fill="#00ffff" fill-opacity="1"><g transform="translate(92.208178, 211.499986)"><g><path d="M 2.234375 -46.6875 L 21.34375 -46.6875 C 22.9375 -46.6875 24.195312 -46.675781 25.125 -46.65625 C 26.0625 -46.632812 26.804688 -46.585938 27.359375 -46.515625 C 27.921875 -46.441406 28.363281 -46.332031 28.6875 -46.1875 C 29.019531 -46.050781 29.375 -45.867188 29.75 -45.640625 C 31.613281 -44.421875 32.546875 -41.757812 32.546875 -37.65625 L 32.546875 -34.65625 C 32.546875 -33.488281 32.535156 -32.503906 32.515625 -31.703125 C 32.492188 -30.910156 32.4375 -30.234375 32.34375 -29.671875 C 32.25 -29.117188 32.117188 -28.628906 31.953125 -28.203125 C 31.785156 -27.785156 31.566406 -27.367188 31.296875 -26.953125 C 30.734375 -26.015625 30.039062 -25.320312 29.21875 -24.875 C 28.40625 -24.4375 27.226562 -24.125 25.6875 -23.9375 C 27.09375 -23.519531 28.238281 -23.085938 29.125 -22.640625 C 30.007812 -22.203125 30.707031 -21.644531 31.21875 -20.96875 C 31.726562 -20.289062 32.078125 -19.484375 32.265625 -18.546875 C 32.453125 -17.617188 32.546875 -16.453125 32.546875 -15.046875 L 32.546875 -7.84375 C 32.546875 -4.988281 32.875 -2.375 33.53125 0 L 21 0 C 20.625 -1.207031 20.363281 -2.375 20.21875 -3.5 C 20.082031 -4.625 20.015625 -6.070312 20.015625 -7.84375 L 20.015625 -14.0625 C 20.015625 -15.5625 19.734375 -16.632812 19.171875 -17.28125 C 18.617188 -17.9375 17.6875 -18.265625 16.375 -18.265625 L 14.765625 -18.265625 L 14.765625 0 L 2.234375 0 Z M 16.515625 -28.421875 C 17.960938 -28.421875 18.921875 -28.675781 19.390625 -29.1875 C 19.859375 -29.695312 20.09375 -30.769531 20.09375 -32.40625 C 20.09375 -33.945312 19.832031 -35.019531 19.3125 -35.625 C 18.800781 -36.238281 17.867188 -36.546875 16.515625 -36.546875 L 14.765625 -36.546875 L 14.765625 -28.421875 Z M 16.515625 -28.421875 "/></g></g></g><g fill="#00ffff" fill-opacity="1"><g transform="translate(126.996281, 211.499986)"><g><path d="M 2.234375 -46.6875 L 14.765625 -46.6875 L 14.765625 0 L 2.234375 0 Z M 2.234375 -46.6875 "/></g></g></g><g fill="#00ffff" fill-opacity="1"><g transform="translate(144.005347, 211.499986)"><g><path d="M 14.203125 0 C 12.710938 0 11.535156 -0.0078125 10.671875 -0.03125 C 9.804688 -0.0507812 9.128906 -0.0820312 8.640625 -0.125 C 8.148438 -0.175781 7.773438 -0.210938 7.515625 -0.234375 C 7.265625 -0.265625 7 -0.328125 6.71875 -0.421875 C 5.738281 -0.703125 4.929688 -1.15625 4.296875 -1.78125 C 3.671875 -2.414062 3.171875 -3.347656 2.796875 -4.578125 C 2.421875 -5.816406 2.160156 -7.414062 2.015625 -9.375 C 1.878906 -11.332031 1.8125 -13.804688 1.8125 -16.796875 L 1.8125 -31.703125 C 1.8125 -32.359375 1.832031 -33.128906 1.875 -34.015625 C 1.925781 -34.898438 1.988281 -35.765625 2.0625 -36.609375 C 2.132812 -37.453125 2.203125 -38.242188 2.265625 -38.984375 C 2.335938 -39.734375 2.421875 -40.296875 2.515625 -40.671875 C 2.847656 -42.304688 3.375 -43.550781 4.09375 -44.40625 C 4.820312 -45.269531 5.835938 -45.890625 7.140625 -46.265625 C 7.421875 -46.316406 7.710938 -46.363281 8.015625 -46.40625 C 8.316406 -46.457031 8.710938 -46.503906 9.203125 -46.546875 C 9.691406 -46.597656 10.332031 -46.632812 11.125 -46.65625 C 11.914062 -46.675781 12.941406 -46.6875 14.203125 -46.6875 L 22.1875 -46.6875 L 22.1875 -36.546875 L 19.953125 -36.546875 C 19.109375 -36.546875 18.429688 -36.53125 17.921875 -36.5 C 17.410156 -36.476562 16.988281 -36.441406 16.65625 -36.390625 C 16.332031 -36.347656 16.066406 -36.253906 15.859375 -36.109375 C 15.648438 -35.972656 15.453125 -35.8125 15.265625 -35.625 C 14.835938 -35.207031 14.578125 -34.726562 14.484375 -34.1875 C 14.390625 -33.65625 14.34375 -32.550781 14.34375 -30.875 L 14.34375 -15.8125 C 14.34375 -14.132812 14.398438 -13.023438 14.515625 -12.484375 C 14.640625 -11.953125 14.890625 -11.476562 15.265625 -11.0625 C 15.453125 -10.820312 15.648438 -10.644531 15.859375 -10.53125 C 16.066406 -10.414062 16.332031 -10.332031 16.65625 -10.28125 C 16.988281 -10.238281 17.410156 -10.207031 17.921875 -10.1875 C 18.429688 -10.164062 19.109375 -10.15625 19.953125 -10.15625 L 22.546875 -10.15625 L 22.546875 0 Z M 14.203125 0 "/></g></g></g><g fill="#00ffff" fill-opacity="1"><g transform="translate(167.244073, 211.499986)"><g><path d="M 2.234375 -46.6875 L 14.765625 -46.6875 L 14.765625 0 L 2.234375 0 Z M 2.234375 -46.6875 "/></g></g></g><g fill="#00ffff" fill-opacity="1"><g transform="translate(184.25314, 211.499986)"><g><path d="M 14.203125 0 C 11.410156 0 9.171875 -0.40625 7.484375 -1.21875 C 5.804688 -2.039062 4.546875 -3.335938 3.703125 -5.109375 C 3.335938 -5.898438 3.035156 -6.703125 2.796875 -7.515625 C 2.566406 -8.335938 2.378906 -9.273438 2.234375 -10.328125 C 2.097656 -11.378906 1.992188 -12.59375 1.921875 -13.96875 C 1.847656 -15.34375 1.8125 -17.007812 1.8125 -18.96875 L 1.8125 -27.71875 C 1.8125 -29.675781 1.847656 -31.34375 1.921875 -32.71875 C 1.992188 -34.101562 2.097656 -35.316406 2.234375 -36.359375 C 2.378906 -37.410156 2.566406 -38.34375 2.796875 -39.15625 C 3.035156 -39.976562 3.335938 -40.785156 3.703125 -41.578125 C 4.546875 -43.347656 5.804688 -44.640625 7.484375 -45.453125 C 9.171875 -46.273438 11.410156 -46.6875 14.203125 -46.6875 L 19.8125 -46.6875 C 22.613281 -46.6875 24.851562 -46.273438 26.53125 -45.453125 C 28.207031 -44.640625 29.46875 -43.347656 30.3125 -41.578125 C 30.6875 -40.785156 30.988281 -39.976562 31.21875 -39.15625 C 31.445312 -38.34375 31.628906 -37.410156 31.765625 -36.359375 C 31.910156 -35.316406 32.019531 -34.101562 32.09375 -32.71875 C 32.164062 -31.34375 32.203125 -29.675781 32.203125 -27.71875 L 32.203125 -18.96875 C 32.203125 -17.007812 32.164062 -15.34375 32.09375 -13.96875 C 32.019531 -12.59375 31.910156 -11.378906 31.765625 -10.328125 C 31.628906 -9.273438 31.445312 -8.335938 31.21875 -7.515625 C 30.988281 -6.703125 30.6875 -5.898438 30.3125 -5.109375 C 29.46875 -3.335938 28.207031 -2.039062 26.53125 -1.21875 C 24.851562 -0.40625 22.613281 0 19.8125 0 Z M 19.671875 -33.3125 C 19.671875 -34.4375 19.425781 -35.335938 18.9375 -36.015625 C 18.445312 -36.691406 17.804688 -37.03125 17.015625 -37.03125 C 16.210938 -37.03125 15.566406 -36.691406 15.078125 -36.015625 C 14.585938 -35.335938 14.34375 -34.4375 14.34375 -33.3125 L 14.34375 -13.234375 C 14.34375 -12.066406 14.585938 -11.15625 15.078125 -10.5 C 15.566406 -9.84375 16.210938 -9.515625 17.015625 -9.515625 C 17.804688 -9.515625 18.445312 -9.84375 18.9375 -10.5 C 19.425781 -11.15625 19.671875 -12.066406 19.671875 -13.234375 Z M 19.671875 -33.3125 "/></g></g></g><g fill="#00ffff" fill-opacity="1"><g transform="translate(218.201281, 211.499986)"><g><path d="M 2.234375 -46.6875 L 19.875 -46.6875 C 21.132812 -46.6875 22.113281 -46.675781 22.8125 -46.65625 C 23.519531 -46.632812 24.070312 -46.625 24.46875 -46.625 C 24.863281 -46.625 25.140625 -46.609375 25.296875 -46.578125 C 25.460938 -46.554688 25.664062 -46.523438 25.90625 -46.484375 C 28.65625 -46.054688 30.519531 -44.84375 31.5 -42.84375 C 31.875 -42.050781 32.15625 -40.613281 32.34375 -38.53125 C 32.53125 -36.457031 32.625 -33.953125 32.625 -31.015625 L 32.625 -18.40625 C 32.625 -16.03125 32.550781 -13.722656 32.40625 -11.484375 C 32.269531 -9.242188 32.082031 -7.445312 31.84375 -6.09375 C 31.195312 -2.351562 29.144531 -0.367188 25.6875 -0.140625 C 25.550781 -0.140625 25.109375 -0.125 24.359375 -0.09375 C 23.609375 -0.0703125 22.113281 -0.0390625 19.875 0 L 2.234375 0 Z M 17.015625 -10.296875 C 18.316406 -10.296875 19.15625 -10.550781 19.53125 -11.0625 C 19.90625 -11.570312 20.09375 -12.664062 20.09375 -14.34375 L 20.09375 -32.40625 C 20.09375 -34.132812 19.90625 -35.253906 19.53125 -35.765625 C 19.15625 -36.285156 18.316406 -36.546875 17.015625 -36.546875 L 14.765625 -36.546875 L 14.765625 -10.296875 Z M 17.015625 -10.296875 "/></g></g></g><g fill="#00ffff" fill-opacity="1"><g transform="translate(252.639389, 211.499986)"><g><path d="M 14.203125 0 C 12.710938 0 11.535156 -0.0078125 10.671875 -0.03125 C 9.804688 -0.0507812 9.128906 -0.0820312 8.640625 -0.125 C 8.148438 -0.175781 7.773438 -0.210938 7.515625 -0.234375 C 7.265625 -0.265625 7 -0.328125 6.71875 -0.421875 C 5.738281 -0.703125 4.929688 -1.15625 4.296875 -1.78125 C 3.671875 -2.414062 3.171875 -3.347656 2.796875 -4.578125 C 2.421875 -5.816406 2.160156 -7.414062 2.015625 -9.375 C 1.878906 -11.332031 1.8125 -13.804688 1.8125 -16.796875 L 1.8125 -31.703125 C 1.8125 -32.410156 1.832031 -33.191406 1.875 -34.046875 C 1.925781 -34.910156 1.988281 -35.765625 2.0625 -36.609375 C 2.132812 -37.453125 2.203125 -38.234375 2.265625 -38.953125 C 2.335938 -39.679688 2.421875 -40.253906 2.515625 -40.671875 C 2.847656 -42.304688 3.375 -43.550781 4.09375 -44.40625 C 4.820312 -45.269531 5.835938 -45.890625 7.140625 -46.265625 C 7.421875 -46.316406 7.710938 -46.363281 8.015625 -46.40625 C 8.316406 -46.457031 8.710938 -46.503906 9.203125 -46.546875 C 9.691406 -46.597656 10.332031 -46.632812 11.125 -46.65625 C 11.914062 -46.675781 12.941406 -46.6875 14.203125 -46.6875 L 25.90625 -46.6875 L 25.90625 -36.546875 L 14.34375 -36.546875 L 14.34375 -28.421875 L 25.90625 -28.421875 L 25.90625 -18.265625 L 14.34375 -18.265625 L 14.34375 -10.15625 L 25.90625 -10.15625 L 25.90625 0 Z M 14.203125 0 "/></g></g></g><g fill="#00ffff" fill-opacity="1"><g transform="translate(280.357869, 211.499986)"><g><path d="M 10.15625 0 C 7.488281 -4.664062 5.429688 -9.226562 3.984375 -13.6875 C 2.535156 -18.144531 1.8125 -22.191406 1.8125 -25.828125 L 1.8125 -46.6875 L 14.34375 -46.6875 L 14.34375 -13.15625 C 14.34375 -11.800781 14.539062 -10.84375 14.9375 -10.28125 C 15.34375 -9.726562 16.007812 -9.453125 16.9375 -9.453125 C 17.820312 -9.453125 18.460938 -9.726562 18.859375 -10.28125 C 19.253906 -10.84375 19.453125 -11.800781 19.453125 -13.15625 L 19.453125 -46.6875 L 31.984375 -46.6875 L 31.984375 -25.828125 C 31.984375 -22.191406 31.257812 -18.109375 29.8125 -13.578125 C 28.375 -9.054688 26.320312 -4.53125 23.65625 0 Z M 10.15625 0 "/></g></g></g><g fill="#f2fcfc" fill-opacity="1"><g transform="translate(59.572534, 211.499986)"><g><path d="M 2.234375 -46.6875 L 22.953125 -46.6875 C 24.828125 -46.6875 26.378906 -46.546875 27.609375 -46.265625 C 28.847656 -45.984375 29.828125 -45.46875 30.546875 -44.71875 C 31.273438 -43.976562 31.78125 -42.988281 32.0625 -41.75 C 32.34375 -40.519531 32.484375 -38.945312 32.484375 -37.03125 L 32.484375 -34.578125 C 32.484375 -33.128906 32.445312 -31.890625 32.375 -30.859375 C 32.300781 -29.835938 32.171875 -28.953125 31.984375 -28.203125 C 31.796875 -27.460938 31.550781 -26.847656 31.25 -26.359375 C 30.945312 -25.867188 30.585938 -25.4375 30.171875 -25.0625 C 29.847656 -24.78125 29.519531 -24.546875 29.1875 -24.359375 C 28.863281 -24.171875 28.441406 -24.003906 27.921875 -23.859375 C 27.410156 -23.722656 26.789062 -23.582031 26.0625 -23.4375 C 25.34375 -23.300781 24.445312 -23.140625 23.375 -22.953125 C 24.632812 -22.679688 25.6875 -22.425781 26.53125 -22.1875 C 27.375 -21.957031 28.070312 -21.722656 28.625 -21.484375 C 29.1875 -21.253906 29.640625 -20.988281 29.984375 -20.6875 C 30.335938 -20.382812 30.679688 -20.019531 31.015625 -19.59375 C 31.992188 -18.195312 32.484375 -16.003906 32.484375 -13.015625 L 32.484375 -10.078125 C 32.484375 -5.828125 31.828125 -2.984375 30.515625 -1.546875 C 30.234375 -1.210938 29.929688 -0.953125 29.609375 -0.765625 C 29.285156 -0.578125 28.878906 -0.425781 28.390625 -0.3125 C 27.898438 -0.195312 27.289062 -0.113281 26.5625 -0.0625 C 25.84375 -0.0195312 24.945312 0 23.875 0 L 2.234375 0 Z M 14.765625 -36.40625 L 14.765625 -28.34375 L 17.078125 -28.34375 C 19.085938 -28.34375 20.09375 -29.554688 20.09375 -31.984375 C 20.09375 -33.578125 19.859375 -34.710938 19.390625 -35.390625 C 18.921875 -36.066406 18.128906 -36.40625 17.015625 -36.40625 Z M 16.59375 -10.078125 C 17.800781 -10.078125 18.6875 -10.367188 19.25 -10.953125 C 19.8125 -11.535156 20.09375 -12.503906 20.09375 -13.859375 C 20.09375 -15.492188 19.847656 -16.613281 19.359375 -17.21875 C 18.867188 -17.820312 17.945312 -18.125 16.59375 -18.125 L 14.765625 -18.125 L 14.765625 -10.078125 Z M 16.59375 -10.078125 "/></g></g></g><g fill="#f2fcfc" fill-opacity="1"><g transform="translate(93.520675, 211.499986)"><g><path d="M 2.234375 -46.6875 L 21.34375 -46.6875 C 22.9375 -46.6875 24.195312 -46.675781 25.125 -46.65625 C 26.0625 -46.632812 26.804688 -46.585938 27.359375 -46.515625 C 27.921875 -46.441406 28.363281 -46.332031 28.6875 -46.1875 C 29.019531 -46.050781 29.375 -45.867188 29.75 -45.640625 C 31.613281 -44.421875 32.546875 -41.757812 32.546875 -37.65625 L 32.546875 -34.65625 C 32.546875 -33.488281 32.535156 -32.503906 32.515625 -31.703125 C 32.492188 -30.910156 32.4375 -30.234375 32.34375 -29.671875 C 32.25 -29.117188 32.117188 -28.628906 31.953125 -28.203125 C 31.785156 -27.785156 31.566406 -27.367188 31.296875 -26.953125 C 30.734375 -26.015625 30.039062 -25.320312 29.21875 -24.875 C 28.40625 -24.4375 27.226562 -24.125 25.6875 -23.9375 C 27.09375 -23.519531 28.238281 -23.085938 29.125 -22.640625 C 30.007812 -22.203125 30.707031 -21.644531 31.21875 -20.96875 C 31.726562 -20.289062 32.078125 -19.484375 32.265625 -18.546875 C 32.453125 -17.617188 32.546875 -16.453125 32.546875 -15.046875 L 32.546875 -7.84375 C 32.546875 -4.988281 32.875 -2.375 33.53125 0 L 21 0 C 20.625 -1.207031 20.363281 -2.375 20.21875 -3.5 C 20.082031 -4.625 20.015625 -6.070312 20.015625 -7.84375 L 20.015625 -14.0625 C 20.015625 -15.5625 19.734375 -16.632812 19.171875 -17.28125 C 18.617188 -17.9375 17.6875 -18.265625 16.375 -18.265625 L 14.765625 -18.265625 L 14.765625 0 L 2.234375 0 Z M 16.515625 -28.421875 C 17.960938 -28.421875 18.921875 -28.675781 19.390625 -29.1875 C 19.859375 -29.695312 20.09375 -30.769531 20.09375 -32.40625 C 20.09375 -33.945312 19.832031 -35.019531 19.3125 -35.625 C 18.800781 -36.238281 17.867188 -36.546875 16.515625 -36.546875 L 14.765625 -36.546875 L 14.765625 -28.421875 Z M 16.515625 -28.421875 "/></g></g></g><g fill="#f2fcfc" fill-opacity="1"><g transform="translate(128.308778, 211.499986)"><g><path d="M 2.234375 -46.6875 L 14.765625 -46.6875 L 14.765625 0 L 2.234375 0 Z M 2.234375 -46.6875 "/></g></g></g><g fill="#f2fcfc" fill-opacity="1"><g transform="translate(145.317845, 211.499986)"><g><path d="M 14.203125 0 C 12.710938 0 11.535156 -0.0078125 10.671875 -0.03125 C 9.804688 -0.0507812 9.128906 -0.0820312 8.640625 -0.125 C 8.148438 -0.175781 7.773438 -0.210938 7.515625 -0.234375 C 7.265625 -0.265625 7 -0.328125 6.71875 -0.421875 C 5.738281 -0.703125 4.929688 -1.15625 4.296875 -1.78125 C 3.671875 -2.414062 3.171875 -3.347656 2.796875 -4.578125 C 2.421875 -5.816406 2.160156 -7.414062 2.015625 -9.375 C 1.878906 -11.332031 1.8125 -13.804688 1.8125 -16.796875 L 1.8125 -31.703125 C 1.8125 -32.359375 1.832031 -33.128906 1.875 -34.015625 C 1.925781 -34.898438 1.988281 -35.765625 2.0625 -36.609375 C 2.132812 -37.453125 2.203125 -38.242188 2.265625 -38.984375 C 2.335938 -39.734375 2.421875 -40.296875 2.515625 -40.671875 C 2.847656 -42.304688 3.375 -43.550781 4.09375 -44.40625 C 4.820312 -45.269531 5.835938 -45.890625 7.140625 -46.265625 C 7.421875 -46.316406 7.710938 -46.363281 8.015625 -46.40625 C 8.316406 -46.457031 8.710938 -46.503906 9.203125 -46.546875 C 9.691406 -46.597656 10.332031 -46.632812 11.125 -46.65625 C 11.914062 -46.675781 12.941406 -46.6875 14.203125 -46.6875 L 22.1875 -46.6875 L 22.1875 -36.546875 L 19.953125 -36.546875 C 19.109375 -36.546875 18.429688 -36.53125 17.921875 -36.5 C 17.410156 -36.476562 16.988281 -36.441406 16.65625 -36.390625 C 16.332031 -36.347656 16.066406 -36.253906 15.859375 -36.109375 C 15.648438 -35.972656 15.453125 -35.8125 15.265625 -35.625 C 14.835938 -35.207031 14.578125 -34.726562 14.484375 -34.1875 C 14.390625 -33.65625 14.34375 -32.550781 14.34375 -30.875 L 14.34375 -15.8125 C 14.34375 -14.132812 14.398438 -13.023438 14.515625 -12.484375 C 14.640625 -11.953125 14.890625 -11.476562 15.265625 -11.0625 C 15.453125 -10.820312 15.648438 -10.644531 15.859375 -10.53125 C 16.066406 -10.414062 16.332031 -10.332031 16.65625 -10.28125 C 16.988281 -10.238281 17.410156 -10.207031 17.921875 -10.1875 C 18.429688 -10.164062 19.109375 -10.15625 19.953125 -10.15625 L 22.546875 -10.15625 L 22.546875 0 Z M 14.203125 0 "/></g></g></g><g fill="#f2fcfc" fill-opacity="1"><g transform="translate(168.556571, 211.499986)"><g><path d="M 2.234375 -46.6875 L 14.765625 -46.6875 L 14.765625 0 L 2.234375 0 Z M 2.234375 -46.6875 "/></g></g></g><g fill="#f2fcfc" fill-opacity="1"><g transform="translate(185.565637, 211.499986)"><g><path d="M 14.203125 0 C 11.410156 0 9.171875 -0.40625 7.484375 -1.21875 C 5.804688 -2.039062 4.546875 -3.335938 3.703125 -5.109375 C 3.335938 -5.898438 3.035156 -6.703125 2.796875 -7.515625 C 2.566406 -8.335938 2.378906 -9.273438 2.234375 -10.328125 C 2.097656 -11.378906 1.992188 -12.59375 1.921875 -13.96875 C 1.847656 -15.34375 1.8125 -17.007812 1.8125 -18.96875 L 1.8125 -27.71875 C 1.8125 -29.675781 1.847656 -31.34375 1.921875 -32.71875 C 1.992188 -34.101562 2.097656 -35.316406 2.234375 -36.359375 C 2.378906 -37.410156 2.566406 -38.34375 2.796875 -39.15625 C 3.035156 -39.976562 3.335938 -40.785156 3.703125 -41.578125 C 4.546875 -43.347656 5.804688 -44.640625 7.484375 -45.453125 C 9.171875 -46.273438 11.410156 -46.6875 14.203125 -46.6875 L 19.8125 -46.6875 C 22.613281 -46.6875 24.851562 -46.273438 26.53125 -45.453125 C 28.207031 -44.640625 29.46875 -43.347656 30.3125 -41.578125 C 30.6875 -40.785156 30.988281 -39.976562 31.21875 -39.15625 C 31.445312 -38.34375 31.628906 -37.410156 31.765625 -36.359375 C 31.910156 -35.316406 32.019531 -34.101562 32.09375 -32.71875 C 32.164062 -31.34375 32.203125 -29.675781 32.203125 -27.71875 L 32.203125 -18.96875 C 32.203125 -17.007812 32.164062 -15.34375 32.09375 -13.96875 C 32.019531 -12.59375 31.910156 -11.378906 31.765625 -10.328125 C 31.628906 -9.273438 31.445312 -8.335938 31.21875 -7.515625 C 30.988281 -6.703125 30.6875 -5.898438 30.3125 -5.109375 C 29.46875 -3.335938 28.207031 -2.039062 26.53125 -1.21875 C 24.851562 -0.40625 22.613281 0 19.8125 0 Z M 19.671875 -33.3125 C 19.671875 -34.4375 19.425781 -35.335938 18.9375 -36.015625 C 18.445312 -36.691406 17.804688 -37.03125 17.015625 -37.03125 C 16.210938 -37.03125 15.566406 -36.691406 15.078125 -36.015625 C 14.585938 -35.335938 14.34375 -34.4375 14.34375 -33.3125 L 14.34375 -13.234375 C 14.34375 -12.066406 14.585938 -11.15625 15.078125 -10.5 C 15.566406 -9.84375 16.210938 -9.515625 17.015625 -9.515625 C 17.804688 -9.515625 18.445312 -9.84375 18.9375 -10.5 C 19.425781 -11.15625 19.671875 -12.066406 19.671875 -13.234375 Z M 19.671875 -33.3125 "/></g></g></g><g fill="#f2fcfc" fill-opacity="1"><g transform="translate(219.513778, 211.499986)"><g><path d="M 2.234375 -46.6875 L 19.875 -46.6875 C 21.132812 -46.6875 22.113281 -46.675781 22.8125 -46.65625 C 23.519531 -46.632812 24.070312 -46.625 24.46875 -46.625 C 24.863281 -46.625 25.140625 -46.609375 25.296875 -46.578125 C 25.460938 -46.554688 25.664062 -46.523438 25.90625 -46.484375 C 28.65625 -46.054688 30.519531 -44.84375 31.5 -42.84375 C 31.875 -42.050781 32.15625 -40.613281 32.34375 -38.53125 C 32.53125 -36.457031 32.625 -33.953125 32.625 -31.015625 L 32.625 -18.40625 C 32.625 -16.03125 32.550781 -13.722656 32.40625 -11.484375 C 32.269531 -9.242188 32.082031 -7.445312 31.84375 -6.09375 C 31.195312 -2.351562 29.144531 -0.367188 25.6875 -0.140625 C 25.550781 -0.140625 25.109375 -0.125 24.359375 -0.09375 C 23.609375 -0.0703125 22.113281 -0.0390625 19.875 0 L 2.234375 0 Z M 17.015625 -10.296875 C 18.316406 -10.296875 19.15625 -10.550781 19.53125 -11.0625 C 19.90625 -11.570312 20.09375 -12.664062 20.09375 -14.34375 L 20.09375 -32.40625 C 20.09375 -34.132812 19.90625 -35.253906 19.53125 -35.765625 C 19.15625 -36.285156 18.316406 -36.546875 17.015625 -36.546875 L 14.765625 -36.546875 L 14.765625 -10.296875 Z M 17.015625 -10.296875 "/></g></g></g><g fill="#f2fcfc" fill-opacity="1"><g transform="translate(253.951886, 211.499986)"><g><path d="M 14.203125 0 C 12.710938 0 11.535156 -0.0078125 10.671875 -0.03125 C 9.804688 -0.0507812 9.128906 -0.0820312 8.640625 -0.125 C 8.148438 -0.175781 7.773438 -0.210938 7.515625 -0.234375 C 7.265625 -0.265625 7 -0.328125 6.71875 -0.421875 C 5.738281 -0.703125 4.929688 -1.15625 4.296875 -1.78125 C 3.671875 -2.414062 3.171875 -3.347656 2.796875 -4.578125 C 2.421875 -5.816406 2.160156 -7.414062 2.015625 -9.375 C 1.878906 -11.332031 1.8125 -13.804688 1.8125 -16.796875 L 1.8125 -31.703125 C 1.8125 -32.410156 1.832031 -33.191406 1.875 -34.046875 C 1.925781 -34.910156 1.988281 -35.765625 2.0625 -36.609375 C 2.132812 -37.453125 2.203125 -38.234375 2.265625 -38.953125 C 2.335938 -39.679688 2.421875 -40.253906 2.515625 -40.671875 C 2.847656 -42.304688 3.375 -43.550781 4.09375 -44.40625 C 4.820312 -45.269531 5.835938 -45.890625 7.140625 -46.265625 C 7.421875 -46.316406 7.710938 -46.363281 8.015625 -46.40625 C 8.316406 -46.457031 8.710938 -46.503906 9.203125 -46.546875 C 9.691406 -46.597656 10.332031 -46.632812 11.125 -46.65625 C 11.914062 -46.675781 12.941406 -46.6875 14.203125 -46.6875 L 25.90625 -46.6875 L 25.90625 -36.546875 L 14.34375 -36.546875 L 14.34375 -28.421875 L 25.90625 -28.421875 L 25.90625 -18.265625 L 14.34375 -18.265625 L 14.34375 -10.15625 L 25.90625 -10.15625 L 25.90625 0 Z M 14.203125 0 "/></g></g></g><g fill="#f2fcfc" fill-opacity="1"><g transform="translate(281.670367, 211.499986)"><g><path d="M 10.15625 0 C 7.488281 -4.664062 5.429688 -9.226562 3.984375 -13.6875 C 2.535156 -18.144531 1.8125 -22.191406 1.8125 -25.828125 L 1.8125 -46.6875 L 14.34375 -46.6875 L 14.34375 -13.15625 C 14.34375 -11.800781 14.539062 -10.84375 14.9375 -10.28125 C 15.34375 -9.726562 16.007812 -9.453125 16.9375 -9.453125 C 17.820312 -9.453125 18.460938 -9.726562 18.859375 -10.28125 C 19.253906 -10.84375 19.453125 -11.800781 19.453125 -13.15625 L 19.453125 -46.6875 L 31.984375 -46.6875 L 31.984375 -25.828125 C 31.984375 -22.191406 31.257812 -18.109375 29.8125 -13.578125 C 28.375 -9.054688 26.320312 -4.53125 23.65625 0 Z M 10.15625 0 "/></g></g></g><path stroke-linecap="butt" transform="matrix(0.53033, -0.53033, 0.53033, 0.53033, 86.801804, 154.046635)" fill="none" stroke-linejoin="miter" d="M 0.00249164 2.499916 L 49.676746 2.499916 " stroke="#53e9f6" stroke-width="5" stroke-opacity="1" stroke-miterlimit="4"/><path stroke-linecap="butt" transform="matrix(0.75, 0.000000000000000478, -0.000000000000000478, 0.75, 56.002002, 153.057105)" fill="none" stroke-linejoin="miter" d="M 0.0025395 2.501985 L 44.632751 2.501985 " stroke="#53e9f6" stroke-width="5" stroke-opacity="1" stroke-miterlimit="4"/><path stroke-linecap="butt" transform="matrix(0, 0.75, -0.75, 0, 52.455872, 161.78013)" fill="none" stroke-linejoin="miter" d="M 0.0014931 2.498455 L 71.501498 2.498455 " stroke="#53e9f6" stroke-width="5" stroke-opacity="1" stroke-miterlimit="4"/><path stroke-linecap="butt" transform="matrix(0.75, 0, 0, 0.75, 56.002002, 218.106914)" fill="none" stroke-linejoin="miter" d="M 0.0025395 2.498073 L 44.632751 2.498073 " stroke="#53e9f6" stroke-width="5" stroke-opacity="1" stroke-miterlimit="4"/><path stroke-linecap="butt" transform="matrix(0.525234, 0.535378, -0.535378, 0.525234, 89.617688, 218.078731)" fill="none" stroke-linejoin="miter" d="M -0.00290778 2.500696 L 50.436001 2.500766 " stroke="#53e9f6" stroke-width="5" stroke-opacity="1" stroke-miterlimit="4"/><path stroke-linecap="butt" transform="matrix(0.464132, -0.589136, 0.589136, 0.464132, 46.940937, 160.750302)" fill="none" stroke-linejoin="miter" d="M 1.572485 5.193522 C 6.004028 1.602815 10.220839 1.602601 14.237548 5.194615 " stroke="#53e9f6" stroke-width="5" stroke-opacity="1" stroke-miterlimit="4"/><path stroke-linecap="butt" transform="matrix(-0.57225, -0.484799, 0.484799, -0.57225, 56.057974, 224.42814)" fill="none" stroke-linejoin="miter" d="M 1.757644 6.290035 C 6.861607 1.235668 11.24435 1.236108 14.909849 6.287989 " stroke="#53e9f6" stroke-width="5" stroke-opacity="1" stroke-miterlimit="4"/><path stroke-linecap="butt" transform="matrix(0.75, 0.000754506, -0.000754506, 0.75, 113.273918, 243.765541)" fill="none" stroke-linejoin="miter" d="M 0.00187465 2.500112 L 198.804058 2.498032 " stroke="#53e9f6" stroke-width="5" stroke-opacity="1" stroke-miterlimit="4"/><path stroke-linecap="butt" transform="matrix(0.523731, -0.536848, 0.536848, 0.523731, 259.781618, 244.928276)" fill="none" stroke-linejoin="miter" d="M 0.000530209 2.501836 L 50.58837 2.49764 " stroke="#53e9f6" stroke-width="5" stroke-opacity="1" stroke-miterlimit="4"/><path stroke-linecap="butt" transform="matrix(0.75, -0.0000625936, 0.0000625936, 0.75, 286.174848, 217.815571)" fill="none" stroke-linejoin="miter" d="M 0.00103545 2.501114 L 43.724997 2.499554 " stroke="#53e9f6" stroke-width="5" stroke-opacity="1" stroke-miterlimit="4"/><path stroke-linecap="butt" transform="matrix(0.505815, -0.553761, 0.553761, 0.505815, 315.849447, 219.696929)" fill="none" stroke-linejoin="miter" d="M 1.739718 1.878264 C 6.256975 6.252236 11.001777 6.249432 15.973792 1.877209 " stroke="#53e9f6" stroke-width="5" stroke-opacity="1" stroke-miterlimit="4"/><path stroke-linecap="butt" transform="matrix(0.00651334, 0.749972, -0.749972, 0.00651334, 326.390988, 160.878345)" fill="none" stroke-linejoin="miter" d="M -0.000134002 2.500577 L 69.091012 2.501638 " stroke="#53e9f6" stroke-width="5" stroke-opacity="1" stroke-miterlimit="4"/><path stroke-linecap="butt" transform="matrix(-0.558663, -0.500395, 0.500395, -0.558663, 324.569076, 163.742612)" fill="none" stroke-linejoin="miter" d="M 1.728636 1.885559 C 6.29415 6.25671 11.085309 6.258436 16.105995 1.887261 " stroke="#53e9f6" stroke-width="5" stroke-opacity="1" stroke-miterlimit="4"/><path stroke-linecap="butt" transform="matrix(0.749998, 0.00157972, -0.00157972, 0.749998, 286.274047, 152.715576)" fill="none" stroke-linejoin="miter" d="M -0.000757715 2.499032 L 40.99934 2.501215 " stroke="#53e9f6" stroke-width="5" stroke-opacity="1" stroke-miterlimit="4"/><path stroke-linecap="butt" transform="matrix(0.53417, 0.526463, -0.526463, 0.53417, 262.143443, 127.368376)" fill="none" stroke-linejoin="miter" d="M 0.000164413 2.498575 L 49.98508 2.500861 " stroke="#53e9f6" stroke-width="5" stroke-opacity="1" stroke-miterlimit="4"/><path stroke-linecap="butt" transform="matrix(0.532848, 0.527801, -0.527801, 0.532848, 87.26811, 140.57838)" fill="none" stroke-linejoin="miter" d="M 0.000256251 2.499103 L 15.074316 2.500856 " stroke="#53e9f6" stroke-width="5" stroke-opacity="1" stroke-miterlimit="4"/><path stroke-linecap="butt" transform="matrix(-0.749975, -0.00607525, 0.00607525, -0.749975, 87.282678, 144.232037)" fill="none" stroke-linejoin="miter" d="M 0.00133901 2.502162 L 24.689634 2.500096 " stroke="#53e9f6" stroke-width="5" stroke-opacity="1" stroke-miterlimit="4"/><path stroke-linecap="butt" transform="matrix(-0.532848, -0.527801, 0.527801, -0.532848, 288.742282, 234.332591)" fill="none" stroke-linejoin="miter" d="M -0.000236177 2.50112 L 15.077523 2.499208 " stroke="#53e9f6" stroke-width="5" stroke-opacity="1" stroke-miterlimit="4"/><path stroke-linecap="butt" transform="matrix(0.749975, 0.00607525, -0.00607525, 0.749975, 288.73519, 230.678949)" fill="none" stroke-linejoin="miter" d="M -0.00165987 2.501081 L 24.691843 2.498972 " stroke="#53e9f6" stroke-width="5" stroke-opacity="1" stroke-miterlimit="4"/><path stroke-linecap="butt" transform="matrix(0.533842, -0.526794, 0.526794, 0.533842, 83.582269, 231.817485)" fill="none" stroke-linejoin="miter" d="M -0.00101336 2.499474 L 15.036384 2.49899 " stroke="#53e9f6" stroke-width="5" stroke-opacity="1" stroke-miterlimit="4"/><path stroke-linecap="butt" transform="matrix(0.749966, 0.00708927, -0.00708927, 0.749966, 68.80057, 230.528994)" fill="none" stroke-linejoin="miter" d="M -0.00214819 2.497931 L 23.134305 2.497987 " stroke="#53e9f6" stroke-width="5" stroke-opacity="1" stroke-miterlimit="4"/><path stroke-linecap="butt" transform="matrix(-0.533842, 0.526794, -0.526794, -0.533842, 291.437623, 142.953125)" fill="none" stroke-linejoin="miter" d="M -0.00168072 2.500836 L 15.035716 2.500352 " stroke="#53e9f6" stroke-width="5" stroke-opacity="1" stroke-miterlimit="4"/><path stroke-linecap="butt" transform="matrix(-0.749977, 0.00590756, -0.00590756, -0.749977, 306.546692, 143.941719)" fill="none" stroke-linejoin="miter" d="M 0.000894029 2.500501 L 23.762051 2.500162 " stroke="#53e9f6" stroke-width="5" stroke-opacity="1" stroke-miterlimit="4"/><g clip-path="url(#488633a65c)"><path fill="#53e9f6" d="M 62.507812 135.195312 C 58.546875 135.195312 55.339844 138.402344 55.339844 142.363281 C 55.339844 146.320312 58.546875 149.527344 62.507812 149.527344 C 66.464844 149.527344 69.671875 146.320312 69.671875 142.363281 C 69.671875 138.402344 66.464844 135.195312 62.507812 135.195312 Z M 62.507812 148.09375 C 59.339844 148.09375 56.773438 145.527344 56.773438 142.363281 C 56.773438 139.195312 59.339844 136.628906 62.507812 136.628906 C 65.675781 136.628906 68.238281 139.195312 68.238281 142.363281 C 68.238281 145.527344 65.675781 148.09375 62.507812 148.09375 Z M 62.507812 148.09375 " fill-opacity="1" fill-rule="nonzero"/></g><g clip-path="url(#ae2128b035)"><path fill="#53e9f6" d="M 62.4375 135.945312 C 58.929688 135.945312 56.089844 138.785156 56.089844 142.292969 C 56.089844 145.796875 58.929688 148.636719 62.4375 148.636719 C 65.941406 148.636719 68.78125 145.796875 68.78125 142.292969 C 68.78125 138.785156 65.941406 135.945312 62.4375 135.945312 Z M 62.4375 147.367188 C 59.632812 147.367188 57.359375 145.097656 57.359375 142.292969 C 57.359375 139.488281 59.632812 137.214844 62.4375 137.214844 C 65.242188 137.214844 67.511719 139.488281 67.511719 142.292969 C 67.511719 145.097656 65.242188 147.367188 62.4375 147.367188 Z M 62.4375 147.367188 " fill-opacity="1" fill-rule="nonzero"/></g><g clip-path="url(#9976f49cad)"><path fill="#53e9f6" d="M 62.511719 137.035156 C 59.566406 137.035156 57.179688 139.417969 57.179688 142.367188 C 57.179688 145.3125 59.566406 147.699219 62.511719 147.699219 C 65.457031 147.699219 67.84375 145.3125 67.84375 142.367188 C 67.84375 139.417969 65.457031 137.035156 62.511719 137.035156 Z M 62.511719 146.632812 C 60.152344 146.632812 58.246094 144.722656 58.246094 142.367188 C 58.246094 140.007812 60.152344 138.101562 62.511719 138.101562 C 64.867188 138.101562 66.777344 140.007812 66.777344 142.367188 C 66.777344 144.722656 64.867188 146.632812 62.511719 146.632812 Z M 62.511719 146.632812 " fill-opacity="1" fill-rule="nonzero"/></g><g clip-path="url(#0573df4536)"><path fill="#53e9f6" d="M 62.433594 137.933594 C 59.984375 137.933594 58.003906 139.914062 58.003906 142.363281 C 58.003906 144.8125 59.984375 146.792969 62.433594 146.792969 C 64.878906 146.792969 66.863281 144.8125 66.863281 142.363281 C 66.863281 139.914062 64.878906 137.933594 62.433594 137.933594 Z M 62.433594 145.90625 C 60.476562 145.90625 58.890625 144.320312 58.890625 142.363281 C 58.890625 140.40625 60.476562 138.820312 62.433594 138.820312 C 64.390625 138.820312 65.976562 140.40625 65.976562 142.363281 C 65.976562 144.320312 64.390625 145.90625 62.433594 145.90625 Z M 62.433594 145.90625 " fill-opacity="1" fill-rule="nonzero"/></g><g clip-path="url(#b60cd78699)"><path fill="#53e9f6" d="M 62.507812 225.046875 C 58.546875 225.046875 55.339844 228.253906 55.339844 232.214844 C 55.339844 236.171875 58.546875 239.378906 62.507812 239.378906 C 66.464844 239.378906 69.671875 236.171875 69.671875 232.214844 C 69.671875 228.253906 66.464844 225.046875 62.507812 225.046875 Z M 62.507812 237.945312 C 59.339844 237.945312 56.773438 235.378906 56.773438 232.214844 C 56.773438 229.046875 59.339844 226.480469 62.507812 226.480469 C 65.675781 226.480469 68.238281 229.046875 68.238281 232.214844 C 68.238281 235.378906 65.675781 237.945312 62.507812 237.945312 Z M 62.507812 237.945312 " fill-opacity="1" fill-rule="nonzero"/></g><g clip-path="url(#453c0a58e8)"><path fill="#53e9f6" d="M 62.4375 225.796875 C 58.929688 225.796875 56.089844 228.636719 56.089844 232.144531 C 56.089844 235.648438 58.929688 238.488281 62.4375 238.488281 C 65.941406 238.488281 68.78125 235.648438 68.78125 232.144531 C 68.78125 228.636719 65.941406 225.796875 62.4375 225.796875 Z M 62.4375 237.21875 C 59.632812 237.21875 57.359375 234.949219 57.359375 232.144531 C 57.359375 229.339844 59.632812 227.066406 62.4375 227.066406 C 65.242188 227.066406 67.511719 229.339844 67.511719 232.144531 C 67.511719 234.949219 65.242188 237.21875 62.4375 237.21875 Z M 62.4375 237.21875 " fill-opacity="1" fill-rule="nonzero"/></g><g clip-path="url(#57521bddc4)"><path fill="#53e9f6" d="M 62.511719 226.886719 C 59.566406 226.886719 57.179688 229.269531 57.179688 232.21875 C 57.179688 235.164062 59.566406 237.550781 62.511719 237.550781 C 65.457031 237.550781 67.84375 235.164062 67.84375 232.21875 C 67.84375 229.269531 65.457031 226.886719 62.511719 226.886719 Z M 62.511719 236.484375 C 60.152344 236.484375 58.246094 234.574219 58.246094 232.21875 C 58.246094 229.859375 60.152344 227.953125 62.511719 227.953125 C 64.867188 227.953125 66.777344 229.859375 66.777344 232.21875 C 66.777344 234.574219 64.867188 236.484375 62.511719 236.484375 Z M 62.511719 236.484375 " fill-opacity="1" fill-rule="nonzero"/></g><g clip-path="url(#9bde20f05d)"><path fill="#53e9f6" d="M 62.433594 227.785156 C 59.984375 227.785156 58.003906 229.765625 58.003906 232.214844 C 58.003906 234.664062 59.984375 236.644531 62.433594 236.644531 C 64.878906 236.644531 66.863281 234.664062 66.863281 232.214844 C 66.863281 229.765625 64.878906 227.785156 62.433594 227.785156 Z M 62.433594 235.757812 C 60.476562 235.757812 58.890625 234.171875 58.890625 232.214844 C 58.890625 230.257812 60.476562 228.671875 62.433594 228.671875 C 64.390625 228.671875 65.976562 230.257812 65.976562 232.214844 C 65.976562 234.171875 64.390625 235.757812 62.433594 235.757812 Z M 62.433594 235.757812 " fill-opacity="1" fill-rule="nonzero"/></g><g clip-path="url(#fe367ab643)"><path fill="#53e9f6" d="M 312.820312 225.027344 C 308.859375 225.027344 305.652344 228.234375 305.652344 232.195312 C 305.652344 236.152344 308.859375 239.359375 312.820312 239.359375 C 316.777344 239.359375 319.984375 236.152344 319.984375 232.195312 C 319.984375 228.234375 316.777344 225.027344 312.820312 225.027344 Z M 312.820312 237.925781 C 309.652344 237.925781 307.085938 235.363281 307.085938 232.195312 C 307.085938 229.027344 309.652344 226.460938 312.820312 226.460938 C 315.988281 226.460938 318.550781 229.027344 318.550781 232.195312 C 318.550781 235.363281 315.988281 237.925781 312.820312 237.925781 Z M 312.820312 237.925781 " fill-opacity="1" fill-rule="nonzero"/></g><g clip-path="url(#0427b2a7d7)"><path fill="#53e9f6" d="M 312.75 225.777344 C 309.242188 225.777344 306.402344 228.617188 306.402344 232.125 C 306.402344 235.628906 309.242188 238.46875 312.75 238.46875 C 316.253906 238.46875 319.09375 235.628906 319.09375 232.125 C 319.09375 228.617188 316.253906 225.777344 312.75 225.777344 Z M 312.75 237.199219 C 309.945312 237.199219 307.671875 234.929688 307.671875 232.125 C 307.671875 229.320312 309.945312 227.046875 312.75 227.046875 C 315.554688 227.046875 317.824219 229.320312 317.824219 232.125 C 317.824219 234.929688 315.554688 237.199219 312.75 237.199219 Z M 312.75 237.199219 " fill-opacity="1" fill-rule="nonzero"/></g><g clip-path="url(#2764ff7863)"><path fill="#53e9f6" d="M 312.824219 226.867188 C 309.878906 226.867188 307.492188 229.253906 307.492188 232.199219 C 307.492188 235.144531 309.878906 237.53125 312.824219 237.53125 C 315.769531 237.53125 318.15625 235.144531 318.15625 232.199219 C 318.15625 229.253906 315.769531 226.867188 312.824219 226.867188 Z M 312.824219 236.464844 C 310.464844 236.464844 308.558594 234.554688 308.558594 232.199219 C 308.558594 229.839844 310.464844 227.933594 312.824219 227.933594 C 315.179688 227.933594 317.089844 229.839844 317.089844 232.199219 C 317.089844 234.554688 315.179688 236.464844 312.824219 236.464844 Z M 312.824219 236.464844 " fill-opacity="1" fill-rule="nonzero"/></g><g clip-path="url(#66221d4ec7)"><path fill="#53e9f6" d="M 312.746094 227.765625 C 310.296875 227.765625 308.316406 229.75 308.316406 232.195312 C 308.316406 234.644531 310.296875 236.625 312.746094 236.625 C 315.191406 236.625 317.175781 234.644531 317.175781 232.195312 C 317.175781 229.75 315.191406 227.765625 312.746094 227.765625 Z M 312.746094 235.738281 C 310.789062 235.738281 309.203125 234.152344 309.203125 232.195312 C 309.203125 230.238281 310.789062 228.652344 312.746094 228.652344 C 314.703125 228.652344 316.289062 230.238281 316.289062 232.195312 C 316.289062 234.152344 314.703125 235.738281 312.746094 235.738281 Z M 312.746094 235.738281 " fill-opacity="1" fill-rule="nonzero"/></g><g clip-path="url(#f18b587351)"><path fill="#53e9f6" d="M 312.820312 135.027344 C 308.859375 135.027344 305.652344 138.234375 305.652344 142.195312 C 305.652344 146.152344 308.859375 149.359375 312.820312 149.359375 C 316.777344 149.359375 319.984375 146.152344 319.984375 142.195312 C 319.984375 138.234375 316.777344 135.027344 312.820312 135.027344 Z M 312.820312 147.925781 C 309.652344 147.925781 307.085938 145.363281 307.085938 142.195312 C 307.085938 139.027344 309.652344 136.460938 312.820312 136.460938 C 315.988281 136.460938 318.550781 139.027344 318.550781 142.195312 C 318.550781 145.363281 315.988281 147.925781 312.820312 147.925781 Z M 312.820312 147.925781 " fill-opacity="1" fill-rule="nonzero"/></g><g clip-path="url(#47bbc3b043)"><path fill="#53e9f6" d="M 312.75 135.777344 C 309.242188 135.777344 306.402344 138.617188 306.402344 142.125 C 306.402344 145.628906 309.242188 148.46875 312.75 148.46875 C 316.253906 148.46875 319.09375 145.628906 319.09375 142.125 C 319.09375 138.617188 316.253906 135.777344 312.75 135.777344 Z M 312.75 147.199219 C 309.945312 147.199219 307.671875 144.929688 307.671875 142.125 C 307.671875 139.320312 309.945312 137.046875 312.75 137.046875 C 315.554688 137.046875 317.824219 139.320312 317.824219 142.125 C 317.824219 144.929688 315.554688 147.199219 312.75 147.199219 Z M 312.75 147.199219 " fill-opacity="1" fill-rule="nonzero"/></g><g clip-path="url(#6f28324fe6)"><path fill="#53e9f6" d="M 312.824219 136.867188 C 309.878906 136.867188 307.492188 139.253906 307.492188 142.199219 C 307.492188 145.144531 309.878906 147.53125 312.824219 147.53125 C 315.769531 147.53125 318.15625 145.144531 318.15625 142.199219 C 318.15625 139.253906 315.769531 136.867188 312.824219 136.867188 Z M 312.824219 146.464844 C 310.464844 146.464844 308.558594 144.554688 308.558594 142.199219 C 308.558594 139.839844 310.464844 137.933594 312.824219 137.933594 C 315.179688 137.933594 317.089844 139.839844 317.089844 142.199219 C 317.089844 144.554688 315.179688 146.464844 312.824219 146.464844 Z M 312.824219 146.464844 " fill-opacity="1" fill-rule="nonzero"/></g><g clip-path="url(#feca6a79ef)"><path fill="#53e9f6" d="M 312.746094 137.765625 C 310.296875 137.765625 308.316406 139.75 308.316406 142.195312 C 308.316406 144.644531 310.296875 146.625 312.746094 146.625 C 315.191406 146.625 317.175781 144.644531 317.175781 142.195312 C 317.175781 139.75 315.191406 137.765625 312.746094 137.765625 Z M 312.746094 145.738281 C 310.789062 145.738281 309.203125 144.152344 309.203125 142.195312 C 309.203125 140.238281 310.789062 138.652344 312.746094 138.652344 C 314.703125 138.652344 316.289062 140.238281 316.289062 142.195312 C 316.289062 144.152344 314.703125 145.738281 312.746094 145.738281 Z M 312.746094 145.738281 " fill-opacity="1" fill-rule="nonzero"/></g><path stroke-linecap="butt" transform="matrix(0.749999, -0.00132165, 0.00132165, 0.749999, 103.095187, 146.820562)" fill="none" stroke-linejoin="miter" d="M -0.000231931 1.999671 L 14.999791 2.000062 " stroke="#028abc" stroke-width="4" stroke-opacity="1" stroke-miterlimit="4"/><path stroke-linecap="butt" transform="matrix(0.545832, -0.514361, 0.514361, 0.545832, 112.243224, 147.726055)" fill="none" stroke-linejoin="miter" d="M 0.0026469 2.00009 L 14.302054 1.999347 " stroke="#028abc" stroke-width="4" stroke-opacity="1" stroke-miterlimit="4"/><path stroke-linecap="butt" transform="matrix(0.75, 0.000536429, -0.000536429, 0.75, 119.737914, 140.548481)" fill="none" stroke-linejoin="miter" d="M 0.0019183 1.997858 L 34.007138 1.999577 " stroke="#028abc" stroke-width="4" stroke-opacity="1" stroke-miterlimit="4"/><path stroke-linecap="butt" transform="matrix(0.749999, -0.00132811, 0.00132811, 0.749999, 127.234201, 146.848495)" fill="none" stroke-linejoin="miter" d="M 0.00190074 1.998888 L 99.205187 1.997476 " stroke="#028abc" stroke-width="4" stroke-opacity="1" stroke-miterlimit="4"/><path stroke-linecap="butt" transform="matrix(0.565733, -0.492388, 0.492388, 0.565733, 199.600861, 147.49398)" fill="none" stroke-linejoin="miter" d="M 0.000691243 1.999814 L 14.859724 1.999832 " stroke="#028abc" stroke-width="4" stroke-opacity="1" stroke-miterlimit="4"/><path stroke-linecap="butt" transform="matrix(0.749999, 0.000862935, -0.000862935, 0.749999, 208.060714, 140.175255)" fill="none" stroke-linejoin="miter" d="M -0.00052508 2.000704 L 40.207839 2.001316 " stroke="#028abc" stroke-width="4" stroke-opacity="1" stroke-miterlimit="4"/><path stroke-linecap="butt" transform="matrix(0.749999, 0.00118766, -0.00118766, 0.749999, 244.422761, 140.15791)" fill="none" stroke-linejoin="miter" d="M 0.00198193 1.997786 L 14.606172 2.000701 " stroke="#028abc" stroke-width="4" stroke-opacity="1" stroke-miterlimit="4"/><path stroke-linecap="butt" transform="matrix(0.518724, 0.541688, -0.541688, 0.518724, 255.455261, 140.272973)" fill="none" stroke-linejoin="miter" d="M -0.00248883 1.999077 L 13.60154 2.002851 " stroke="#028abc" stroke-width="4" stroke-opacity="1" stroke-miterlimit="4"/><path stroke-linecap="butt" transform="matrix(0.75, 0.000000000000002733, -0.000000000000002733, 0.75, 260.429459, 146.817823)" fill="none" stroke-linejoin="miter" d="M 0.000304135 1.998111 L 15.599263 1.998111 " stroke="#028abc" stroke-width="4" stroke-opacity="1" stroke-miterlimit="4"/><path stroke-linecap="butt" transform="matrix(0.75, -0.000292401, 0.000292401, 0.75, 103.697239, 223.290557)" fill="none" stroke-linejoin="miter" d="M 0.00186032 1.998009 L 67.798744 1.998399 " stroke="#028abc" stroke-width="4" stroke-opacity="1" stroke-miterlimit="4"/><path stroke-linecap="butt" transform="matrix(0.75, -0.000268628, 0.000268628, 0.75, 130.822086, 231.094994)" fill="none" stroke-linejoin="miter" d="M 0.00212857 1.998343 L 73.799013 1.998733 " stroke="#028abc" stroke-width="4" stroke-opacity="1" stroke-miterlimit="4"/><path stroke-linecap="butt" transform="matrix(0.75, -0.000127736, 0.000127736, 0.75, 193.52236, 223.280654)" fill="none" stroke-linejoin="miter" d="M 0.00109618 2.000795 L 77.60006 1.998386 " stroke="#028abc" stroke-width="4" stroke-opacity="1" stroke-miterlimit="4"/><path stroke-linecap="butt" transform="matrix(0.75, -0.000233854, 0.000233854, 0.75, 206.423237, 231.213779)" fill="none" stroke-linejoin="miter" d="M -0.00244051 2.001419 L 42.388191 1.999011 " stroke="#028abc" stroke-width="4" stroke-opacity="1" stroke-miterlimit="4"/><path stroke-linecap="butt" transform="matrix(0.555758, -0.503619, 0.503619, 0.555758, 184.12067, 231.842241)" fill="none" stroke-linejoin="miter" d="M 0.00155219 2.000268 L 16.966947 2.002304 " stroke="#028abc" stroke-width="4" stroke-opacity="1" stroke-miterlimit="4"/><path stroke-linecap="butt" transform="matrix(0.534458, -0.526169, 0.526169, 0.534458, 235.676341, 232.036919)" fill="none" stroke-linejoin="miter" d="M 0.00204324 2.001325 L 16.236519 1.99967 " stroke="#028abc" stroke-width="4" stroke-opacity="1" stroke-miterlimit="4"/><path stroke-linecap="butt" transform="matrix(0.525468, -0.535148, 0.535148, 0.525468, 253.357809, 232.203515)" fill="none" stroke-linejoin="miter" d="M 0.00199803 2.000996 L 17.087464 1.998548 " stroke="#028abc" stroke-width="4" stroke-opacity="1" stroke-miterlimit="4"/><path stroke-linecap="butt" transform="matrix(0.75, 0.000000000000003845, -0.000000000000003845, 0.75, 247.390711, 231.393162)" fill="none" stroke-linejoin="miter" d="M -0.000115273 2.001825 L 11.088427 2.001825 " stroke="#028abc" stroke-width="4" stroke-opacity="1" stroke-miterlimit="4"/><path stroke-linecap="butt" transform="matrix(0.749974, -0.00620744, 0.00620744, 0.749974, 262.378288, 223.143209)" fill="none" stroke-linejoin="miter" d="M -0.000119084 2.001831 L 12.984717 1.999926 " stroke="#028abc" stroke-width="4" stroke-opacity="1" stroke-miterlimit="4"/><path stroke-linecap="butt" transform="matrix(0.545639, 0.514566, -0.514566, 0.545639, 124.589908, 224.044732)" fill="none" stroke-linejoin="miter" d="M 0.00232012 1.99911 L 15.123189 2.000152 " stroke="#028abc" stroke-width="4" stroke-opacity="1" stroke-miterlimit="4"/><path stroke-linecap="butt" transform="matrix(0.569359, 0.488191, -0.488191, 0.569359, 154.58374, 223.191432)" fill="none" stroke-linejoin="miter" d="M -0.000279165 2.003544 L 9.485344 2.000226 " stroke="#028abc" stroke-width="4" stroke-opacity="1" stroke-miterlimit="4"/></svg>